<svg width="96" height="96" viewBox="0 0 96 96" fill="none" xmlns="http://www.w3.org/2000/svg">
<path d="M6 36.4C6 25.759 6 20.4385 8.07088 16.3742C9.89247 12.7991 12.7991 9.89247 16.3742 8.07088C20.4385 6 25.759 6 36.4 6H59.6C70.241 6 75.5615 6 79.6258 8.07088C83.2009 9.89247 86.1075 12.7991 87.9291 16.3742C90 20.4385 90 25.759 90 36.4V59.6C90 70.241 90 75.5615 87.9291 79.6258C86.1075 83.2009 83.2009 86.1075 79.6258 87.9291C75.5615 90 70.241 90 59.6 90H36.4C25.759 90 20.4385 90 16.3742 87.9291C12.7991 86.1075 9.89247 83.2009 8.07088 79.6258C6 75.5615 6 70.241 6 59.6V36.4Z" fill="#470137"/>
<path d="M49.9395 30.7014L39.4583 48.4445L50.6719 67.2856C50.905 67.7128 50.6719 67.8071 50.3339 67.8071H42.3323C41.7686 67.8071 41.3742 67.7868 41.1488 67.4012C40.3968 65.8986 39.6455 64.4055 38.8948 62.9221C38.1428 61.4392 37.3446 59.9269 36.5 58.3852C35.6547 56.8446 34.8189 55.2842 33.9924 53.7038C33.2405 55.2453 32.4045 56.7865 31.5974 58.3274C30.7893 59.8689 29.991 61.4005 29.2026 62.9221C28.4138 64.4446 27.6061 65.9569 26.7796 67.459C26.6291 67.8058 26.3657 67.8415 25.9906 67.8415H18.2708C17.9675 67.8415 17.9309 67.6135 18.1018 67.3434L28.9772 49.0224L18.3834 30.6436C18.191 30.3814 18.3566 30.1019 18.6652 30.1234H26.6105C26.9545 30.104 27.2585 30.2338 27.4557 30.5281C28.132 32.0695 28.8833 33.6107 29.7097 35.1516C30.5356 36.6931 31.3715 38.2151 32.2173 39.7174C33.0626 41.2201 33.8985 42.742 34.6123 44.2832C35.3632 42.7038 36.1239 41.1626 36.8944 39.6597C37.664 38.157 38.4529 36.6447 39.261 35.1227C40.0685 33.6011 40.8481 32.0888 41.5996 30.5858C41.6995 30.2561 41.9381 30.0891 42.2758 30.1234H49.6576C49.9395 30.1234 50.056 30.5082 49.9395 30.7014Z" fill="#FF61F6"/>
<path d="M66.1114 68.5575C61.1418 68.6351 55.9365 66.589 53.32 62.0556C52.0424 59.8792 51.4037 57.1532 51.4041 53.8776C51.3829 51.2251 52.0437 48.6136 53.32 46.3065C56.613 40.42 63.2471 38.2144 69.5487 38.7932V27.4076C69.5487 27.1385 69.6615 27.003 69.8869 27.003H76.9869C77.1809 26.9746 77.3527 27.1507 77.3251 27.3497V61.5065C77.3251 62.9158 77.4647 64.3201 77.5505 65.7255C77.5643 65.9656 77.4254 66.2031 77.2123 66.3035C73.7042 67.8041 69.9085 68.5401 66.1114 68.5575ZM69.5487 61.3909V45.613C64.402 44.183 59.4051 48.1032 59.4057 53.5308C59.2835 59.1423 64.1207 63.0192 69.5487 61.3909Z" fill="#FF61F6"/>
</svg>
