<svg width="96" height="96" viewBox="0 0 96 96" fill="none" xmlns="http://www.w3.org/2000/svg">
<path d="M6 36.4C6 25.759 6 20.4385 8.07088 16.3742C9.89247 12.7991 12.7991 9.89247 16.3742 8.07088C20.4385 6 25.759 6 36.4 6H59.6C70.241 6 75.5615 6 79.6258 8.07088C83.2009 9.89247 86.1075 12.7991 87.9291 16.3742C90 20.4385 90 25.759 90 36.4V59.6C90 70.241 90 75.5615 87.9291 79.6258C86.1075 83.2009 83.2009 86.1075 79.6258 87.9291C75.5615 90 70.241 90 59.6 90H36.4C25.759 90 20.4385 90 16.3742 87.9291C12.7991 86.1075 9.89247 83.2009 8.07088 79.6258C6 75.5615 6 70.241 6 59.6V36.4Z" fill="#001E36"/>
<path d="M24 67.5487V30.6103C24 30.359 24.105 30.2154 24.35 30.2154C27.9669 30.2154 31.5821 30 35.2 30C41.0705 30 47.4269 32.0073 49.655 38.1487C50.18 39.6564 50.46 41.2 50.46 42.8154C50.46 45.9026 49.76 48.4513 48.36 50.4615C44.4492 56.077 37.671 55.9898 31.595 55.9898V67.5128C31.6425 67.854 31.3518 68.0154 31.07 68.0154H24.42C24.14 68.0154 24 67.8718 24 67.5487ZM31.63 37.1436V49.2051C34.0392 49.3816 36.5602 49.4008 38.875 48.6308C41.4305 47.8936 42.83 45.6815 42.83 43.0308C42.901 40.7721 41.6702 38.6049 39.575 37.7897C37.2881 36.8388 34.0986 36.7819 31.63 37.1436Z" fill="#31A8FF"/>
<path d="M72.29 46.8221C71.231 46.264 70.1031 45.8557 68.9371 45.6084C67.4388 45.2558 61.5293 44.0211 61.5271 47.1111C61.5796 48.8362 64.3179 49.6813 65.5279 50.1742C69.7754 51.6325 74.5821 54.2391 74.4876 59.4792C74.6175 66.0025 68.2972 68.6102 62.8795 68.6108C60.059 68.64 57.1208 68.2031 54.5396 66.9925C54.2932 66.862 54.1346 66.5831 54.1452 66.2989V60.0571C54.1174 59.8068 54.386 59.5881 54.596 59.7682C57.1251 61.2976 60.1228 62.0402 63.0485 62.0799C64.34 62.0799 66.8998 61.9547 66.8804 60.0571C66.8804 58.2361 63.8183 57.3988 62.5977 56.9362C60.8283 56.3045 59.1507 55.4296 57.6107 54.3354C55.4586 52.8003 54.1085 50.339 54.1452 47.6312C54.1326 41.4891 59.9504 38.7321 65.1899 38.7308C67.6392 38.7106 70.2695 38.892 72.5496 39.8867C72.8774 39.9832 72.9454 40.3286 72.944 40.638V46.4753C72.9648 46.8377 72.5624 46.9611 72.29 46.8221Z" fill="#31A8FF"/>
</svg>
