<svg width="126" height="126" viewBox="0 0 126 126" fill="none" xmlns="http://www.w3.org/2000/svg">
<path d="M62.9167 125.833C28.2496 125.833 0 97.5838 0 62.9167C0 28.2496 28.2496 0 62.9167 0C97.5838 0 125.833 25.4183 125.833 56.625C125.833 77.4504 108.909 94.375 88.0833 94.375H76.9471C75.1854 94.375 73.8013 95.7592 73.8013 97.5208C73.8013 98.2758 74.1158 98.9679 74.6192 99.5971C77.1988 102.554 78.6458 106.266 78.6458 110.104C78.6458 118.787 71.5992 125.833 62.9167 125.833V125.833ZM62.9167 12.5833C35.1704 12.5833 12.5833 35.1704 12.5833 62.9167C12.5833 90.6629 35.1704 113.25 62.9167 113.25C64.6783 113.25 66.0625 111.866 66.0625 110.104C66.0625 109.098 65.5592 108.343 65.1817 107.902C62.6021 105.008 61.2179 101.296 61.2179 97.5208C61.2179 88.8383 68.2646 81.7917 76.9471 81.7917H88.0833C101.988 81.7917 113.25 70.5296 113.25 56.625C113.25 32.3392 90.6629 12.5833 62.9167 12.5833Z" fill="white"/>
<path d="M28.3125 69.208C33.5247 69.208 37.75 64.9827 37.75 59.7705C37.75 54.5583 33.5247 50.333 28.3125 50.333C23.1003 50.333 18.875 54.5583 18.875 59.7705C18.875 64.9827 23.1003 69.208 28.3125 69.208Z" fill="white"/>
<path d="M47.1875 44.0415C52.3997 44.0415 56.625 39.8162 56.625 34.604C56.625 29.3918 52.3997 25.1665 47.1875 25.1665C41.9753 25.1665 37.75 29.3918 37.75 34.604C37.75 39.8162 41.9753 44.0415 47.1875 44.0415Z" fill="white"/>
<path d="M78.6455 44.0415C83.8577 44.0415 88.083 39.8162 88.083 34.604C88.083 29.3918 83.8577 25.1665 78.6455 25.1665C73.4333 25.1665 69.208 29.3918 69.208 34.604C69.208 39.8162 73.4333 44.0415 78.6455 44.0415Z" fill="white"/>
<path d="M97.5205 69.208C102.733 69.208 106.958 64.9827 106.958 59.7705C106.958 54.5583 102.733 50.333 97.5205 50.333C92.3083 50.333 88.083 54.5583 88.083 59.7705C88.083 64.9827 92.3083 69.208 97.5205 69.208Z" fill="white"/>
</svg>
