<svg width="66" height="66" viewBox="0 0 66 66" fill="none" xmlns="http://www.w3.org/2000/svg">
<path d="M33 19.25C34.5125 19.25 35.75 20.4875 35.75 22V33C35.75 34.5125 34.5125 35.75 33 35.75C31.4875 35.75 30.25 34.5125 30.25 33V22C30.25 20.4875 31.4875 19.25 33 19.25ZM32.9725 5.5C17.7925 5.5 5.5 17.82 5.5 33C5.5 48.18 17.7925 60.5 32.9725 60.5C48.18 60.5 60.5 48.18 60.5 33C60.5 17.82 48.18 5.5 32.9725 5.5ZM33 55C20.845 55 11 45.155 11 33C11 20.845 20.845 11 33 11C45.155 11 55 20.845 55 33C55 45.155 45.155 55 33 55ZM35.75 46.75H30.25V41.25H35.75V46.75Z" fill="#FF4D5A"/>
</svg>
