<svg width="176" height="80" viewBox="0 0 176 80" fill="none" xmlns="http://www.w3.org/2000/svg">
<path d="M176 39.7419C176 61.6908 158.207 79.4839 136.258 79.4839C114.309 79.4839 96.5161 61.6908 96.5161 39.7419C96.5161 17.7931 114.309 0 136.258 0C158.207 0 176 17.7931 176 39.7419Z" fill="white"/>
<circle cx="39.7419" cy="39.7419" r="39.7419" fill="white"/>
<rect x="38.7959" width="97.9355" height="54.4086" fill="white"/>
<rect x="35.0107" y="19.8708" width="8.04301" height="37.3763" rx="4.02151" fill="#072141"/>
<rect x="57.2471" y="34.5376" width="8.04301" height="37.3763" rx="4.02151" transform="rotate(90 57.2471 34.5376)" fill="#072141"/>
<rect x="85.1611" y="12.301" width="6.15054" height="12.7742" rx="3.07527" transform="rotate(90 85.1611 12.301)" fill="#072141"/>
<rect x="105.505" y="12.301" width="6.15054" height="12.7742" rx="3.07527" transform="rotate(90 105.505 12.301)" fill="#072141"/>
<circle cx="152.107" cy="38.5592" r="6.86022" fill="#072141"/>
<circle cx="138.387" cy="24.8387" r="6.86022" fill="#072141"/>
<circle cx="124.667" cy="38.5592" r="6.86022" fill="#072141"/>
<circle cx="138.387" cy="51.8065" r="6.86022" fill="#072141"/>
</svg>
