<svg width="96" height="96" viewBox="0 0 96 96" fill="none" xmlns="http://www.w3.org/2000/svg">
<path d="M7.75608 52.2396C5.41464 49.8981 5.41464 46.1019 7.75608 43.7604L43.7604 7.75608C46.1019 5.41464 49.8981 5.41464 52.2396 7.75608L88.2439 43.7604C90.5854 46.1019 90.5854 49.8981 88.2439 52.2396L52.2396 88.2439C49.8981 90.5854 46.1019 90.5854 43.7604 88.2439L7.75608 52.2396Z" fill="#EE513B"/>
<path d="M36.4483 15.1848L32.8022 18.8308L42.219 28.2475C41.8381 29.0648 41.6254 29.9763 41.6254 30.9374C41.6254 33.6662 43.3399 35.9945 45.7504 36.904V59.9396C43.3399 60.849 41.6254 63.1774 41.6254 65.9061C41.6254 69.427 44.4796 72.2811 48.0004 72.2811C51.5212 72.2811 54.3754 69.427 54.3754 65.9061C54.3754 63.4322 52.9661 61.2874 50.9066 60.2306V36.9352L59.9082 45.9368C59.5459 46.7375 59.3441 47.6264 59.3441 48.5624C59.3441 52.0832 62.1983 54.9374 65.7191 54.9374C69.2399 54.9374 72.0941 52.0832 72.0941 48.5624C72.0941 45.0416 69.2399 42.1874 65.7191 42.1874C65.0349 42.1874 64.3759 42.2952 63.7581 42.4947L54.0906 32.8272C54.2757 32.23 54.3754 31.5954 54.3754 30.9374C54.3754 27.4166 51.5212 24.5624 48.0004 24.5624C47.3424 24.5624 46.7077 24.6621 46.1106 24.8471L36.4483 15.1848Z" fill="white"/>
</svg>
