<svg width="44" height="43" viewBox="0 0 44 43" fill="none" xmlns="http://www.w3.org/2000/svg">
<path fill-rule="evenodd" clip-rule="evenodd" d="M22 0C9.845 0 0 9.86461 0 22.0438C0 31.7982 6.2975 40.0371 15.0425 42.9579C16.1425 43.1508 16.555 42.4895 16.555 41.9108C16.555 41.3873 16.5275 39.6513 16.5275 37.8051C11 38.8247 9.57 36.455 9.13 35.215C8.8825 34.5812 7.81 32.6248 6.875 32.1013C6.105 31.688 5.005 30.6685 6.8475 30.6409C8.58 30.6134 9.8175 32.2391 10.23 32.9004C12.21 36.2345 15.3725 35.2977 16.6375 34.719C16.83 33.2862 17.4075 32.3217 18.04 31.7707C13.145 31.2196 8.03 29.3183 8.03 20.8865C8.03 18.4893 8.8825 16.5053 10.285 14.9622C10.065 14.4111 9.295 12.1517 10.505 9.12063C10.505 9.12063 12.3475 8.54198 16.555 11.3801C18.315 10.8841 20.185 10.6361 22.055 10.6361C23.925 10.6361 25.795 10.8841 27.555 11.3801C31.7625 8.51443 33.605 9.12063 33.605 9.12063C34.815 12.1517 34.045 14.4111 33.825 14.9622C35.2275 16.5053 36.08 18.4617 36.08 20.8865C36.08 29.3458 30.9375 31.2196 26.0425 31.7707C26.84 32.4595 27.5275 33.7821 27.5275 35.8488C27.5275 38.7971 27.5 41.1668 27.5 41.9108C27.5 42.4895 27.9125 43.1783 29.0125 42.9579C37.7025 40.0371 44 31.7707 44 22.0438C44 9.86461 34.155 0 22 0Z" fill="white"/>
</svg>
