<svg width="96" height="96" viewBox="0 0 96 96" fill="none" xmlns="http://www.w3.org/2000/svg">
<path d="M48.1477 25.3219C67.9121 9.97821 57.7685 0 57.7685 0C59.278 15.8622 41.4375 19.6075 36.6553 30.5075C33.3921 37.9454 38.8898 44.458 48.1411 52.6661C47.3232 50.8482 46.0619 49.0818 44.7848 47.2934C40.4294 41.1938 35.892 34.8396 48.1477 25.3219Z" fill="#E76F00"/>
<path d="M51.303 56.0311C51.303 56.0311 57.2492 51.2336 52.5402 45.9023C36.5778 27.8156 69.9985 19.6075 69.9985 19.6075C49.5937 29.4375 52.6399 35.2723 57.7686 42.3605C63.2598 49.9613 51.303 56.0311 51.303 56.0311Z" fill="#E76F00"/>
<path d="M68.8111 70.3367C87.127 60.9774 78.6584 51.9833 72.7475 53.195C71.2987 53.4915 70.6527 53.7485 70.6527 53.7485C70.6527 53.7485 71.1906 52.9199 72.2178 52.5613C83.9115 48.5186 92.9047 64.4848 68.443 70.8084C68.443 70.8087 68.7264 70.5595 68.8111 70.3367Z" fill="#5382A1"/>
<path d="M30.6991 58.4908C19.2394 56.9859 36.9824 52.8417 36.9824 52.8417C36.9824 52.8417 30.0921 52.3848 21.6178 56.413C11.5973 61.1795 46.4042 63.3473 64.4219 58.6874C66.2951 57.4296 68.8843 56.3393 68.8843 56.3393C68.8843 56.3393 61.5112 57.6343 54.1683 58.2434C45.1835 58.9837 35.5378 59.1278 30.6991 58.4908Z" fill="#5382A1"/>
<path d="M35.0591 67.4274C28.6687 66.7775 32.853 63.7317 32.853 63.7317C16.317 69.1287 42.0533 75.2489 65.1596 68.6047C62.7036 67.7532 61.1417 66.196 61.1417 66.196C49.849 68.3344 43.3229 68.2658 35.0591 67.4274Z" fill="#5382A1"/>
<path d="M37.8435 77.0974C31.4579 76.3755 35.1885 74.2421 35.1885 74.2421C20.1778 78.3666 44.3188 86.8875 63.4298 78.8331C60.2996 77.6362 58.0583 76.2542 58.0583 76.2542C49.5332 77.8408 45.5794 77.9653 37.8435 77.0974Z" fill="#5382A1"/>
<path d="M77.816 82.0163C77.816 82.0163 80.5767 84.2532 74.7755 85.9837C63.7444 89.2699 28.8628 90.2622 19.1728 86.1147C15.6895 84.6245 22.2217 82.5566 24.2765 82.1227C26.4194 81.6657 27.644 81.7508 27.644 81.7508C23.7702 79.0673 2.60547 87.02 16.8933 89.2976C55.8584 95.5115 87.923 86.4994 77.816 82.0163Z" fill="#5382A1"/>
<path d="M84 86.9037C83.3606 95.0841 56.3631 96.8048 38.7822 95.6981C27.313 94.9749 25.0144 93.1674 24.9807 93.1409C35.9576 94.9206 54.4647 95.2445 69.4703 92.4676C82.771 90.0048 84 86.9037 84 86.9037Z" fill="#5382A1"/>
</svg>
