<svg width="96" height="96" viewBox="0 0 96 96" fill="none" xmlns="http://www.w3.org/2000/svg">
<circle cx="48" cy="48" r="44" fill="#0769AD"/>
<path d="M71.1334 38.3451C75.5956 38.3451 79.6814 36.8568 82.8404 34.3886C79.5609 38.7096 74.1276 41.5347 67.9796 41.5347C57.9644 41.5347 49.8454 34.0374 49.8454 24.7891C49.8454 19.6612 52.3414 15.0717 56.2727 12C54.2098 14.7182 52.9992 18.0283 52.9992 21.5995C52.9992 30.8478 61.1182 38.3451 71.1334 38.3451Z" fill="#78CFF5"/>
<path d="M82.6676 49.8381C77.8567 53.6118 71.6288 55.888 64.8259 55.888C49.5852 55.888 37.2303 44.4636 37.2303 30.3709C37.2303 24.905 39.0888 19.8405 42.2535 15.6882C36.2865 20.3688 32.4996 27.3532 32.4996 35.1554C32.4996 49.2481 44.8546 60.6725 60.0952 60.6725C69.4247 60.6725 77.6728 56.3915 82.6676 49.8381Z" fill="#78CFF5"/>
<path d="M83 64.4338C76.1446 70.9756 66.6476 75.0259 56.153 75.0259C35.2515 75.0259 18.3076 58.9603 18.3076 39.1425C18.3076 32.8627 20.0089 26.9597 22.9984 21.8252C16.2004 28.3123 12 37.2493 12 47.1166C12 66.9344 28.944 83 49.8454 83C64.1237 83 76.5552 75.5028 83 64.4338Z" fill="#78CFF5"/>
</svg>
