<svg width="96" height="96" viewBox="0 0 96 96" fill="none" xmlns="http://www.w3.org/2000/svg">
<rect x="6" y="6" width="84" height="84" fill="#FFCA28"/>
<path d="M57 75.8628L63.1846 71.7705C63.6692 73.2932 66.7385 76.9097 70.6154 76.9097C74.4923 76.9097 76.2923 74.7922 76.2923 73.3884C76.2923 69.5628 72.3335 68.214 70.4321 67.5662C70.1221 67.4606 69.8669 67.3736 69.6923 67.2975C69.6028 67.2585 69.4674 67.2068 69.2936 67.1404C67.1789 66.3325 59.3769 63.3517 59.3769 54.7113C59.3769 45.1943 68.5615 44.0999 70.6385 44.0999C71.9973 44.0999 78.5308 44.2664 81.7846 50.3811L75.7846 54.5686C74.4692 51.9038 72.2838 51.0235 70.9385 51.0235C67.6154 51.0235 66.9231 53.4597 66.9231 54.5686C66.9231 57.6802 70.5335 59.0749 73.582 60.2525C74.3796 60.5606 75.1387 60.8538 75.7846 61.1591C79.1077 62.7294 84 65.2989 84 73.3884C84 77.4402 80.6016 83.9999 72.0462 83.9999C60.5538 83.9999 57.5077 77.1 57 75.8628Z" fill="#3E3E3E"/>
<path d="M27 76.6755L33.446 72.5852C33.9511 74.1072 35.9138 76.9133 38.7616 76.9133C41.6094 76.9133 43.067 73.9883 43.067 72.5852V44.9999H50.9946V72.5852C51.1229 76.3901 49.0127 83.9999 39.6996 83.9999C31.137 83.9999 27.5773 78.9109 27 76.6755Z" fill="#3E3E3E"/>
</svg>
