<svg width="32" height="31" viewBox="0 0 32 31" fill="none" xmlns="http://www.w3.org/2000/svg">
<path fill-rule="evenodd" clip-rule="evenodd" d="M6.91718 3.30867C6.91718 5.11243 5.54377 6.57218 3.39598 6.57218C1.33187 6.57218 -0.0415448 5.11243 0.000959408 3.30867C-0.0415448 1.41724 1.33184 0 3.43712 0C5.54373 0 6.87601 1.41724 6.91718 3.30867ZM0.173639 30.1606V9.15031H6.70332V30.1593H0.173639V30.1606Z" fill="black"/>
<path fill-rule="evenodd" clip-rule="evenodd" d="M11.9371 15.8555C11.9371 13.2349 11.8507 11.0008 11.7644 9.15316H17.436L17.7375 12.0315H17.8664C18.7258 10.6993 20.8736 8.68164 24.3536 8.68164C28.6492 8.68164 31.8715 11.5175 31.8715 17.7018V30.1634H25.3418V18.52C25.3418 15.8117 24.3974 13.9654 22.0345 13.9654C20.2294 13.9654 19.1561 15.2113 18.7271 16.4134C18.5544 16.8437 18.4694 17.4441 18.4694 18.0471V30.1634H11.9397V15.8555H11.9371Z" fill="black"/>
</svg>
