<svg width="1430" height="1010" viewBox="0 0 1430 1010" fill="none" xmlns="http://www.w3.org/2000/svg">
<g clip-path="url(#clip0)">
<rect width="1430" height="1010" fill="white"/>
<path d="M106.606 -1.82031C114.543 -0.380738 122.479 0.878801 130.416 2.13843C216.477 14.7347 310.971 13.2952 411.665 -1.82031H106.606Z" fill="#EE7774"/>
<path d="M14.9434 -1.99988C70.4987 28.951 135.872 50.1841 211.021 61.1609C300.802 74.297 400.008 72.3175 505.911 55.2225C581.059 43.1661 656.773 23.7325 731.426 -1.99988H14.9434Z" fill="#072141"/>
<path d="M701.51 -1.99988C654.387 11.6761 607.349 22.4722 560.722 30.03C409.928 54.3228 279.463 42.8069 185.962 -1.99988L6.90381 -1.82049C13.8482 2.49823 20.7927 6.9969 27.2411 11.6755L50.5545 28.9506C114.046 75.5568 195.147 106.328 291.377 120.364C381.159 133.5 480.365 131.52 586.267 114.425C711.019 94.2712 837.752 54.3234 958.287 -1.99988H701.51Z" fill="#07203E"/>
<path d="M944.899 -1.82007C845.445 41.727 742.27 72.858 641.08 89.2332C460.773 118.385 309.732 96.4308 215.734 27.3312L192.421 10.0566C186.716 5.91781 181.012 1.95907 175.06 -1.99976H-4.99951V17.2545C38.4031 29.6708 76.3495 47.4854 107.847 70.6986L131.161 87.9736C194.653 134.58 275.754 165.35 371.984 179.386C461.765 192.522 560.971 190.543 666.874 173.448C831.556 146.816 999.958 85.8143 1152.98 -1.99976H944.899V-1.82007Z" fill="#061E3C"/>
<path d="M1144.55 -2C1009.88 73.0378 863.798 125.402 721.685 148.435C541.378 177.586 390.337 155.633 296.339 86.5334L273.026 69.2583C231.359 38.6674 181.756 14.7345 125.456 -1.82062H-4.99951V60.6208C72.6293 70.158 138.601 93.5512 188.452 130.08L211.766 147.355C275.258 193.962 356.359 224.732 452.589 238.768C542.37 251.904 641.576 249.925 747.479 232.83C947.131 200.62 1151.91 117.485 1328.25 -2H1144.55Z" fill="#061D39"/>
<path d="M1321.27 -2C1161.79 104.888 979.373 179.025 802.29 207.457C621.983 236.608 470.942 214.655 376.944 145.555L353.631 128.28C290.139 81.6741 209.038 50.9031 112.808 36.8672C75.1094 31.2889 35.923 28.5898 -4.99951 28.4098V114.784C108.095 115.324 202.837 140.517 268.809 189.102L292.123 206.377C355.615 252.983 436.716 283.754 532.945 297.79C622.727 310.926 721.933 308.947 827.836 291.852C1036.17 258.202 1250.66 169.197 1431.95 41.0752V-2H1321.27Z" fill="#061B36"/>
<path d="M883.019 266.586C702.687 295.76 551.624 273.79 457.613 204.638L434.297 187.349C370.796 140.708 289.683 109.914 193.44 95.867C131.428 86.8628 65.1982 85.0618 -5 90.2843V177.265C143.83 163.939 268.103 188.25 349.464 248.038L372.78 265.326C436.281 311.968 517.393 342.762 613.637 356.809C703.431 369.955 802.651 367.974 908.568 350.866C1086.92 322.052 1269.23 252.9 1431.95 153.314V36.6191C1265.76 154.574 1071.04 236.152 883.019 266.586Z" fill="#061A33"/>
<path d="M963.301 325.863C783.03 355.014 632.02 333.061 538.041 263.961L514.732 246.687C451.253 200.08 370.169 169.309 273.958 155.273C188.658 142.857 94.6819 144.158 -5 158.913V247.044C-1.77646 246.504 1.69298 246.146 4.91652 245.607C185.187 216.455 336.198 238.409 430.176 307.509L453.485 324.783C516.964 371.389 598.048 402.16 694.259 416.196C784.022 429.332 883.208 427.353 989.089 410.258C1138.36 386.145 1290.86 333.965 1431.95 258.927V149.011C1284.91 238.444 1121.5 300.311 963.301 325.863Z" fill="#051931"/>
<path d="M1044.1 384.886C863.795 414.037 712.754 392.083 618.756 322.984L595.443 305.709C531.951 259.103 450.85 228.332 354.62 214.296C264.838 201.16 165.632 203.14 59.7298 220.234C38.4005 223.653 16.5773 227.692 -5 232.191V322.797C25.2578 315.419 55.5136 309.308 85.5234 304.449C265.83 275.298 416.872 297.252 510.869 366.351L534.183 383.626C597.675 430.232 678.776 461.003 775.005 475.039C864.787 488.175 963.993 486.195 1069.9 469.101C1191.17 449.486 1314.44 411.158 1432 357.354V253.345C1307.25 318.485 1174.06 364.012 1044.1 384.886Z" fill="#05172E"/>
<path d="M1124.46 444.088C944.154 473.239 793.113 451.286 699.115 382.187L675.802 364.911C612.31 318.305 531.209 287.534 434.979 273.498C345.197 260.362 245.991 262.342 140.089 279.437C91.9739 287.174 43.363 297.971 -5 311.467V404.68C51.7955 386.685 109.087 372.829 165.882 363.652C346.189 334.501 497.231 356.454 591.228 425.553L614.542 442.828C678.034 489.435 759.135 520.206 855.365 534.241C945.146 547.378 1044.35 545.398 1150.25 528.303C1244.25 513.188 1339.44 487.022 1431.95 451.032V351.514C1331.51 395.961 1226.89 427.533 1124.46 444.088Z" fill="#05162B"/>
<path d="M1205.06 503.291C1024.76 532.442 873.715 510.489 779.718 441.389L756.404 424.114C692.912 377.508 611.811 346.737 515.582 332.701C425.8 319.565 326.594 321.544 220.692 338.639C145.543 350.696 69.6526 370.027 -5 395.579V492.127C78.0851 459.737 163.152 436.351 246.733 422.855C427.04 393.703 578.081 415.657 672.079 484.756L695.393 502.031C758.884 548.637 839.985 579.408 936.215 593.444C1026 606.58 1125.2 604.601 1231.11 587.506C1298.07 576.709 1365.28 560.334 1432 538.56V443.008C1356.85 470.72 1280.46 491.054 1205.06 503.291Z" fill="#041528"/>
<path d="M1285.67 562.493C1105.36 591.644 954.32 569.69 860.323 500.591L837.009 483.316C773.517 436.71 692.416 405.939 596.187 391.903C506.405 378.767 407.199 380.747 301.297 397.842C199.114 414.397 95.4461 443.988 -5 485.195V586.199C103.135 535.814 216.475 500.051 327.09 482.236C507.397 453.085 658.438 475.039 752.436 544.138L775.749 561.413C839.241 608.019 920.342 638.79 1016.57 652.826C1106.35 665.962 1205.56 663.983 1311.46 646.888C1351.39 640.41 1391.82 631.952 1432 621.515V529.203C1383.14 543.418 1334.03 554.575 1285.67 562.493Z" fill="#041326"/>
<path d="M1366.27 621.516C1185.97 650.667 1034.93 628.713 940.928 559.614L917.614 542.339C854.122 495.733 773.021 464.962 676.791 450.926C587.01 437.79 487.804 439.769 381.901 456.864C252.19 477.738 120 520.336 -5 580.258V685.718C126.696 613.739 269.303 563.573 407.695 541.259C588.002 512.108 739.043 534.061 833.041 603.161L856.354 620.436C919.846 667.042 1000.95 697.813 1097.18 711.849C1186.96 724.985 1286.16 723.005 1392.07 705.91C1405.46 703.751 1418.6 701.412 1432 698.893V609.099C1409.92 613.778 1388.1 618.097 1366.27 621.516Z" fill="#041326"/>
<path d="M1021.43 618.973L998.114 601.743C934.613 555.259 853.501 524.568 757.258 510.569C667.464 497.467 568.244 499.441 462.326 516.492C304.318 541.977 142.838 599.051 -5 680.893V792.168C148.295 694.892 320.69 627.588 488.123 600.666C668.456 571.591 819.518 593.487 913.529 662.406L936.846 679.636C1000.35 726.12 1081.46 756.811 1177.7 770.81C1255.84 782.117 1341.42 782.117 1431.95 770.631V683.046C1258.07 708.532 1112.71 685.918 1021.43 618.973Z" fill="#041223"/>
<path d="M1101.89 678.019L1078.58 660.744C1015.09 614.138 933.985 583.367 837.755 569.331C747.974 556.195 648.768 558.174 542.865 575.269C355.366 605.5 163.65 680.358 -5 788.146V907.271C1.20038 902.772 7.40076 898.094 13.6011 893.595C181.259 773.391 378.183 690.435 568.411 659.664C748.718 630.513 899.759 652.466 993.757 721.566L1017.07 738.841C1080.56 785.447 1161.66 816.218 1257.89 830.254C1312.46 838.172 1370.94 840.283 1431.95 837.224V751.073C1294.06 759.531 1178.78 734.342 1101.89 678.019Z" fill="#031020"/>
<path d="M94.2061 952.618C261.864 832.413 458.788 749.458 649.016 718.687C829.323 689.536 980.364 711.489 1074.36 780.588L1097.68 797.863C1161.17 844.47 1242.27 875.24 1338.5 889.276C1368.51 893.595 1399.96 896.548 1431.95 897.628V810.982C1329.77 807.204 1243.76 782.208 1182.5 737.221L1159.18 719.946C1095.69 673.34 1014.59 642.569 918.36 628.533C828.579 615.397 729.373 617.377 623.47 634.472C411.665 668.662 193.908 759.894 10.625 891.256C5.41664 895.034 0.208318 898.813 -5 902.592V1012H17.9354C41.9929 991.846 67.4204 971.872 94.2061 952.618Z" fill="#030F1E"/>
<path d="M729.621 777.889C909.928 748.738 1060.97 770.691 1154.97 839.791L1178.28 857.066C1241.77 903.672 1322.87 934.443 1419.1 948.479C1423.32 949.019 1427.74 949.571 1431.95 950.11V861.98C1364.99 850.823 1307.5 828.814 1262.85 796.244L1239.54 778.969C1176.05 732.363 1094.95 701.592 998.717 687.556C908.936 674.42 809.73 676.399 703.827 693.494C492.022 727.684 274.265 818.917 90.9816 950.278C63.2039 970.252 36.5031 991.126 11.4536 1012H174.993C342.651 891.976 539.393 808.66 729.621 777.889Z" fill="#030E1B"/>
<path d="M810.226 837.091C990.533 807.94 1141.57 829.894 1235.57 898.993L1258.89 916.268C1306.75 951.537 1364.79 977.63 1431.75 994.365V901.153C1398.52 889.456 1369 874.34 1343.46 855.626L1320.14 838.351C1256.65 791.745 1175.55 760.974 1079.32 746.938C989.541 733.802 890.335 735.782 784.432 752.877C572.627 787.067 354.87 878.299 171.587 1009.66C170.595 1010.38 169.503 1011.28 168.511 1012H345.165C491.246 923.826 652.984 862.464 810.226 837.091Z" fill="#030C18"/>
<path d="M1316.18 958.196L1339.49 975.471C1357.84 988.967 1377.68 1001.02 1399.01 1012H1431.75L1431.95 920.403C1429.47 918.604 1426.54 916.628 1424.06 914.829L1400.75 897.554C1337.26 850.947 1256.16 820.177 1159.93 806.141C1070.15 793.005 970.94 794.984 865.037 812.079C685.226 841.05 501.447 911.05 338.005 1012H534.433C650.008 955.497 771.784 915.728 891.079 896.474C1071.14 867.143 1222.18 889.096 1316.18 958.196Z" fill="#030C18"/>
<path d="M1432 925.445C1377.68 896.114 1313.45 875.78 1240.53 865.163C1150.75 852.027 1051.54 854.007 945.642 871.101C803.529 893.955 659.179 942.721 524.01 1012H754.86C826.785 986.268 899.511 967.013 971.436 955.496C1146.78 927.245 1294.6 947.219 1388.85 1011.82H1432V925.445Z" fill="#020B15"/>
<path d="M1315.43 1011.82H1431.75V950.098C1397.53 938.761 1360.57 930.124 1320.89 924.366C1231.11 911.229 1131.9 913.209 1026 930.304C928.777 945.959 830.4 973.851 734.418 1012H1069.97C1160.99 998.864 1244 998.864 1315.43 1011.82Z" fill="#020913"/>
<path d="M1432 988.787C1422.08 986.988 1411.91 985.188 1401.74 983.749C1311.96 970.613 1212.75 972.592 1106.85 989.687C1070.64 995.445 1034.43 1003 998.222 1012H1432V988.787Z" fill="#020810"/>
</g>
<defs>
<clipPath id="clip0">
<rect width="1430" height="1010" fill="white"/>
</clipPath>
</defs>
</svg>
