<svg width="96" height="96" viewBox="0 0 96 96" fill="none" xmlns="http://www.w3.org/2000/svg">
<path d="M51.5175 6.89616C49.388 5.69859 46.612 5.70397 44.4807 6.89616C33.8066 12.7868 23.1325 18.6792 12.4565 24.5672C10.3791 25.66 8.97792 27.8909 9.00026 30.2065V65.7983C8.98526 68.1591 10.4587 70.4115 12.5896 71.4894C15.6561 73.1208 18.6354 74.9179 21.7573 76.4407C25.3635 78.2127 29.8753 78.6046 33.5256 76.7566C36.4886 75.2249 37.8047 71.8185 37.801 68.688C37.8249 56.9417 37.8047 45.1952 37.8102 33.4489C37.8806 32.9269 37.4887 32.3689 36.9193 32.3815C35.5552 32.3599 34.1893 32.3689 32.8251 32.3779C32.3096 32.3291 31.8067 32.7572 31.8455 33.2754C31.8272 44.946 31.8492 56.6201 31.8345 68.2925C31.8642 69.9071 30.7735 71.4589 29.2174 72.0043C25.6236 73.2639 15.3659 66.6037 15.3659 66.6037C14.9895 66.4293 14.7505 66.0211 14.7873 65.6155C14.7873 53.8729 14.7892 42.1299 14.7873 30.389C14.7356 29.9157 15.0274 29.4894 15.4621 29.2961C26.101 23.4402 36.7344 17.5696 47.3734 11.7101C47.7428 11.4635 48.258 11.4642 48.6267 11.7119C59.2656 17.5696 69.9009 23.4348 80.5417 29.2911C80.9779 29.484 81.2571 29.9175 81.2127 30.389C81.2109 42.1299 81.2164 53.8729 81.209 65.6138C81.2405 66.0293 81.0259 66.432 80.6378 66.6145C70.0982 72.4386 59.4386 78.0749 48.9944 84.0683C48.5387 84.3297 48.0226 84.6259 47.512 84.3378C44.7654 82.8187 42.0522 81.2402 39.3148 79.7064C39.0172 79.5206 38.6382 79.441 38.3278 79.6487C37.1003 80.2955 35.9461 80.8194 34.5367 81.3773C32.5571 82.1609 32.8735 82.4814 34.6586 83.5214C37.8601 85.3332 41.0668 87.1378 44.268 88.9513C46.3754 90.2665 49.2071 90.3601 51.3824 89.1446C62.0584 83.2614 72.7307 77.3711 83.4086 71.4879C85.534 70.404 87.0148 68.1606 86.9998 65.798V30.2065C87.0203 27.9379 85.6727 25.7468 83.6581 24.6378C72.9469 18.7184 62.2305 12.8119 51.5175 6.89616Z" fill="#8CC84B"/>
<path d="M67.6256 33.6187C63.4355 31.3771 58.4508 31.2577 53.7945 31.5506C50.4307 31.883 46.8928 32.8113 44.4419 35.2226C41.9282 37.6467 41.3812 41.561 42.5751 44.7256C43.4307 46.9616 45.5844 48.4158 47.8115 49.185C50.6805 50.1977 53.6936 50.5109 56.7078 50.8241C59.4571 51.1099 62.2071 51.3957 64.8496 52.2125C65.929 52.5703 67.186 53.1175 67.5166 54.2918C67.8218 55.6826 67.4872 57.2993 66.3579 58.2656C62.771 61.1046 52.7937 60.6696 49.2497 58.4352C47.817 57.4833 47.1995 55.7981 46.9485 54.1924C46.9206 53.6919 46.5178 53.233 45.9744 53.271C44.6139 53.2548 43.2535 53.2584 41.893 53.2692C41.4182 53.2294 40.9247 53.5672 40.8987 54.0515C40.6192 61.4066 47.3741 64.613 53.7116 65.319C57.3325 65.664 61.0327 65.6442 64.5982 64.8673C67.2784 64.257 69.9656 63.1333 71.8107 61.0688C74.0859 58.56 74.5331 54.8246 73.5128 51.6995C72.7328 49.3678 70.5035 47.8719 68.2247 47.1025C65.1258 46.0399 61.4531 45.4688 58.6464 45.2014C54.5666 44.8128 49.7186 44.9715 48.564 42.2907C48.1035 40.887 48.4954 39.144 49.7854 38.2806C53.1985 35.9655 60.1448 36.2729 63.6795 38.0024C65.3026 38.8153 66.2431 40.4843 66.6312 42.1695C66.7032 42.6646 67.0363 43.181 67.6093 43.1595C68.9603 43.1864 70.3116 43.1666 71.6625 43.1684C72.1266 43.201 72.6348 42.939 72.7254 42.4639C72.6682 38.9418 70.8696 35.3365 67.6256 33.6187Z" fill="#8CC84B"/>
</svg>
