<svg width="161" height="96" viewBox="0 0 161 96" fill="none" xmlns="http://www.w3.org/2000/svg">
<rect x="49.5361" y="54.144" width="12.288" height="61.44" transform="rotate(-90 49.5361 54.144)" fill="white"/>
<path d="M148.224 41.856H154.176C157.675 41.856 160.512 44.6927 160.512 48.192C160.512 51.6912 157.675 54.528 154.176 54.528H148.224V41.856Z" fill="white"/>
<path d="M12.2881 54.144L6.33609 54.144C2.83681 54.144 8.55827e-05 51.3073 8.52768e-05 47.808C8.49709e-05 44.3088 2.83681 41.472 6.33608 41.472L12.2881 41.472L12.2881 54.144Z" fill="white"/>
<rect x="33.0239" width="12.288" height="96" rx="6.144" fill="white"/>
<rect x="16.5117" y="11.52" width="12.288" height="76.8" rx="6.144" fill="white"/>
<rect x="131.712" y="11.52" width="12.288" height="76.8" rx="6.144" fill="white"/>
<rect x="115.2" width="12.288" height="96" rx="6.144" fill="white"/>
</svg>
