<svg width="96" height="96" viewBox="0 0 96 96" fill="none" xmlns="http://www.w3.org/2000/svg">
<path fill-rule="evenodd" clip-rule="evenodd" d="M38.6232 4C31.718 4 26.1203 9.41999 26.1203 16.1059V24.4869H47.7598V26.8149H16.5028C9.5977 26.8149 4 32.2349 4 38.9208L4 57.0797C4 63.7656 9.5977 69.1856 16.5028 69.1856H23.716V58.9421C23.716 52.2562 29.3137 46.8362 36.2188 46.8362H59.3009C65.1437 46.8362 69.8802 42.2501 69.8802 36.5928V16.1059C69.8802 9.41999 64.2825 4 57.3774 4H38.6232ZM35.7379 18.8996C38.1281 18.8996 40.0658 17.0234 40.0658 14.7091C40.0658 12.3947 38.1281 10.5186 35.7379 10.5186C33.3477 10.5186 31.41 12.3947 31.41 14.7091C31.41 17.0234 33.3477 18.8996 35.7379 18.8996Z" fill="url(#paint0_linear)"/>
<path fill-rule="evenodd" clip-rule="evenodd" d="M57.3766 92.0005C64.2817 92.0005 69.8794 86.5805 69.8794 79.8946V71.5136L48.24 71.5136L48.24 69.1856L79.497 69.1856C86.4021 69.1856 91.9998 63.7656 91.9998 57.0797V38.9208C91.9998 32.2349 86.4021 26.8149 79.497 26.8149L72.2838 26.8149V37.0584C72.2838 43.7443 66.6861 49.1643 59.781 49.1643L36.6989 49.1643C30.8561 49.1643 26.1196 53.7504 26.1196 59.4077L26.1196 79.8946C26.1196 86.5805 31.7173 92.0005 38.6224 92.0005H57.3766ZM60.2619 77.101C57.8717 77.101 55.934 78.9771 55.934 81.2915C55.934 83.6058 57.8717 85.482 60.2619 85.482C62.6521 85.482 64.5898 83.6058 64.5898 81.2915C64.5898 78.9771 62.6521 77.101 60.2619 77.101Z" fill="url(#paint1_linear)"/>
<defs>
<linearGradient id="paint0_linear" x1="36.9401" y1="4" x2="36.9401" y2="69.1856" gradientUnits="userSpaceOnUse">
<stop stop-color="#327EBD"/>
<stop offset="1" stop-color="#1565A7"/>
</linearGradient>
<linearGradient id="paint1_linear" x1="59.0597" y1="26.8149" x2="59.0597" y2="92.0005" gradientUnits="userSpaceOnUse">
<stop stop-color="#FFDA4B"/>
<stop offset="1" stop-color="#F9C600"/>
</linearGradient>
</defs>
</svg>
