<svg width="96" height="96" viewBox="0 0 96 96" fill="none" xmlns="http://www.w3.org/2000/svg">
<path d="M56.0367 47.9277C56.0367 43.6244 52.4387 40.1356 48 40.1356C43.5617 40.1356 39.9634 43.6244 39.9634 47.9277C39.9634 52.2314 43.5617 55.7202 48 55.7202C52.4387 55.7202 56.0367 52.2314 56.0367 47.9277Z" fill="#53C1DE"/>
<path fill-rule="evenodd" clip-rule="evenodd" d="M74.1011 33.4611C75.7984 26.7744 77.9317 14.3744 70.4112 10.1705C62.926 5.98484 53.1853 14.0053 48.0418 18.8196C42.9133 14.0533 32.899 6.0671 25.3849 10.2844C17.9025 14.4841 20.2099 26.6784 21.9447 33.407C14.9649 35.3292 3 39.4692 3 47.9277C3 56.3622 14.9525 60.8664 21.8909 62.7867C20.1497 69.5526 17.9579 81.5728 25.4498 85.763C32.9918 89.9795 42.9751 82.1835 48.1661 77.3166C53.3426 82.1591 62.9898 90.0062 70.4765 85.8043C77.987 81.5889 76.0307 69.3552 74.2959 62.5874C81.0218 60.663 93 56.257 93 47.9277C93 39.5504 80.971 35.3768 74.1011 33.4611ZM73.2487 59.0009C72.1096 55.5047 70.5721 51.7869 68.6913 47.9463C70.4865 44.1964 71.9642 40.5264 73.0715 37.0527C78.1076 38.4683 89.1555 41.7039 89.1555 47.9277C89.1555 54.2099 78.5539 57.4761 73.2487 59.0009ZM68.5499 82.5781C62.9641 85.713 54.6664 78.2089 50.8435 74.6427C53.3795 71.9533 55.914 68.8267 58.3875 65.3548C62.7386 64.9806 66.8491 64.3685 70.5769 63.5332C71.7979 68.3202 74.1607 79.4288 68.5499 82.5781ZM27.3709 82.5333C21.7843 79.4101 24.3377 68.6839 25.6187 63.7C29.305 64.4906 33.3857 65.0594 37.7472 65.4023C40.237 68.7996 42.8447 71.9224 45.4727 74.657C42.2258 77.7023 32.9835 85.671 27.3709 82.5333ZM6.84447 47.9277C6.84447 41.6219 17.8262 38.41 22.9771 36.9978C24.1035 40.5496 25.5809 44.2632 27.3637 48.0185C25.5578 51.8298 24.0593 55.6024 22.9226 59.1959C18.0111 57.8329 6.84447 54.2374 6.84447 47.9277ZM27.3111 13.5106C32.9205 10.3625 41.6241 18.0295 45.3477 21.4804C42.7332 24.2026 40.1494 27.3018 37.681 30.6794C33.4482 31.0598 29.3962 31.6707 25.6713 32.4891C24.2738 27.0621 21.7077 16.6554 27.3111 13.5106ZM61.1378 34.7313C64.0096 35.0827 66.7607 35.55 69.3441 36.1219C68.5686 38.5321 67.6019 41.0524 66.4636 43.636C64.8132 40.5998 63.0417 37.6248 61.1378 34.7313ZM48.043 24.1443C49.8163 26.0069 51.5923 28.0869 53.3393 30.3434C49.7956 30.181 46.2459 30.1803 42.7021 30.3411C44.4507 28.1054 46.2419 26.0285 48.043 24.1443ZM29.5695 43.6333C28.4499 41.0586 27.4919 38.5271 26.7097 36.0826C29.2776 35.5253 32.0159 35.07 34.869 34.7243C32.9599 37.6115 31.1913 40.5854 29.5695 43.6333ZM34.951 61.3972C32.0036 61.0782 29.2238 60.646 26.6567 60.1042C27.4513 57.6164 28.4304 55.0305 29.5739 52.4005C31.2181 55.4799 33.0135 58.4827 34.951 61.3972ZM48.1494 71.9745C46.3271 70.0679 44.5096 67.9593 42.7344 65.6912C46.2985 65.827 49.8694 65.8273 53.4329 65.6731C51.6804 67.9825 49.9107 70.0941 48.1494 71.9745ZM66.5002 52.2665C67.7031 54.9251 68.7172 57.4971 69.5226 59.9428C66.9128 60.5201 64.0956 60.9851 61.127 61.3304C63.0451 58.3822 64.8446 55.3608 66.5002 52.2665ZM56.2418 61.7822C50.7904 62.1599 45.3047 62.1559 39.8514 61.8131C36.7526 57.4244 33.9943 52.8089 31.6132 48.0173C33.9827 43.2356 36.7211 38.6293 39.8052 34.2474C45.2626 33.8474 50.7535 33.8464 56.2107 34.2497C59.2682 38.6314 62.0025 43.2258 64.427 47.9644C62.0312 52.7437 59.2786 57.3594 56.2418 61.7822ZM68.4909 13.3998C74.1018 16.5376 71.6043 27.6818 70.3785 32.5277C66.6448 31.6924 62.59 31.0706 58.3448 30.6844C55.8717 27.2701 53.3094 24.1656 50.7372 21.4785C54.5086 17.9532 62.9343 10.2927 68.4909 13.3998Z" fill="#53C1DE"/>
</svg>
