<svg width="96" height="96" viewBox="0 0 96 96" fill="none" xmlns="http://www.w3.org/2000/svg">
<path fill-rule="evenodd" clip-rule="evenodd" d="M39.5661 34.918C39.5216 34.918 39.4355 34.918 39.391 34.918C38.6521 34.8279 38.0439 34.1508 38.0439 33.3837C37.9994 32.6614 37.6076 15.7822 47.1294 11.9461C49.521 10.9983 51.7406 11.1787 53.6099 12.578C55.9125 14.2479 57.5652 17.5875 58.5651 22.4617C59.2595 25.8917 59.3901 28.8703 59.3901 29.0058C59.4346 29.7278 58.8708 30.2696 58.129 30.1341C57.3902 30.0437 56.782 29.3669 56.782 28.6447C56.6514 25.5758 55.6514 17.1363 52.3489 14.6991C51.3044 13.9319 49.9987 13.8416 48.435 14.4735C40.2603 17.7679 40.652 33.6093 40.652 33.7897C40.652 34.4216 40.2189 34.918 39.5661 34.918Z" fill="#595961"/>
<path opacity="0.46" fill-rule="evenodd" clip-rule="evenodd" d="M53.1283 12.6681C51.3895 11.4043 49.3479 11.2239 47.1285 12.0814C43.2592 13.6609 40.5205 17.8131 39.1734 24.1316C38.1735 28.7799 38.3039 32.9774 38.3039 33.1578C38.3039 33.3834 38.39 33.6093 38.5651 33.7897C38.7372 33.9701 38.9123 34.1057 39.1289 34.1057C39.1734 34.1057 39.2179 34.1057 39.2594 34.1057C39.6511 34.1057 39.9567 33.7897 39.9567 33.3834C39.9567 33.203 39.5652 17.0909 47.9565 13.706C49.6508 13.0293 51.1284 13.1193 52.3479 14.022C55.867 16.5945 56.9114 25.3051 57.042 28.4191C57.042 28.8703 57.4337 29.3218 57.9115 29.3667C58.3477 29.4118 58.6947 29.0959 58.6947 28.6447C58.6502 28.1032 58.1726 16.3689 53.1283 12.6681Z" fill="#B2B2C2"/>
<path opacity="0.46" fill-rule="evenodd" clip-rule="evenodd" d="M39.1745 33.564C39.13 33.564 39.13 33.564 39.0884 33.564C38.8273 33.5189 38.6077 33.2481 38.5661 32.9773C38.5661 32.7966 38.4357 28.6898 39.4356 24.0412C40.7382 17.8582 43.4798 13.7511 47.2601 12.2166C49.3906 11.3591 51.3046 11.5398 52.9573 12.7132C57.8265 16.2785 58.3043 27.8323 58.3043 28.3287C58.3043 28.5994 58.0876 28.7799 57.8265 28.735C57.5654 28.6898 57.3487 28.4642 57.3042 28.1483C57.3042 28.0127 56.8265 16.6848 52.435 13.4352C51.1294 12.4876 49.5212 12.3521 47.6964 13.0741C39.1745 16.6396 39.5662 32.9773 39.5662 33.1577C39.6077 33.3833 39.4356 33.564 39.1745 33.564Z" fill="#B2B2C2"/>
<path opacity="0.62" fill-rule="evenodd" clip-rule="evenodd" d="M42.6967 20.6566C43.0439 19.9799 43.391 19.3028 43.6966 18.5808C43.566 18.8064 42.6966 21.1533 40.0439 20.7922C39.9994 20.7922 41.6077 21.2885 42.6967 20.6566Z" fill="#595961"/>
<path opacity="0.62" fill-rule="evenodd" clip-rule="evenodd" d="M41.7372 23.5446C41.9983 22.8224 42.2594 22.0552 42.4344 21.3333C42.3484 21.604 41.9122 24.041 39.1289 24.041C39.1289 24.041 40.7372 24.357 41.7372 23.5446Z" fill="#595961"/>
<path opacity="0.62" fill-rule="evenodd" clip-rule="evenodd" d="M56.9988 17.7231C56.6516 16.9105 56.2598 16.1434 55.8681 15.3311C55.9987 15.6018 57.3043 18.1743 55.8267 20.0246C55.8267 20.0246 56.9572 19.1222 56.9988 17.7231Z" fill="#595961"/>
<path opacity="0.62" fill-rule="evenodd" clip-rule="evenodd" d="M54.6096 13.6613C53.9123 13.0745 53.2178 12.533 52.5205 12.0366C52.7816 12.2622 55.0871 13.932 54.9565 16.4597C54.912 16.4597 55.3039 14.9703 54.6096 13.6613Z" fill="#595961"/>
<path opacity="0.62" fill-rule="evenodd" clip-rule="evenodd" d="M43.9564 18.1738C44.4787 17.6322 44.9118 17.0455 45.3895 16.4136C45.2174 16.594 43.7815 18.4445 41.2178 17.7674C41.2178 17.7674 42.6954 18.5801 43.9564 18.1738Z" fill="#595961"/>
<path opacity="0.62" fill-rule="evenodd" clip-rule="evenodd" d="M45.5648 16.098C46.1731 15.6468 46.7369 15.1953 47.3036 14.699C47.087 14.8345 45.3038 16.3236 42.8262 15.2405C42.8262 15.2405 44.2593 16.2784 45.5648 16.098Z" fill="#595961"/>
<path opacity="0.62" fill-rule="evenodd" clip-rule="evenodd" d="M47.9119 14.6081C48.6507 14.3825 49.3481 14.1117 50.0424 13.8409C49.7813 13.931 47.5646 14.7433 45.3896 13.0283C45.4342 13.0283 46.5648 14.3825 47.9119 14.6081Z" fill="#595961"/>
<path opacity="0.62" fill-rule="evenodd" clip-rule="evenodd" d="M50.0436 13.7966C50.6519 13.8869 51.2602 13.9321 51.8685 13.9773C51.6519 13.9321 49.7379 13.7966 48.6519 11.9912C48.6519 11.9912 49.0882 13.2098 50.0436 13.7966Z" fill="#595961"/>
<path opacity="0.62" fill-rule="evenodd" clip-rule="evenodd" d="M52.5653 14.7885C52.9985 15.2851 53.4791 15.7815 53.9984 16.2327C53.8263 16.0523 52.3487 14.5629 52.6959 12.7126C52.6514 12.7126 52.1736 13.7506 52.5653 14.7885Z" fill="#595961"/>
<path opacity="0.74" fill-rule="evenodd" clip-rule="evenodd" d="M57.8265 28.1031C57.8265 27.6064 57.3488 16.1881 52.6101 12.7133C51.6962 12.0362 50.6962 11.7202 49.6518 11.7202C48.8684 11.7202 48.0435 11.9006 47.1741 12.2618C43.3908 13.7512 40.7382 17.7679 39.4356 23.9057C38.4357 28.5091 38.5661 32.6162 38.5661 32.7966C38.5661 32.9322 38.6967 33.0674 38.8273 33.0674H38.8688C38.9993 33.0674 39.0884 32.9773 39.0884 32.8418C39.0884 32.6614 38.6522 16.1881 47.3907 12.6681C49.3045 11.9006 50.9573 12.0362 52.349 13.0741C56.8681 16.3689 57.3487 27.8775 57.3487 28.0127C57.3487 28.1483 57.4793 28.2835 57.6099 28.2835C57.6099 28.2835 57.6098 28.2835 57.6514 28.2835C57.7404 28.3287 57.8265 28.2383 57.8265 28.1031Z" fill="url(#paint0_linear)"/>
<path fill-rule="evenodd" clip-rule="evenodd" d="M58.5645 22.4621C57.5646 17.5878 55.9119 14.2931 53.6093 12.5781C52.3482 11.6757 50.9982 11.2694 49.5205 11.3597C50.6955 11.4498 51.7815 11.8561 52.7815 12.5781C55.087 14.2482 56.7398 17.5878 57.7398 22.4621C58.4341 25.8921 58.5645 28.8706 58.5645 29.0061C58.5645 29.5477 58.3035 29.954 57.8673 30.0892C57.9563 30.1344 58.0425 30.1344 58.087 30.1344C58.8258 30.2248 59.3895 29.7281 59.348 29.0061C59.3895 28.8706 59.2589 25.9373 58.5645 22.4621Z" fill="url(#paint1_linear)"/>
<path fill-rule="evenodd" clip-rule="evenodd" d="M47.6093 14.4736C39.4346 17.7681 39.8262 33.6094 39.8262 33.7898C39.8262 34.3314 39.5651 34.7377 39.1289 34.8729C39.2179 34.9181 39.2596 34.9181 39.3486 34.9181C39.3901 34.9181 39.4791 34.9181 39.5206 34.9181C40.1734 34.9181 40.6065 34.4217 40.6065 33.7898C40.6065 33.6094 40.218 17.8132 48.3897 14.5188C48.9565 14.2932 49.4786 14.1576 49.9563 14.1125C49.259 13.9772 48.4787 14.1125 47.6093 14.4736Z" fill="url(#paint2_linear)"/>
<path fill-rule="evenodd" clip-rule="evenodd" d="M59.9981 18.3995L23.1304 30.2238C23.1304 30.2238 21.5666 30.6753 21.175 31.1717C20.7833 31.6681 20.6972 33.0671 20.6972 33.0671L15 78.6502L57.7816 86.9545L61.0871 18.3543C60.6094 18.264 60.1287 18.3543 59.9981 18.3995Z" fill="url(#paint3_linear)"/>
<path fill-rule="evenodd" clip-rule="evenodd" d="M72.7391 24.2666C72.7391 24.2666 72.6945 23.9055 72.4779 23.7703C72.3028 23.6347 72.0862 23.6347 72.0862 23.6347L66.042 23.1835L61.6089 18.6253C61.4338 18.4897 61.2588 18.3997 61.0422 18.3545L57.7397 86.9546L80.9107 81.7644L72.7391 24.2666Z" fill="url(#paint4_linear)"/>
<path fill-rule="evenodd" clip-rule="evenodd" d="M44.7815 56.4904C44.1287 55.5878 43.3483 54.7754 42.5649 54.0532C41.7816 53.3312 40.9568 52.7445 40.1289 52.2029C39.5651 51.8418 39.0429 51.4807 38.6067 51.1195C38.1735 50.7587 37.8263 50.3976 37.5652 50.0816C37.3041 49.7205 37.0874 49.4045 36.9568 49.0437C36.8263 48.6826 36.7817 48.3214 36.7817 47.9603C36.7817 47.4639 36.9123 46.9676 37.0874 46.5613C37.2595 46.1552 37.5651 45.7941 37.8678 45.4782C38.2179 45.1622 38.6067 44.9366 39.0874 44.7562C39.5651 44.5755 40.1288 44.4854 40.737 44.4402C41.3898 44.3951 42.0427 44.4402 42.651 44.4854C43.2592 44.5303 43.826 44.6658 44.3898 44.8011C44.912 44.9366 45.4342 45.117 45.8674 45.2978C46.3036 45.4782 46.7368 45.6586 47.0424 45.8393L49.9118 36.9935C49.4786 36.7679 48.9564 36.542 48.3896 36.4068C47.7814 36.2261 47.1285 36.0908 46.3897 36.0005C45.6509 35.9104 44.8675 35.8652 44.0426 35.8652C43.2177 35.8652 42.3484 35.9104 41.4345 36.0457C39.4791 36.3164 37.7373 36.858 36.1736 37.6703C34.6959 38.4377 33.3902 39.4305 32.3042 40.6491C31.2598 41.8226 30.4348 43.1764 29.8265 44.711C29.2598 46.2004 28.9127 47.8703 28.8267 49.6753C28.7822 50.7587 28.8682 51.7515 29.1293 52.6541C29.3459 53.5568 29.696 54.4143 30.1737 55.2266C30.6069 56.039 31.1737 56.7612 31.7819 57.438C32.3902 58.1151 33.1291 58.747 33.8679 59.3337C34.4762 59.7849 34.9985 60.2361 35.4346 60.6424C35.8679 61.0487 36.218 61.4547 36.4762 61.9062C36.7373 62.3122 36.9123 62.7185 37.0429 63.1697C37.1734 63.5761 37.2179 64.0272 37.1734 64.4787C37.1734 64.9299 37.043 65.3811 36.8679 65.7422C36.6958 66.1034 36.4762 66.4645 36.129 66.7353C35.8263 67.0061 35.4347 67.1865 34.9985 67.2768C34.5653 67.3669 34.0431 67.4121 33.4764 67.322C32.8265 67.2317 32.1736 67.0512 31.5653 66.7802C30.9571 66.5546 30.3459 66.2386 29.7822 65.9227C29.2184 65.607 28.6962 65.2459 28.26 64.9299C27.7823 64.614 27.3905 64.2528 27.0879 63.9821L25.1294 70.7068C25.435 71.158 25.8683 71.5643 26.3461 71.9704C26.8268 72.3767 27.3906 72.7827 28.0434 73.189C28.6962 73.5501 29.3905 73.9109 30.1293 74.2269C30.8682 74.5429 31.696 74.8136 32.5208 75.0395H32.5654H32.6069H32.6514H32.696C34.4763 75.4455 36.1735 75.5359 37.7818 75.3103C39.4345 75.0844 40.9566 74.4977 42.2592 73.5953C43.6064 72.6474 44.6953 71.3836 45.5202 69.7138C46.3481 68.044 46.8258 66.013 46.9118 63.7113C46.9563 62.2671 46.7814 61.0035 46.3897 59.8301C45.998 58.4762 45.4343 57.438 44.7815 56.4904Z" fill="url(#paint5_linear)"/>
<path opacity="0.226763" fill-rule="evenodd" clip-rule="evenodd" d="M25.4125 71.0745C25.3116 70.9549 25.2165 70.8326 25.1305 70.7072L27.0889 63.9824C27.1156 64.0075 27.1453 64.0335 27.175 64.06C27.4658 64.3199 27.8278 64.6435 28.2611 64.9302C28.6972 65.2462 29.2195 65.6073 29.7832 65.9233C30.347 66.2389 30.9581 66.5549 31.5664 66.7808C32.1747 67.0516 32.8276 67.232 33.4774 67.3223C34.0442 67.4124 34.5664 67.3675 34.9996 67.2771C35.4358 67.1868 35.8274 67.0064 36.1301 66.7356C36.4772 66.4648 36.6969 66.1037 36.869 65.7426C37.0441 65.3814 37.1745 64.9302 37.1745 64.479C37.219 64.0276 37.1745 63.5764 37.0439 63.1701C36.9134 62.7189 36.7384 62.3126 36.4773 61.9065C36.231 61.4775 35.9045 61.0895 35.498 60.7033C35.7117 60.9445 35.8927 61.1923 36.0441 61.4551C36.3052 61.8614 36.4773 62.2674 36.6078 62.7189C36.7384 63.1249 36.7829 63.5764 36.7384 64.0276C36.7384 64.479 36.6079 64.9302 36.4358 65.2914C36.2607 65.6525 36.044 66.0133 35.6969 66.2841C35.3912 66.5549 34.9996 66.7356 34.5664 66.8257C34.1302 66.916 33.608 66.9612 33.0442 66.8708C32.3914 66.7808 31.7386 66.6001 31.1303 66.3293C30.522 66.1037 29.9137 65.7877 29.347 65.4718C28.7832 65.1558 28.2611 64.795 27.8279 64.479C27.3917 64.1923 27.0297 63.8687 26.7389 63.6089C26.7092 63.5823 26.6823 63.5563 26.6527 63.5312L24.6973 70.2557C24.8901 70.543 25.1365 70.812 25.4125 71.0745ZM31.8187 57.4794C31.6555 57.3178 31.4982 57.154 31.3469 56.9871C30.7386 56.31 30.1749 55.5881 29.7387 54.7758C29.261 53.9631 28.9138 53.1056 28.6972 52.2032C28.436 51.3006 28.3469 50.3075 28.3915 49.2244C28.4775 47.4191 28.8277 45.7493 29.3915 44.2599C29.9998 42.7256 30.8277 41.3717 31.8692 40.1982C32.9582 38.9796 34.2607 37.9866 35.7383 37.2194C37.305 36.4071 39.0439 35.8655 40.9993 35.5948C41.9132 35.4592 42.7827 35.4141 43.6076 35.4141C44.4354 35.4141 45.2187 35.4592 45.9576 35.5496C46.6964 35.6399 47.3492 35.7752 47.9575 35.9559C48.5213 36.0911 49.0435 36.3167 49.4797 36.5423L49.4114 36.7535C49.0969 36.6167 48.7527 36.4936 48.3907 36.4071C47.7824 36.2267 47.1296 36.0911 46.3908 36.0008C45.6519 35.9107 44.8685 35.8656 44.0437 35.8656C43.2188 35.8656 42.3495 35.9107 41.4356 36.046C39.4802 36.3167 37.7384 36.8583 36.1746 37.6709C34.6969 38.4381 33.3913 39.4308 32.3053 40.6494C31.2609 41.8229 30.4359 43.1767 29.8276 44.7113C29.2609 46.2007 28.9138 47.8706 28.8277 49.6756C28.7832 50.759 28.8692 51.7518 29.1304 52.6544C29.347 53.5571 29.6971 54.4146 30.1748 55.227C30.608 56.0393 31.1747 56.7615 31.783 57.4383C31.7949 57.4519 31.8068 57.4658 31.8187 57.4794ZM37.7234 50.2668C37.9608 50.5352 38.2576 50.8275 38.6078 51.1199C39.044 51.481 39.5662 51.8421 40.13 52.2032C40.9578 52.7448 41.7827 53.3315 42.566 54.0535C42.7945 54.2637 43.02 54.4814 43.2455 54.707C42.8835 54.3178 42.5066 53.9496 42.1297 53.6023C41.3494 52.88 40.5217 52.2933 39.6968 51.7518C39.13 51.3906 38.6078 51.0298 38.1746 50.6687C38.0114 50.534 37.8629 50.3994 37.7234 50.2668Z" fill="black"/>
<path opacity="0.41" fill-rule="evenodd" clip-rule="evenodd" d="M67.5192 74.1827L66.0415 23.1838L65.7804 22.913L66.4778 73.4604C66.4778 73.4604 60.3474 83.1185 59.4335 82.8477C58.0864 82.4417 62.0862 19.1219 62.0862 19.1219L61.6501 18.6707C61.478 18.5351 61.2584 18.4451 61.0863 18.3999L57.8253 86.0522L57.7808 87L58.9112 85.5106L67.5192 74.1827Z" fill="url(#paint6_linear)"/>
<path fill-rule="evenodd" clip-rule="evenodd" d="M50.8679 21.3336C50.3486 23.4546 49.6959 25.4404 49.2182 26.659C48.9126 27.3813 49.2598 28.0581 49.9126 28.1484C50.6099 28.2388 51.3902 27.7421 51.6513 27.0201C51.6959 26.8846 52.8678 23.9513 53.6096 20.4761V20.4309L50.8679 21.3336Z" fill="url(#paint7_linear)"/>
<path fill-rule="evenodd" clip-rule="evenodd" d="M31.2601 27.6515C30.6518 29.0054 30.0435 30.1788 29.6073 30.9912C29.2186 31.6682 29.4352 32.3902 30.0879 32.5706C30.7378 32.7965 31.6071 32.3902 31.9988 31.7131C32.0433 31.6231 33.3045 29.4117 34.435 26.6133L31.2601 27.6515Z" fill="url(#paint8_linear)"/>
<path opacity="0.32" fill-rule="evenodd" clip-rule="evenodd" d="M57.7808 86.9543L67.5192 74.1819L80.9994 81.7642L57.7808 86.9543Z" fill="url(#paint9_linear)"/>
<path opacity="0.19" fill-rule="evenodd" clip-rule="evenodd" d="M57.7808 86.9543L67.4331 74.1819L80.9994 81.7642L57.7808 86.9543Z" fill="url(#paint10_linear)"/>
<path opacity="0.19" fill-rule="evenodd" clip-rule="evenodd" d="M57.7808 86.9543L67.4331 74.1819L80.9994 81.7642L57.7808 86.9543Z" fill="url(#paint11_linear)"/>
<path opacity="0.6" fill-rule="evenodd" clip-rule="evenodd" d="M48.3036 51.2105C53.3479 58.2961 56.7393 65.9685 58.4336 73.4152L61.0864 18.3095C60.6087 18.2195 60.128 18.3095 59.9974 18.3547L23.1297 30.2245C23.1297 30.2245 22.7824 30.3145 22.3462 30.4953C31.6959 33.8349 41.0428 41.0109 48.3036 51.2105Z" fill="url(#paint12_linear)"/>
<path fill-rule="evenodd" clip-rule="evenodd" d="M72.5199 23.8155C72.7395 23.9962 72.7396 24.2669 72.7396 24.2669L80.8252 81.7193L67.5201 74.1373L66.0425 23.1387L72.0007 23.5899C72.0422 23.635 72.3033 23.635 72.5199 23.8155Z" fill="url(#paint13_linear)"/>
<path fill-rule="evenodd" clip-rule="evenodd" d="M71.564 23.9515C71.564 23.9515 71.8251 23.9515 72.0417 24.1771C72.2583 24.3578 72.3027 24.6285 72.3027 24.6285L80.2608 81.4492L80.8691 81.8104L72.7804 24.3126C72.7804 24.3126 72.7389 24.0418 72.5638 23.8614C72.3472 23.6807 72.0417 23.6807 72.0417 23.6807L66.0864 23.2295L71.564 23.9515Z" fill="url(#paint14_linear)"/>
<path fill-rule="evenodd" clip-rule="evenodd" d="M15 78.6496L57.7816 86.9539L59.8705 39.9265L20.3201 41.0508L15 78.6496Z" fill="url(#paint15_linear)"/>
<path opacity="0.3" fill-rule="evenodd" clip-rule="evenodd" d="M29.0444 30.8815C28.6557 31.9784 29.0384 33.1309 29.9049 33.4563C30.7683 33.7814 31.7832 33.156 32.1748 32.0594C32.5635 30.9627 32.1779 29.8099 31.3144 29.4848C30.4509 29.1594 29.4331 29.7848 29.0444 30.8815Z" fill="white"/>
<path opacity="0.89" fill-rule="evenodd" clip-rule="evenodd" d="M28.9971 30.361C28.6084 31.4577 28.9941 32.6105 29.8575 32.9356C30.721 33.261 31.7388 32.6356 32.1275 31.5389C32.5162 30.4419 32.1335 29.2891 31.2671 28.964C30.4036 28.6386 29.3888 29.264 28.9971 30.361Z" fill="black"/>
<path fill-rule="evenodd" clip-rule="evenodd" d="M66.0861 23.1835L61.6501 18.6253C61.478 18.4897 61.2584 18.3997 61.0863 18.3545L57.7808 86.9546L67.5637 74.137L66.0861 23.1835Z" fill="url(#paint16_linear)"/>
<path fill-rule="evenodd" clip-rule="evenodd" d="M59.9987 18.4004L23.131 30.2247C23.131 30.2247 21.5672 30.6762 21.1756 31.1726C21.1311 31.2178 21.1309 31.263 21.0894 31.3081L58.2599 20.657C58.5656 20.5666 59.3044 20.2959 59.2183 22.5072L56.9572 86.865L57.7407 87.0005L61.0432 18.4004C60.6099 18.2649 60.1293 18.3553 59.9987 18.4004Z" fill="url(#paint17_linear)"/>
<path fill-rule="evenodd" clip-rule="evenodd" d="M59.9987 18.4004L23.131 30.2247C23.131 30.2247 21.5672 30.6762 21.1756 31.1726C21.1311 31.2178 21.1309 31.263 21.0894 31.3081L29.6973 28.8257L59.3044 19.3031C59.4349 19.2579 59.9127 19.1676 60.3905 19.2579L57.1295 86.865L57.7407 87.0005L61.0432 18.4004C60.6099 18.2649 60.1293 18.3553 59.9987 18.4004Z" fill="url(#paint18_linear)"/>
<path opacity="0.32" fill-rule="evenodd" clip-rule="evenodd" d="M69.4781 75.2655L67.5196 74.1372L57.7397 86.9546L58.259 86.819C58.259 86.819 66.8698 75.3107 67.6502 74.9495C68.2169 74.7239 69.4781 75.2655 69.4781 75.2655Z" fill="url(#paint19_linear)"/>
<path opacity="0.57" fill-rule="evenodd" clip-rule="evenodd" d="M57.7808 86.9546L67.5637 74.1372C67.5192 74.1824 61.3474 81.1776 57.7808 86.9546Z" fill="url(#paint20_linear)"/>
<path opacity="0.46" fill-rule="evenodd" clip-rule="evenodd" d="M80.9995 81.7642L67.5639 74.1819C67.5194 74.1819 69.0861 74.4527 80.9995 81.7642Z" fill="url(#paint21_linear)"/>
<path opacity="0.3" fill-rule="evenodd" clip-rule="evenodd" d="M48.9208 26.3814C48.5291 27.4783 48.9148 28.6311 49.7783 28.9565C50.6447 29.2819 51.6595 28.6565 52.0483 27.5598C52.4399 26.4629 52.0542 25.3101 51.1907 24.9847C50.3273 24.6596 49.3095 25.2847 48.9208 26.3814Z" fill="white"/>
<path opacity="0.89" fill-rule="evenodd" clip-rule="evenodd" d="M48.8735 25.8629C48.4848 26.9599 48.8707 28.1127 49.7341 28.4381C50.5976 28.7632 51.6152 28.1381 52.0039 27.0411C52.3926 25.9444 52.0099 24.7916 51.1464 24.4662C50.28 24.1408 49.2652 24.7662 48.8735 25.8629Z" fill="black"/>
<path fill-rule="evenodd" clip-rule="evenodd" d="M30.5665 32.5713C30.5219 32.5713 30.4358 32.5713 30.3913 32.5713C29.697 32.4812 29.2194 31.8041 29.3054 31.037C29.3915 30.3147 31.869 13.4355 42.0436 9.59945C44.6073 8.65159 46.7823 8.83201 48.435 10.2314C50.4349 11.9012 51.5209 15.2408 51.696 20.1151C51.8266 23.5451 51.435 26.5236 51.435 26.6591C51.349 27.3811 50.6962 27.9229 49.9989 27.7874C49.3045 27.697 48.7822 27.0203 48.9128 26.298C49.3045 23.2291 49.7377 14.7896 46.8268 12.3524C45.9129 11.5852 44.652 11.4949 42.9577 12.1268C34.2192 15.4212 31.9135 31.2626 31.9135 31.3978C31.7385 32.0749 31.2192 32.5713 30.5665 32.5713Z" fill="#595961"/>
<path opacity="0.46" fill-rule="evenodd" clip-rule="evenodd" d="M47.9125 10.3212C46.3904 9.05765 44.3905 8.87723 41.9989 9.73473C37.8685 11.3142 34.3908 15.4662 31.9992 21.7395C30.2189 26.3881 29.6077 30.5853 29.6077 30.766C29.5662 30.9916 29.6523 31.2172 29.7828 31.3979C29.9134 31.5783 30.0883 31.7138 30.305 31.7138C30.3465 31.7138 30.391 31.7138 30.4355 31.7138C30.8272 31.7138 31.1743 31.3979 31.2188 30.9916C31.2604 30.8111 33.566 14.699 42.5656 11.3142C44.3904 10.6371 45.868 10.7275 46.9125 11.6302C49.9984 14.2027 49.5653 22.9129 49.1736 26.027C49.1291 26.4785 49.4347 26.9296 49.8679 26.9748C50.3041 27.02 50.7373 26.7041 50.7818 26.2529C50.8263 25.7562 52.3486 14.0222 47.9125 10.3212Z" fill="#B2B2C2"/>
<path opacity="0.81" fill-rule="evenodd" clip-rule="evenodd" d="M30.3909 31.2174C30.3464 31.2174 30.3464 31.2174 30.3049 31.2174C30.0438 31.1722 29.8687 30.9014 29.9132 30.6306C29.9577 30.4499 30.5215 26.3431 32.3048 21.6945C34.6964 15.5116 38.0879 11.4045 42.1293 9.86988C44.4348 9.01238 46.3042 9.19309 47.7374 10.3665C51.9983 13.9318 50.5206 25.4856 50.4346 25.982C50.39 26.2528 50.1735 26.4332 49.8679 26.3883C49.6097 26.3431 49.4347 26.1175 49.4347 25.8016C49.4347 25.666 50.9123 14.3381 47.0876 11.0885C45.957 10.231 44.3904 10.1409 42.4795 10.8629C33.3048 14.3381 30.9132 30.6306 30.9132 30.811C30.8687 31.0366 30.652 31.2174 30.3909 31.2174Z" fill="#B2B2C2"/>
<path opacity="0.42" fill-rule="evenodd" clip-rule="evenodd" d="M36.1288 18.3092C36.6066 17.6324 37.0427 16.9554 37.4759 16.2334C37.3038 16.459 36.0427 18.8059 33.4345 18.4448C33.39 18.4448 34.9123 18.9411 36.1288 18.3092Z" fill="#595961"/>
<path opacity="0.42" fill-rule="evenodd" clip-rule="evenodd" d="M34.6523 21.1972C35.044 20.475 35.4356 19.7078 35.7382 18.9858C35.6077 19.2566 34.7383 21.6936 31.9995 21.6936C31.9995 21.6936 33.5218 22.0095 34.6523 21.1972Z" fill="#595961"/>
<path opacity="0.42" fill-rule="evenodd" clip-rule="evenodd" d="M33.5222 24.177C33.8693 23.4095 34.1305 22.6424 34.3916 21.8752C34.2611 22.146 33.7834 24.6282 30.9141 24.9441C30.9141 24.8989 32.4777 25.0796 33.5222 24.177Z" fill="#595961"/>
<path opacity="0.62" fill-rule="evenodd" clip-rule="evenodd" d="M50.9128 15.3757C50.6962 14.5631 50.4795 13.796 50.1739 12.9836C50.2599 13.2544 51.1295 15.8269 49.3491 17.6772C49.3491 17.6772 50.6517 16.7748 50.9128 15.3757Z" fill="#595961"/>
<path opacity="0.62" fill-rule="evenodd" clip-rule="evenodd" d="M49.2185 11.3138C48.6102 10.7271 47.9989 10.1856 47.3906 9.68921C47.6102 9.91481 49.6517 11.5846 49.0879 14.112C49.0434 14.112 49.6962 12.6225 49.2185 11.3138Z" fill="#595961"/>
<path opacity="0.62" fill-rule="evenodd" clip-rule="evenodd" d="M51.3484 19.5281C51.3039 18.7158 51.1735 17.8583 51.0429 17.0457C51.0429 17.3616 51.4791 20.0245 49.3901 21.4687C49.3901 21.4687 50.8262 20.8368 51.3484 19.5281Z" fill="#595961"/>
<path opacity="0.62" fill-rule="evenodd" clip-rule="evenodd" d="M51.5652 23.7707C51.6097 22.9584 51.6097 22.1009 51.5652 21.2886C51.5652 21.6045 51.6096 24.2674 49.3901 25.4857C49.3901 25.4409 50.9124 24.9894 51.5652 23.7707Z" fill="#595961"/>
<path opacity="0.42" fill-rule="evenodd" clip-rule="evenodd" d="M32.5206 27.4709C32.7817 26.6586 32.9568 25.8463 33.1289 25.0789C33.0429 25.3496 32.6512 27.9221 29.9985 28.554C30.043 28.554 31.6067 28.5089 32.5206 27.4709Z" fill="#595961"/>
<path opacity="0.42" fill-rule="evenodd" clip-rule="evenodd" d="M37.7832 15.8263C38.3915 15.2848 38.9581 14.6981 39.4803 14.0662C39.2607 14.2466 37.522 16.0971 35.0889 15.42C35.1304 15.42 36.4776 16.2326 37.7832 15.8263Z" fill="#595961"/>
<path opacity="0.42" fill-rule="evenodd" clip-rule="evenodd" d="M39.7371 13.7513C40.4344 13.3002 41.0872 12.8487 41.737 12.3523C41.4789 12.4878 39.4789 13.9769 37.1733 12.8938C37.1733 12.8938 38.3899 13.9318 39.7371 13.7513Z" fill="#595961"/>
<path opacity="0.62" fill-rule="evenodd" clip-rule="evenodd" d="M42.3903 12.2621C43.1737 12.0362 43.9126 11.7655 44.6514 11.4947C44.3903 11.5851 42.0433 12.3974 40.1294 10.6824C40.1294 10.6824 41.0432 12.0362 42.3903 12.2621Z" fill="#595961"/>
<path opacity="0.62" fill-rule="evenodd" clip-rule="evenodd" d="M44.6066 11.4499C45.2178 11.5402 45.8262 11.5854 46.4345 11.6306C46.2179 11.5854 44.3484 11.4499 43.5205 9.64453C43.565 9.64453 43.7817 10.8632 44.6066 11.4499Z" fill="#595961"/>
<path opacity="0.62" fill-rule="evenodd" clip-rule="evenodd" d="M46.9576 12.4421C47.3493 12.9385 47.7381 13.4348 48.1297 13.8863C47.9992 13.7056 46.7826 12.2165 47.3908 10.366C47.4353 10.366 46.7826 11.4042 46.9576 12.4421Z" fill="#595961"/>
<path fill-rule="evenodd" clip-rule="evenodd" d="M49.9572 25.7561C49.9988 25.2598 51.4795 13.8415 47.3491 10.3663C46.5658 9.68949 45.6104 9.37354 44.5659 9.37354C43.7825 9.37354 42.9132 9.55395 41.9993 9.91508C37.9994 11.4045 34.6523 15.4212 32.3052 21.559C30.5219 26.1624 29.9581 30.2695 29.9136 30.4499C29.9136 30.5852 29.9998 30.7207 30.1304 30.7207H30.1747C30.3053 30.7207 30.3913 30.6304 30.3913 30.4951C30.4358 30.3144 32.7829 13.8415 42.1297 10.3211C44.1296 9.55395 45.8268 9.68949 47.0434 10.7274C50.9987 14.0219 49.5212 25.5305 49.4796 25.6661C49.4796 25.8013 49.5657 25.9368 49.6962 25.9368C49.6962 25.9368 49.6962 25.9368 49.7377 25.9368C49.8683 25.982 49.9572 25.8917 49.9572 25.7561Z" fill="url(#paint22_linear)"/>
<path fill-rule="evenodd" clip-rule="evenodd" d="M51.6951 20.1147C51.52 15.2404 50.434 11.9457 48.4341 10.2307C47.3481 9.32829 46.0426 8.92197 44.5649 9.01233C45.6955 9.10239 46.737 9.5087 47.6093 10.2307C49.6092 11.9008 50.6951 15.2404 50.8672 20.1147C50.9978 23.5447 50.6092 26.5232 50.6092 26.6587C50.5201 27.2003 50.1729 27.6066 49.7368 27.7418C49.8258 27.787 49.8672 27.787 49.9563 27.787C50.6506 27.8774 51.3035 27.3807 51.3895 26.6587C51.434 26.5232 51.8256 23.5899 51.6951 20.1147Z" fill="url(#paint23_linear)"/>
<path fill-rule="evenodd" clip-rule="evenodd" d="M42.0878 12.1264C33.3493 15.4209 31.0438 31.2622 31.0438 31.4426C30.9578 31.9842 30.6075 32.3905 30.1743 32.5257C30.2604 32.5709 30.3049 32.5709 30.3909 32.5709C30.4354 32.5709 30.5215 32.5709 30.566 32.5709C31.2188 32.5709 31.7381 32.0745 31.8271 31.4426C31.8686 31.2622 34.1297 15.4661 42.8682 12.1713C43.4794 11.9457 43.9988 11.8105 44.4795 11.7653C43.8267 11.6749 42.9987 11.8105 42.0878 12.1264Z" fill="url(#paint24_linear)"/>
<defs>
<linearGradient id="paint0_linear" x1="40.8331" y1="11.8221" x2="39.4696" y2="30.3866" gradientUnits="userSpaceOnUse">
<stop stop-color="white" stop-opacity="0.65"/>
<stop offset="1" stop-color="white" stop-opacity="0.01"/>
</linearGradient>
<linearGradient id="paint1_linear" x1="50.7964" y1="22.4485" x2="60.3964" y2="30.8569" gradientUnits="userSpaceOnUse">
<stop stop-opacity="0.01"/>
<stop offset="1" stop-opacity="0.4"/>
</linearGradient>
<linearGradient id="paint2_linear" x1="46.9475" y1="32.1755" x2="57.1089" y2="22.7109" gradientUnits="userSpaceOnUse">
<stop stop-opacity="0.01"/>
<stop offset="1" stop-opacity="0.4"/>
</linearGradient>
<linearGradient id="paint3_linear" x1="34.0141" y1="4.55518" x2="-5.45344" y2="50.0304" gradientUnits="userSpaceOnUse">
<stop stop-color="#B8D26E"/>
<stop offset="1" stop-color="#7FB525"/>
</linearGradient>
<linearGradient id="paint4_linear" x1="88.0023" y1="15.9403" x2="66.3418" y2="16.3425" gradientUnits="userSpaceOnUse">
<stop stop-color="#B4E034"/>
<stop offset="1" stop-color="#60A927"/>
</linearGradient>
<linearGradient id="paint5_linear" x1="23.5746" y1="46.263" x2="5.81578" y2="89.5091" gradientUnits="userSpaceOnUse">
<stop stop-color="white"/>
<stop offset="1" stop-color="#CECEEB"/>
</linearGradient>
<linearGradient id="paint6_linear" x1="49.0364" y1="152.765" x2="77.1626" y2="152.708" gradientUnits="userSpaceOnUse">
<stop stop-color="#1D1D1B" stop-opacity="0.5"/>
<stop offset="0.038033" stop-color="#1D1D1B" stop-opacity="0.4837"/>
<stop offset="0.4243" stop-color="#1D1D1B" stop-opacity="0.3185"/>
<stop offset="1" stop-color="#1D1D1B" stop-opacity="0.01"/>
</linearGradient>
<linearGradient id="paint7_linear" x1="52.3041" y1="17.4019" x2="47.6379" y2="19.9132" gradientUnits="userSpaceOnUse">
<stop stop-opacity="0.01"/>
<stop offset="1" stop-opacity="0.4"/>
</linearGradient>
<linearGradient id="paint8_linear" x1="32.7407" y1="24.8501" x2="29.4606" y2="27.6691" gradientUnits="userSpaceOnUse">
<stop stop-opacity="0.01"/>
<stop offset="1" stop-opacity="0.4"/>
</linearGradient>
<linearGradient id="paint9_linear" x1="64.736" y1="81.7978" x2="65.068" y2="86.1753" gradientUnits="userSpaceOnUse">
<stop stop-opacity="0.01"/>
<stop offset="1" stop-opacity="0.4"/>
</linearGradient>
<linearGradient id="paint10_linear" x1="56.9826" y1="75.3893" x2="57.7525" y2="86.7706" gradientUnits="userSpaceOnUse">
<stop stop-color="white" stop-opacity="0.5"/>
<stop offset="0.0896271" stop-color="white" stop-opacity="0.4552"/>
<stop offset="1" stop-color="white" stop-opacity="0.01"/>
</linearGradient>
<linearGradient id="paint11_linear" x1="55.5019" y1="77.1595" x2="56.8714" y2="89.3172" gradientUnits="userSpaceOnUse">
<stop stop-opacity="0.01"/>
<stop offset="1" stop-opacity="0.4"/>
</linearGradient>
<linearGradient id="paint12_linear" x1="50.1284" y1="7.21162" x2="15.0047" y2="27.5258" gradientUnits="userSpaceOnUse">
<stop stop-color="white" stop-opacity="0.5"/>
<stop offset="1" stop-color="white" stop-opacity="0.01"/>
</linearGradient>
<linearGradient id="paint13_linear" x1="56.9064" y1="113.38" x2="87.908" y2="113.443" gradientUnits="userSpaceOnUse">
<stop stop-color="#1D1D1B" stop-opacity="0.5"/>
<stop offset="0.0896271" stop-color="#1D1D1B" stop-opacity="0.4552"/>
<stop offset="1" stop-color="#1D1D1B" stop-opacity="0.01"/>
</linearGradient>
<linearGradient id="paint14_linear" x1="79.1066" y1="21.5192" x2="74.7027" y2="22.5983" gradientUnits="userSpaceOnUse">
<stop stop-color="white" stop-opacity="0.4"/>
<stop offset="1" stop-color="white" stop-opacity="0.01"/>
</linearGradient>
<linearGradient id="paint15_linear" x1="39.5954" y1="87.4561" x2="41.8854" y2="76.4158" gradientUnits="userSpaceOnUse">
<stop stop-color="#1D1D1B" stop-opacity="0.5"/>
<stop offset="0.0896271" stop-color="#1D1D1B" stop-opacity="0.4552"/>
<stop offset="1" stop-color="#1D1D1B" stop-opacity="0.01"/>
</linearGradient>
<linearGradient id="paint16_linear" x1="52.8344" y1="151.36" x2="81.0616" y2="151.384" gradientUnits="userSpaceOnUse">
<stop stop-color="#1D1D1B" stop-opacity="0.5"/>
<stop offset="1" stop-color="#1D1D1B" stop-opacity="0.01"/>
</linearGradient>
<linearGradient id="paint17_linear" x1="27.0416" y1="14.4233" x2="13.3515" y2="67.0204" gradientUnits="userSpaceOnUse">
<stop stop-color="white" stop-opacity="0.5"/>
<stop offset="1" stop-color="white" stop-opacity="0.01"/>
</linearGradient>
<linearGradient id="paint18_linear" x1="27.0416" y1="14.4233" x2="13.3515" y2="67.0204" gradientUnits="userSpaceOnUse">
<stop stop-color="white" stop-opacity="0.5"/>
<stop offset="1" stop-color="white" stop-opacity="0.01"/>
</linearGradient>
<linearGradient id="paint19_linear" x1="60.2649" y1="69.5585" x2="49.4441" y2="84.452" gradientUnits="userSpaceOnUse">
<stop stop-color="white" stop-opacity="0.5"/>
<stop offset="0.0896271" stop-color="white" stop-opacity="0.4552"/>
<stop offset="1" stop-color="white" stop-opacity="0.01"/>
</linearGradient>
<linearGradient id="paint20_linear" x1="63.5283" y1="72.9827" x2="62.4569" y2="75.3842" gradientUnits="userSpaceOnUse">
<stop stop-opacity="0.01"/>
<stop offset="1" stop-opacity="0.4"/>
</linearGradient>
<linearGradient id="paint21_linear" x1="74.1541" y1="76.1579" x2="74.1012" y2="76.8034" gradientUnits="userSpaceOnUse">
<stop stop-opacity="0.01"/>
<stop offset="1" stop-opacity="0.4"/>
</linearGradient>
<linearGradient id="paint22_linear" x1="35.1893" y1="7.8543" x2="30.5114" y2="26.3342" gradientUnits="userSpaceOnUse">
<stop stop-color="white" stop-opacity="0.65"/>
<stop offset="1" stop-color="white" stop-opacity="0.01"/>
</linearGradient>
<linearGradient id="paint23_linear" x1="45.6569" y1="18.5145" x2="53.7943" y2="26.7876" gradientUnits="userSpaceOnUse">
<stop stop-opacity="0.01"/>
<stop offset="1" stop-opacity="0.4"/>
</linearGradient>
<linearGradient id="paint24_linear" x1="40.4559" y1="30.6976" x2="51.6989" y2="19.151" gradientUnits="userSpaceOnUse">
<stop stop-opacity="0.01"/>
<stop offset="1" stop-opacity="0.4"/>
</linearGradient>
</defs>
</svg>
