<svg width="35" height="29" viewBox="0 0 35 29" fill="none" xmlns="http://www.w3.org/2000/svg">
<path fill-rule="evenodd" clip-rule="evenodd" d="M35 3.43262C33.7133 4.01542 32.3285 4.40792 30.8761 4.58514C32.3588 3.67881 33.4974 2.2444 34.0329 0.535227C32.647 1.37494 31.1083 1.98273 29.4739 2.3122C28.1638 0.889673 26.2961 0 24.2324 0C20.2671 0 17.052 3.27799 17.052 7.32077C17.052 7.89406 17.1162 8.45308 17.2387 8.9895C11.2704 8.68501 5.97994 5.76979 2.43817 1.34045C1.81988 2.42162 1.4664 3.67883 1.4664 5.02048C1.4664 7.55985 2.73215 9.80068 4.66052 11.1138C3.48227 11.0757 2.37634 10.7463 1.4069 10.1979V10.2895C1.4069 13.8375 3.88357 16.7955 7.16635 17.4699C6.56439 17.6365 5.92977 17.7269 5.27531 17.7269C4.81218 17.7269 4.36188 17.6805 3.92324 17.5948C4.83668 20.5029 7.4895 22.6201 10.6311 22.6795C8.17429 24.642 5.07816 25.8136 1.71372 25.8136C1.13276 25.8136 0.561129 25.7791 0 25.7101C3.17779 27.7868 6.9517 29 11.0068 29C24.2137 29 31.4361 17.8446 31.4361 8.17119C31.4361 7.85361 31.4302 7.53725 31.4151 7.22443C32.8196 6.18965 34.0376 4.90034 35 3.43262Z" fill="white"/>
</svg>
