<svg width="472" height="773" viewBox="0 0 472 773" fill="none" xmlns="http://www.w3.org/2000/svg">
<g filter="url(#filter0_ddd_320_234)">
<path d="M76 72C76 66.3995 76 63.5992 77.0899 61.4601C78.0487 59.5785 79.5785 58.0487 81.4601 57.0899C83.5992 56 86.3995 56 92 56H380C385.601 56 388.401 56 390.54 57.0899C392.422 58.0487 393.951 59.5785 394.91 61.4601C396 63.5992 396 66.3995 396 72V108H76V72Z" fill="#363636"/>
<path d="M296.008 83.3736C296.431 83.3736 296.779 83.0253 296.779 82.6107V74.2676L296.721 73.0402L297.227 73.6456L298.387 74.8813C298.519 75.0306 298.71 75.1052 298.901 75.1052C299.282 75.1052 299.597 74.8315 299.597 74.4417C299.597 74.2344 299.514 74.0851 299.373 73.9441L296.597 71.2654C296.398 71.0663 296.207 71 296.008 71C295.801 71 295.619 71.0663 295.42 71.2654L292.635 73.9441C292.494 74.0851 292.412 74.2344 292.412 74.4417C292.412 74.8315 292.718 75.1052 293.099 75.1052C293.29 75.1052 293.489 75.0306 293.622 74.8813L294.782 73.6456L295.296 73.0319L295.229 74.2676V82.6107C295.229 83.0253 295.577 83.3736 296.008 83.3736ZM291.227 90H300.773C302.572 90 303.5 89.0711 303.5 87.2964V79.144C303.5 77.3693 302.572 76.4404 300.773 76.4404H298.536V78.0908H300.666C301.42 78.0908 301.851 78.4889 301.851 79.285V87.1471C301.851 87.9433 301.42 88.3413 300.666 88.3413H291.334C290.572 88.3413 290.149 87.9433 290.149 87.1471V79.285C290.149 78.4889 290.572 78.0908 291.334 78.0908H293.489V76.4404H291.227C289.436 76.4404 288.5 77.361 288.5 79.144V87.2964C288.5 89.0711 289.436 90 291.227 90Z" fill="#B7B7B7"/>
<path d="M331 88C331.527 88 331.953 87.5723 331.953 87.087V81.9377H337.055C337.565 81.9377 338 81.5182 338 81C338 80.49 337.565 80.0623 337.055 80.0623H331.953V74.913C331.953 74.4195 331.527 74 331 74C330.481 74 330.047 74.4195 330.047 74.913V80.0623H324.945C324.452 80.0623 324 80.49 324 81C324 81.5182 324.452 81.9377 324.945 81.9377H330.047V87.087C330.047 87.5723 330.481 88 331 88Z" fill="#B7B7B7"/>
<path d="M361.728 86.0349H363.137V87.2868C363.137 89.0611 364.074 89.9897 365.865 89.9897H374.272C376.063 89.9897 377 89.0611 377 87.2868V78.8216C377 77.0473 376.063 76.1187 374.272 76.1187H372.863V74.875C372.863 73.1007 371.926 72.1721 370.135 72.1721H361.728C359.929 72.1721 359 73.1007 359 74.875V83.332C359 85.1145 359.929 86.0349 361.728 86.0349ZM361.836 84.3849C361.073 84.3849 360.65 83.987 360.65 83.1827V75.0243C360.65 74.22 361.073 73.8303 361.836 73.8303H370.027C370.782 73.8303 371.213 74.22 371.213 75.0243V76.1187H365.865C364.074 76.1187 363.137 77.0473 363.137 78.8216V84.3849H361.836ZM365.973 88.3315C365.21 88.3315 364.795 87.9335 364.795 87.1376V78.9708C364.795 78.1749 365.21 77.7769 365.973 77.7769H374.164C374.927 77.7769 375.35 78.1749 375.35 78.9708V87.1376C375.35 87.9335 374.927 88.3315 374.164 88.3315H365.973Z" fill="#B7B7B7"/>
<circle cx="102" cy="82" r="6" fill="#ED6A5E"/>
<circle cx="102" cy="82" r="5.5" stroke="black" stroke-opacity="0.1"/>
<circle cx="122" cy="82" r="6" fill="#F4BD50"/>
<circle cx="122" cy="82" r="5.5" stroke="black" stroke-opacity="0.1"/>
<circle cx="142" cy="82" r="6" fill="#61C454"/>
<circle cx="142" cy="82" r="5.5" stroke="black" stroke-opacity="0.1"/>
<path d="M76 108H396V667C396 672.523 391.523 677 386 677H86C80.4772 677 76 672.523 76 667V108Z" fill="white"/>
<rect x="76" y="108" width="320" height="569" fill="url(#paint0_linear_320_234)"/>
<path d="M204.636 323.41C207.966 323.41 210.876 324.07 213.366 325.39C215.856 326.71 217.776 328.57 219.126 330.97C220.506 333.34 221.196 336.085 221.196 339.205C221.196 342.295 220.506 345.04 219.126 347.44C217.776 349.84 215.841 351.7 213.321 353.02C210.831 354.34 207.936 355 204.636 355H192.801V323.41H204.636ZM204.141 348.34C207.051 348.34 209.316 347.545 210.936 345.955C212.556 344.365 213.366 342.115 213.366 339.205C213.366 336.295 212.556 334.03 210.936 332.41C209.316 330.79 207.051 329.98 204.141 329.98H200.496V348.34H204.141ZM229.367 327.28C228.017 327.28 226.907 326.89 226.037 326.11C225.197 325.3 224.777 324.31 224.777 323.14C224.777 321.94 225.197 320.95 226.037 320.17C226.907 319.36 228.017 318.955 229.367 318.955C230.687 318.955 231.767 319.36 232.607 320.17C233.477 320.95 233.912 321.94 233.912 323.14C233.912 324.31 233.477 325.3 232.607 326.11C231.767 326.89 230.687 327.28 229.367 327.28ZM233.192 329.89V355H225.497V329.89H233.192ZM262.438 342.04C262.438 342.76 262.393 343.51 262.303 344.29H244.888C245.008 345.85 245.503 347.05 246.373 347.89C247.273 348.7 248.368 349.105 249.658 349.105C251.578 349.105 252.913 348.295 253.663 346.675H261.853C261.433 348.325 260.668 349.81 259.558 351.13C258.478 352.45 257.113 353.485 255.463 354.235C253.813 354.985 251.968 355.36 249.928 355.36C247.468 355.36 245.278 354.835 243.358 353.785C241.438 352.735 239.938 351.235 238.858 349.285C237.778 347.335 237.238 345.055 237.238 342.445C237.238 339.835 237.763 337.555 238.813 335.605C239.893 333.655 241.393 332.155 243.313 331.105C245.233 330.055 247.438 329.53 249.928 329.53C252.358 329.53 254.518 330.04 256.408 331.06C258.298 332.08 259.768 333.535 260.818 335.425C261.898 337.315 262.438 339.52 262.438 342.04ZM254.563 340.015C254.563 338.695 254.113 337.645 253.213 336.865C252.313 336.085 251.188 335.695 249.838 335.695C248.548 335.695 247.453 336.07 246.553 336.82C245.683 337.57 245.143 338.635 244.933 340.015H254.563ZM280.493 348.475V355H276.578C273.788 355 271.613 354.325 270.053 352.975C268.493 351.595 267.713 349.36 267.713 346.27V336.28H264.653V329.89H267.713V323.77H275.408V329.89H280.448V336.28H275.408V346.36C275.408 347.11 275.588 347.65 275.948 347.98C276.308 348.31 276.908 348.475 277.748 348.475H280.493ZM173.107 401.58C173.107 403.41 172.687 405.09 171.847 406.62C171.007 408.12 169.717 409.335 167.977 410.265C166.237 411.195 164.077 411.66 161.497 411.66H156.727V423H149.032V391.41H161.497C164.017 391.41 166.147 391.845 167.887 392.715C169.627 393.585 170.932 394.785 171.802 396.315C172.672 397.845 173.107 399.6 173.107 401.58ZM160.912 405.54C162.382 405.54 163.477 405.195 164.197 404.505C164.917 403.815 165.277 402.84 165.277 401.58C165.277 400.32 164.917 399.345 164.197 398.655C163.477 397.965 162.382 397.62 160.912 397.62H156.727V405.54H160.912ZM184.808 389.7V423H177.113V389.7H184.808ZM188.854 410.4C188.854 407.82 189.334 405.555 190.294 403.605C191.284 401.655 192.619 400.155 194.299 399.105C195.979 398.055 197.854 397.53 199.924 397.53C201.694 397.53 203.239 397.89 204.559 398.61C205.909 399.33 206.944 400.275 207.664 401.445V397.89H215.359V423H207.664V419.445C206.914 420.615 205.864 421.56 204.514 422.28C203.194 423 201.649 423.36 199.879 423.36C197.839 423.36 195.979 422.835 194.299 421.785C192.619 420.705 191.284 419.19 190.294 417.24C189.334 415.26 188.854 412.98 188.854 410.4ZM207.664 410.445C207.664 408.525 207.124 407.01 206.044 405.9C204.994 404.79 203.704 404.235 202.174 404.235C200.644 404.235 199.339 404.79 198.259 405.9C197.209 406.98 196.684 408.48 196.684 410.4C196.684 412.32 197.209 413.85 198.259 414.99C199.339 416.1 200.644 416.655 202.174 416.655C203.704 416.655 204.994 416.1 206.044 414.99C207.124 413.88 207.664 412.365 207.664 410.445ZM236.226 397.62C239.166 397.62 241.506 398.58 243.246 400.5C245.016 402.39 245.901 405 245.901 408.33V423H238.251V409.365C238.251 407.685 237.816 406.38 236.946 405.45C236.076 404.52 234.906 404.055 233.436 404.055C231.966 404.055 230.796 404.52 229.926 405.45C229.056 406.38 228.621 407.685 228.621 409.365V423H220.926V397.89H228.621V401.22C229.401 400.11 230.451 399.24 231.771 398.61C233.091 397.95 234.576 397.62 236.226 397.62ZM266.548 397.62C269.488 397.62 271.828 398.58 273.568 400.5C275.338 402.39 276.223 405 276.223 408.33V423H268.573V409.365C268.573 407.685 268.138 406.38 267.268 405.45C266.398 404.52 265.228 404.055 263.758 404.055C262.288 404.055 261.118 404.52 260.248 405.45C259.378 406.38 258.943 407.685 258.943 409.365V423H251.248V397.89H258.943V401.22C259.723 400.11 260.773 399.24 262.093 398.61C263.413 397.95 264.898 397.62 266.548 397.62ZM305.241 410.04C305.241 410.76 305.196 411.51 305.106 412.29H287.691C287.811 413.85 288.306 415.05 289.176 415.89C290.076 416.7 291.171 417.105 292.461 417.105C294.381 417.105 295.716 416.295 296.466 414.675H304.656C304.236 416.325 303.471 417.81 302.361 419.13C301.281 420.45 299.916 421.485 298.266 422.235C296.616 422.985 294.771 423.36 292.731 423.36C290.271 423.36 288.081 422.835 286.161 421.785C284.241 420.735 282.741 419.235 281.661 417.285C280.581 415.335 280.041 413.055 280.041 410.445C280.041 407.835 280.566 405.555 281.616 403.605C282.696 401.655 284.196 400.155 286.116 399.105C288.036 398.055 290.241 397.53 292.731 397.53C295.161 397.53 297.321 398.04 299.211 399.06C301.101 400.08 302.571 401.535 303.621 403.425C304.701 405.315 305.241 407.52 305.241 410.04ZM297.366 408.015C297.366 406.695 296.916 405.645 296.016 404.865C295.116 404.085 293.991 403.695 292.641 403.695C291.351 403.695 290.256 404.07 289.356 404.82C288.486 405.57 287.946 406.635 287.736 408.015H297.366ZM316.995 402.075C317.895 400.695 319.02 399.615 320.37 398.835C321.72 398.025 323.22 397.62 324.87 397.62V405.765H322.755C320.835 405.765 319.395 406.185 318.435 407.025C317.475 407.835 316.995 409.275 316.995 411.345V423H309.3V397.89H316.995V402.075Z" fill="#CECECE"/>
<rect x="75.75" y="55.75" width="320.5" height="621.5" rx="10.25" stroke="black" stroke-width="0.5"/>
</g>
<defs>
<filter id="filter0_ddd_320_234" x="0.5" y="0.5" width="471" height="772" filterUnits="userSpaceOnUse" color-interpolation-filters="sRGB">
<feFlood flood-opacity="0" result="BackgroundImageFix"/>
<feColorMatrix in="SourceAlpha" type="matrix" values="0 0 0 0 0 0 0 0 0 0 0 0 0 0 0 0 0 0 127 0" result="hardAlpha"/>
<feMorphology radius="20" operator="erode" in="SourceAlpha" result="effect1_dropShadow_320_234"/>
<feOffset dy="30"/>
<feGaussianBlur stdDeviation="25"/>
<feColorMatrix type="matrix" values="0 0 0 0 0 0 0 0 0 0 0 0 0 0 0 0 0 0 0.25 0"/>
<feBlend mode="normal" in2="BackgroundImageFix" result="effect1_dropShadow_320_234"/>
<feColorMatrix in="SourceAlpha" type="matrix" values="0 0 0 0 0 0 0 0 0 0 0 0 0 0 0 0 0 0 127 0" result="hardAlpha"/>
<feMorphology radius="15" operator="dilate" in="SourceAlpha" result="effect2_dropShadow_320_234"/>
<feOffset dy="20"/>
<feGaussianBlur stdDeviation="30"/>
<feColorMatrix type="matrix" values="0 0 0 0 0 0 0 0 0 0 0 0 0 0 0 0 0 0 0.18 0"/>
<feBlend mode="normal" in2="effect1_dropShadow_320_234" result="effect2_dropShadow_320_234"/>
<feColorMatrix in="SourceAlpha" type="matrix" values="0 0 0 0 0 0 0 0 0 0 0 0 0 0 0 0 0 0 127 0" result="hardAlpha"/>
<feMorphology radius="5" operator="dilate" in="SourceAlpha" result="effect3_dropShadow_320_234"/>
<feOffset/>
<feGaussianBlur stdDeviation="10"/>
<feColorMatrix type="matrix" values="0 0 0 0 0 0 0 0 0 0 0 0 0 0 0 0 0 0 0.18 0"/>
<feBlend mode="normal" in2="effect2_dropShadow_320_234" result="effect3_dropShadow_320_234"/>
<feBlend mode="normal" in="SourceGraphic" in2="effect3_dropShadow_320_234" result="shape"/>
</filter>
<linearGradient id="paint0_linear_320_234" x1="236" y1="-633.357" x2="236" y2="849.357" gradientUnits="userSpaceOnUse">
<stop stop-color="#CACACA"/>
<stop offset="1"/>
</linearGradient>
</defs>
</svg>
