<svg width="1068" height="719" viewBox="0 0 1068 719" fill="none" xmlns="http://www.w3.org/2000/svg">
<g filter="url(#filter0_ddd_319_195)">
<g filter="url(#filter1_iii_319_195)">
<path d="M76 72C76 66.3995 76 63.5992 77.0899 61.4601C78.0487 59.5785 79.5785 58.0487 81.4601 57.0899C83.5992 56 86.3995 56 92 56H976C981.601 56 984.401 56 986.54 57.0899C988.422 58.0487 989.951 59.5785 990.91 61.4601C992 63.5992 992 66.3995 992 72V108H76V72Z" fill="#363636"/>
</g>
<path d="M892.008 83.3736C892.431 83.3736 892.779 83.0253 892.779 82.6107V74.2676L892.721 73.0402L893.227 73.6456L894.387 74.8813C894.519 75.0306 894.71 75.1052 894.901 75.1052C895.282 75.1052 895.597 74.8315 895.597 74.4417C895.597 74.2344 895.514 74.0851 895.373 73.9441L892.597 71.2654C892.398 71.0663 892.207 71 892.008 71C891.801 71 891.619 71.0663 891.42 71.2654L888.635 73.9441C888.494 74.0851 888.412 74.2344 888.412 74.4417C888.412 74.8315 888.718 75.1052 889.099 75.1052C889.29 75.1052 889.489 75.0306 889.622 74.8813L890.782 73.6456L891.296 73.0319L891.229 74.2676V82.6107C891.229 83.0253 891.577 83.3736 892.008 83.3736ZM887.227 90H896.773C898.572 90 899.5 89.0711 899.5 87.2964V79.144C899.5 77.3693 898.572 76.4404 896.773 76.4404H894.536V78.0908H896.666C897.42 78.0908 897.851 78.4889 897.851 79.285V87.1471C897.851 87.9433 897.42 88.3413 896.666 88.3413H887.334C886.572 88.3413 886.149 87.9433 886.149 87.1471V79.285C886.149 78.4889 886.572 78.0908 887.334 78.0908H889.489V76.4404H887.227C885.436 76.4404 884.5 77.361 884.5 79.144V87.2964C884.5 89.0711 885.436 90 887.227 90Z" fill="#B7B7B7"/>
<path d="M927 88C927.527 88 927.953 87.5723 927.953 87.087V81.9377H933.055C933.565 81.9377 934 81.5182 934 81C934 80.49 933.565 80.0623 933.055 80.0623H927.953V74.913C927.953 74.4195 927.527 74 927 74C926.481 74 926.047 74.4195 926.047 74.913V80.0623H920.945C920.452 80.0623 920 80.49 920 81C920 81.5182 920.452 81.9377 920.945 81.9377H926.047V87.087C926.047 87.5723 926.481 88 927 88Z" fill="#B7B7B7"/>
<path d="M957.728 86.0349H959.137V87.2868C959.137 89.0611 960.074 89.9897 961.865 89.9897H970.272C972.063 89.9897 973 89.0611 973 87.2868V78.8216C973 77.0473 972.063 76.1187 970.272 76.1187H968.863V74.875C968.863 73.1007 967.926 72.1721 966.135 72.1721H957.728C955.929 72.1721 955 73.1007 955 74.875V83.332C955 85.1145 955.929 86.0349 957.728 86.0349ZM957.836 84.3849C957.073 84.3849 956.65 83.987 956.65 83.1827V75.0243C956.65 74.22 957.073 73.8303 957.836 73.8303H966.027C966.782 73.8303 967.213 74.22 967.213 75.0243V76.1187H961.865C960.074 76.1187 959.137 77.0473 959.137 78.8216V84.3849H957.836ZM961.973 88.3315C961.21 88.3315 960.795 87.9335 960.795 87.1376V78.9708C960.795 78.1749 961.21 77.7769 961.973 77.7769H970.164C970.927 77.7769 971.35 78.1749 971.35 78.9708V87.1376C971.35 87.9335 970.927 88.3315 970.164 88.3315H961.973Z" fill="#B7B7B7"/>
<path d="M176.731 89.5142H190.934C192.735 89.5142 193.673 88.5845 193.673 86.8081V76.7061C193.673 74.9297 192.735 74 190.934 74H176.731C174.938 74 174 74.9214 174 76.7061V86.8081C174 88.5845 174.938 89.5142 176.731 89.5142ZM176.839 87.8623C176.075 87.8623 175.652 87.4639 175.652 86.6587V76.8555C175.652 76.0503 176.075 75.6519 176.839 75.6519H180.624V87.8623H176.839ZM190.826 75.6519C191.589 75.6519 192.013 76.0503 192.013 76.8555V86.6587C192.013 87.4639 191.589 87.8623 190.826 87.8623H182.193V75.6519H190.826ZM178.997 78.6899C179.296 78.6899 179.545 78.4326 179.545 78.1504C179.545 77.8682 179.296 77.6191 178.997 77.6191H177.295C176.997 77.6191 176.748 77.8682 176.748 78.1504C176.748 78.4326 176.997 78.6899 177.295 78.6899H178.997ZM178.997 80.9229C179.296 80.9229 179.545 80.6738 179.545 80.3833C179.545 80.1011 179.296 79.8521 178.997 79.8521H177.295C176.997 79.8521 176.748 80.1011 176.748 80.3833C176.748 80.6738 176.997 80.9229 177.295 80.9229H178.997ZM178.997 83.1475C179.296 83.1475 179.545 82.9067 179.545 82.6162C179.545 82.334 179.296 82.0933 178.997 82.0933H177.295C176.997 82.0933 176.748 82.334 176.748 82.6162C176.748 82.9067 176.997 83.1475 177.295 83.1475H178.997Z" fill="#B7B7B7"/>
<path d="M225.398 88.0938L219.32 82.1484C219.109 81.9375 219 81.7031 219 81.4297C219 81.1562 219.109 80.9062 219.328 80.7031L225.406 74.7656C225.578 74.5938 225.797 74.5 226.047 74.5C226.57 74.5 226.977 74.9062 226.977 75.4219C226.977 75.6719 226.875 75.9141 226.695 76.0938L221.227 81.4219L226.695 86.7656C226.875 86.9453 226.977 87.1797 226.977 87.4375C226.977 87.9531 226.57 88.3594 226.047 88.3594C225.797 88.3594 225.578 88.2656 225.398 88.0938Z" fill="#B7B7B7"/>
<path d="M255.43 88.3594C255.688 88.3594 255.898 88.2656 256.078 88.0938L262.156 82.1562C262.367 81.9375 262.477 81.7109 262.477 81.4297C262.477 81.1562 262.375 80.9141 262.156 80.7109L256.078 74.7656C255.898 74.5938 255.688 74.5 255.43 74.5C254.906 74.5 254.5 74.9062 254.5 75.4219C254.5 75.6719 254.609 75.9141 254.781 76.0938L260.258 81.4375L254.781 86.7656C254.602 86.9531 254.5 87.1797 254.5 87.4375C254.5 87.9531 254.906 88.3594 255.43 88.3594Z" fill="#5A5A5A"/>
<circle cx="102" cy="82" r="6" fill="#ED6A5E"/>
<circle cx="102" cy="82" r="5.5" stroke="black" stroke-opacity="0.1"/>
<circle cx="122" cy="82" r="6" fill="#F4BD50"/>
<circle cx="122" cy="82" r="5.5" stroke="black" stroke-opacity="0.1"/>
<circle cx="142" cy="82" r="6" fill="#61C454"/>
<circle cx="142" cy="82" r="5.5" stroke="black" stroke-opacity="0.1"/>
<path d="M356.048 77.6C356.048 74.2397 356.048 72.5595 356.702 71.2761C357.277 70.1471 358.195 69.2292 359.324 68.654C360.607 68 362.288 68 365.648 68H702.448C705.808 68 707.488 68 708.772 68.654C709.901 69.2292 710.819 70.1471 711.394 71.2761C712.048 72.5595 712.048 74.2397 712.048 77.6V86.4C712.048 89.7603 712.048 91.4405 711.394 92.7239C710.819 93.8529 709.901 94.7708 708.772 95.346C707.488 96 705.808 96 702.448 96H365.648C362.288 96 360.607 96 359.324 95.346C358.195 94.7708 357.277 93.8529 356.702 92.7239C356.048 91.4405 356.048 89.7603 356.048 86.4V77.6Z" fill="#434343"/>
<path d="M452.692 87.9121H458.376C459.161 87.9121 459.548 87.5254 459.548 86.6699V82.2812C459.548 81.5078 459.231 81.1152 458.575 81.0508V79.6035C458.575 77.377 457.093 76.3047 455.534 76.3047C453.976 76.3047 452.493 77.377 452.493 79.6035V81.0684C451.884 81.1621 451.521 81.5488 451.521 82.2812V86.6699C451.521 87.5254 451.907 87.9121 452.692 87.9121ZM453.618 79.498C453.618 78.1328 454.485 77.3828 455.534 77.3828C456.577 77.3828 457.45 78.1328 457.45 79.498V81.0391L453.618 81.0449V79.498Z" fill="#E3E3E3"/>
<path d="M468.73 77V87.5H467.466V77H468.73ZM468.43 83.5215L467.903 83.501C467.908 82.9951 467.983 82.528 468.129 82.0996C468.275 81.6667 468.48 81.2907 468.744 80.9717C469.008 80.6527 469.323 80.4066 469.688 80.2334C470.057 80.0557 470.465 79.9668 470.911 79.9668C471.276 79.9668 471.604 80.0169 471.896 80.1172C472.187 80.2129 472.436 80.3678 472.641 80.582C472.85 80.7962 473.01 81.0742 473.119 81.416C473.229 81.7533 473.283 82.1657 473.283 82.6533V87.5H472.012V82.6396C472.012 82.2523 471.955 81.9424 471.841 81.71C471.727 81.473 471.561 81.3021 471.342 81.1973C471.123 81.0879 470.854 81.0332 470.535 81.0332C470.221 81.0332 469.934 81.0993 469.674 81.2314C469.419 81.3636 469.198 81.5459 469.011 81.7783C468.828 82.0107 468.685 82.2773 468.58 82.5781C468.48 82.8743 468.43 83.1888 468.43 83.5215ZM478.273 80.1035V81.0742H474.274V80.1035H478.273ZM475.628 78.3057H476.893V85.668C476.893 85.9186 476.931 86.1077 477.009 86.2354C477.086 86.363 477.187 86.4473 477.31 86.4883C477.433 86.5293 477.565 86.5498 477.706 86.5498C477.811 86.5498 477.92 86.5407 478.034 86.5225C478.153 86.4997 478.242 86.4814 478.301 86.4678L478.308 87.5C478.207 87.5319 478.075 87.5615 477.911 87.5889C477.752 87.6208 477.558 87.6367 477.33 87.6367C477.02 87.6367 476.735 87.5752 476.476 87.4521C476.216 87.3291 476.008 87.124 475.854 86.8369C475.703 86.5452 475.628 86.1533 475.628 85.6611V78.3057ZM482.854 80.1035V81.0742H478.854V80.1035H482.854ZM480.208 78.3057H481.473V85.668C481.473 85.9186 481.511 86.1077 481.589 86.2354C481.666 86.363 481.767 86.4473 481.89 86.4883C482.013 86.5293 482.145 86.5498 482.286 86.5498C482.391 86.5498 482.5 86.5407 482.614 86.5225C482.733 86.4997 482.822 86.4814 482.881 86.4678L482.888 87.5C482.787 87.5319 482.655 87.5615 482.491 87.5889C482.332 87.6208 482.138 87.6367 481.91 87.6367C481.6 87.6367 481.315 87.5752 481.056 87.4521C480.796 87.3291 480.589 87.124 480.434 86.8369C480.283 86.5452 480.208 86.1533 480.208 85.6611V78.3057ZM485.602 81.5254V90.3438H484.33V80.1035H485.492L485.602 81.5254ZM490.585 83.7402V83.8838C490.585 84.4215 490.521 84.9206 490.394 85.3809C490.266 85.8366 490.079 86.2331 489.833 86.5703C489.591 86.9076 489.293 87.1696 488.938 87.3564C488.582 87.5433 488.174 87.6367 487.714 87.6367C487.244 87.6367 486.83 87.5592 486.47 87.4043C486.11 87.2493 485.804 87.0238 485.554 86.7275C485.303 86.4313 485.103 86.0758 484.952 85.6611C484.806 85.2464 484.706 84.7793 484.651 84.2598V83.4941C484.706 82.9473 484.809 82.4574 484.959 82.0244C485.109 81.5915 485.308 81.2223 485.554 80.917C485.804 80.6071 486.107 80.3724 486.463 80.2129C486.818 80.0488 487.229 79.9668 487.693 79.9668C488.158 79.9668 488.571 80.0579 488.931 80.2402C489.291 80.418 489.594 80.6732 489.84 81.0059C490.086 81.3385 490.271 81.7373 490.394 82.2021C490.521 82.6624 490.585 83.1751 490.585 83.7402ZM489.313 83.8838V83.7402C489.313 83.3711 489.275 83.0247 489.197 82.7012C489.12 82.373 488.999 82.0859 488.835 81.8398C488.675 81.5892 488.47 81.3932 488.22 81.252C487.969 81.1061 487.671 81.0332 487.324 81.0332C487.005 81.0332 486.727 81.0879 486.49 81.1973C486.258 81.3066 486.06 81.4548 485.896 81.6416C485.731 81.8239 485.597 82.0335 485.492 82.2705C485.392 82.5029 485.317 82.7445 485.267 82.9951V84.7656C485.358 85.0846 485.485 85.3854 485.649 85.668C485.813 85.946 486.032 86.1715 486.306 86.3447C486.579 86.5133 486.923 86.5977 487.338 86.5977C487.68 86.5977 487.974 86.527 488.22 86.3857C488.47 86.2399 488.675 86.0417 488.835 85.791C488.999 85.5404 489.12 85.2533 489.197 84.9297C489.275 84.6016 489.313 84.2529 489.313 83.8838ZM496.505 85.5381C496.505 85.3558 496.464 85.1872 496.382 85.0322C496.304 84.8727 496.143 84.7292 495.896 84.6016C495.655 84.4694 495.29 84.3555 494.803 84.2598C494.393 84.1732 494.021 84.0706 493.688 83.9521C493.36 83.8337 493.08 83.6901 492.848 83.5215C492.62 83.3529 492.444 83.1546 492.321 82.9268C492.198 82.6989 492.137 82.4323 492.137 82.127C492.137 81.8353 492.201 81.5596 492.328 81.2998C492.46 81.04 492.645 80.8099 492.882 80.6094C493.123 80.4089 493.413 80.2516 493.75 80.1377C494.087 80.0238 494.463 79.9668 494.878 79.9668C495.47 79.9668 495.976 80.0716 496.396 80.2812C496.815 80.4909 497.136 80.7712 497.359 81.1221C497.583 81.4684 497.694 81.8535 497.694 82.2773H496.43C496.43 82.0723 496.368 81.874 496.245 81.6826C496.127 81.4867 495.951 81.3249 495.719 81.1973C495.491 81.0697 495.211 81.0059 494.878 81.0059C494.527 81.0059 494.242 81.0605 494.023 81.1699C493.809 81.2747 493.652 81.4092 493.552 81.5732C493.456 81.7373 493.408 81.9105 493.408 82.0928C493.408 82.2295 493.431 82.3525 493.477 82.4619C493.527 82.5667 493.613 82.6647 493.736 82.7559C493.859 82.8424 494.033 82.9245 494.256 83.002C494.479 83.0794 494.764 83.1569 495.11 83.2344C495.716 83.3711 496.215 83.5352 496.607 83.7266C496.999 83.918 497.291 84.1527 497.482 84.4307C497.674 84.7087 497.77 85.0459 497.77 85.4424C497.77 85.766 497.701 86.0622 497.564 86.3311C497.432 86.5999 497.239 86.8324 496.983 87.0283C496.733 87.2197 496.432 87.3701 496.081 87.4795C495.735 87.5843 495.345 87.6367 494.912 87.6367C494.26 87.6367 493.709 87.5205 493.258 87.2881C492.807 87.0557 492.465 86.7549 492.232 86.3857C492 86.0166 491.884 85.627 491.884 85.2168H493.155C493.174 85.5632 493.274 85.8389 493.456 86.0439C493.638 86.2445 493.862 86.388 494.126 86.4746C494.39 86.5566 494.652 86.5977 494.912 86.5977C495.258 86.5977 495.548 86.5521 495.78 86.4609C496.017 86.3698 496.197 86.2445 496.32 86.085C496.443 85.9255 496.505 85.7432 496.505 85.5381ZM499.376 86.8301C499.376 86.6159 499.442 86.4359 499.574 86.29C499.711 86.1396 499.907 86.0645 500.162 86.0645C500.417 86.0645 500.611 86.1396 500.743 86.29C500.88 86.4359 500.948 86.6159 500.948 86.8301C500.948 87.0397 500.88 87.2174 500.743 87.3633C500.611 87.5091 500.417 87.582 500.162 87.582C499.907 87.582 499.711 87.5091 499.574 87.3633C499.442 87.2174 499.376 87.0397 499.376 86.8301ZM499.383 80.7939C499.383 80.5798 499.449 80.3997 499.581 80.2539C499.718 80.1035 499.914 80.0283 500.169 80.0283C500.424 80.0283 500.618 80.1035 500.75 80.2539C500.887 80.3997 500.955 80.5798 500.955 80.7939C500.955 81.0036 500.887 81.1813 500.75 81.3271C500.618 81.473 500.424 81.5459 500.169 81.5459C499.914 81.5459 499.718 81.473 499.581 81.3271C499.449 81.1813 499.383 81.0036 499.383 80.7939ZM507.224 77.5469L503.074 88.3545H501.987L506.144 77.5469H507.224ZM511.476 77.5469L507.326 88.3545H506.239L510.396 77.5469H511.476ZM514.114 81.5732V87.5H512.843V80.1035H514.046L514.114 81.5732ZM513.854 83.5215L513.267 83.501C513.271 82.9951 513.337 82.528 513.465 82.0996C513.592 81.6667 513.782 81.2907 514.032 80.9717C514.283 80.6527 514.595 80.4066 514.969 80.2334C515.342 80.0557 515.775 79.9668 516.268 79.9668C516.614 79.9668 516.933 80.0169 517.225 80.1172C517.516 80.2129 517.769 80.3656 517.983 80.5752C518.198 80.7848 518.364 81.0537 518.482 81.3818C518.601 81.71 518.66 82.1064 518.66 82.5713V87.5H517.396V82.6328C517.396 82.2454 517.329 81.9355 517.197 81.7031C517.07 81.4707 516.887 81.3021 516.65 81.1973C516.413 81.0879 516.135 81.0332 515.816 81.0332C515.443 81.0332 515.131 81.0993 514.88 81.2314C514.629 81.3636 514.429 81.5459 514.278 81.7783C514.128 82.0107 514.019 82.2773 513.95 82.5781C513.886 82.8743 513.854 83.1888 513.854 83.5215ZM518.646 82.8242L517.799 83.084C517.803 82.6784 517.869 82.2887 517.997 81.915C518.129 81.5413 518.318 81.2087 518.564 80.917C518.815 80.6253 519.123 80.3952 519.487 80.2266C519.852 80.0534 520.269 79.9668 520.738 79.9668C521.135 79.9668 521.486 80.0192 521.791 80.124C522.101 80.2288 522.361 80.3906 522.57 80.6094C522.785 80.8236 522.946 81.0993 523.056 81.4365C523.165 81.7738 523.22 82.1748 523.22 82.6396V87.5H521.948V82.626C521.948 82.2113 521.882 81.89 521.75 81.6621C521.622 81.4297 521.44 81.2679 521.203 81.1768C520.971 81.0811 520.693 81.0332 520.369 81.0332C520.091 81.0332 519.845 81.0811 519.631 81.1768C519.417 81.2725 519.237 81.4046 519.091 81.5732C518.945 81.7373 518.833 81.9264 518.756 82.1406C518.683 82.3548 518.646 82.5827 518.646 82.8242ZM529.495 86.2354V82.4277C529.495 82.1361 529.436 81.8831 529.317 81.6689C529.203 81.4502 529.03 81.2816 528.798 81.1631C528.565 81.0446 528.278 80.9854 527.937 80.9854C527.618 80.9854 527.337 81.04 527.096 81.1494C526.859 81.2588 526.672 81.4023 526.535 81.5801C526.403 81.7578 526.337 81.9492 526.337 82.1543H525.072C525.072 81.89 525.141 81.6279 525.277 81.3682C525.414 81.1084 525.61 80.8737 525.865 80.6641C526.125 80.4499 526.435 80.2812 526.795 80.1582C527.16 80.0306 527.565 79.9668 528.012 79.9668C528.549 79.9668 529.023 80.0579 529.434 80.2402C529.848 80.4225 530.172 80.6982 530.404 81.0674C530.641 81.432 530.76 81.89 530.76 82.4414V85.8867C530.76 86.1328 530.78 86.3949 530.821 86.6729C530.867 86.9508 530.933 87.1901 531.02 87.3906V87.5H529.7C529.636 87.3542 529.586 87.1605 529.55 86.9189C529.513 86.6729 529.495 86.445 529.495 86.2354ZM529.714 83.0156L529.728 83.9043H528.449C528.089 83.9043 527.768 83.9339 527.485 83.9932C527.203 84.0479 526.966 84.1322 526.774 84.2461C526.583 84.36 526.437 84.5036 526.337 84.6768C526.237 84.8454 526.187 85.0436 526.187 85.2715C526.187 85.5039 526.239 85.7158 526.344 85.9072C526.449 86.0986 526.606 86.2513 526.815 86.3652C527.03 86.4746 527.292 86.5293 527.602 86.5293C527.989 86.5293 528.331 86.4473 528.627 86.2832C528.923 86.1191 529.158 85.9186 529.331 85.6816C529.509 85.4447 529.604 85.2145 529.618 84.9912L530.158 85.5996C530.126 85.791 530.04 86.0029 529.898 86.2354C529.757 86.4678 529.568 86.6911 529.331 86.9053C529.099 87.1149 528.821 87.2904 528.497 87.4316C528.178 87.5684 527.818 87.6367 527.417 87.6367C526.916 87.6367 526.476 87.5387 526.098 87.3428C525.724 87.1468 525.432 86.8848 525.223 86.5566C525.018 86.224 524.915 85.8525 524.915 85.4424C524.915 85.0459 524.993 84.6973 525.147 84.3965C525.302 84.0911 525.526 83.8382 525.817 83.6377C526.109 83.4326 526.46 83.2777 526.87 83.1729C527.28 83.068 527.738 83.0156 528.244 83.0156H529.714ZM532.783 80.1035H534.055V88.3818C534.055 88.833 533.982 89.2158 533.836 89.5303C533.695 89.8447 533.48 90.0817 533.193 90.2412C532.911 90.4053 532.553 90.4873 532.12 90.4873C532.006 90.4873 531.874 90.4759 531.724 90.4531C531.569 90.4303 531.439 90.403 531.334 90.3711L531.341 89.3525C531.427 89.3708 531.525 89.3844 531.635 89.3936C531.744 89.4072 531.84 89.4141 531.922 89.4141C532.109 89.4141 532.266 89.3799 532.394 89.3115C532.521 89.2432 532.617 89.1338 532.681 88.9834C532.749 88.833 532.783 88.6325 532.783 88.3818V80.1035ZM532.653 78.1416C532.653 77.9365 532.717 77.7633 532.845 77.6221C532.972 77.4808 533.157 77.4102 533.398 77.4102C533.645 77.4102 533.831 77.4808 533.959 77.6221C534.087 77.7633 534.15 77.9365 534.15 78.1416C534.15 78.3376 534.087 78.5062 533.959 78.6475C533.831 78.7842 533.645 78.8525 533.398 78.8525C533.157 78.8525 532.972 78.7842 532.845 78.6475C532.717 78.5062 532.653 78.3376 532.653 78.1416ZM540.761 86.0645V77H542.032V87.5H540.87L540.761 86.0645ZM535.784 83.8838V83.7402C535.784 83.1751 535.853 82.6624 535.989 82.2021C536.131 81.7373 536.329 81.3385 536.584 81.0059C536.844 80.6732 537.151 80.418 537.507 80.2402C537.867 80.0579 538.268 79.9668 538.71 79.9668C539.175 79.9668 539.58 80.0488 539.927 80.2129C540.278 80.3724 540.574 80.6071 540.815 80.917C541.062 81.2223 541.255 81.5915 541.396 82.0244C541.538 82.4574 541.636 82.9473 541.69 83.4941V84.123C541.64 84.6654 541.542 85.153 541.396 85.5859C541.255 86.0189 541.062 86.388 540.815 86.6934C540.574 86.9987 540.278 87.2334 539.927 87.3975C539.576 87.557 539.166 87.6367 538.696 87.6367C538.263 87.6367 537.867 87.5433 537.507 87.3564C537.151 87.1696 536.844 86.9076 536.584 86.5703C536.329 86.2331 536.131 85.8366 535.989 85.3809C535.853 84.9206 535.784 84.4215 535.784 83.8838ZM537.056 83.7402V83.8838C537.056 84.2529 537.092 84.5993 537.165 84.9229C537.243 85.2464 537.361 85.5312 537.521 85.7773C537.68 86.0234 537.883 86.2171 538.129 86.3584C538.375 86.4951 538.669 86.5635 539.011 86.5635C539.43 86.5635 539.774 86.4746 540.043 86.2969C540.316 86.1191 540.535 85.8844 540.699 85.5928C540.863 85.3011 540.991 84.9844 541.082 84.6426V82.9951C541.027 82.7445 540.948 82.5029 540.843 82.2705C540.743 82.0335 540.61 81.8239 540.446 81.6416C540.287 81.4548 540.089 81.3066 539.852 81.1973C539.619 81.0879 539.343 81.0332 539.024 81.0332C538.678 81.0332 538.38 81.1061 538.129 81.252C537.883 81.3932 537.68 81.5892 537.521 81.8398C537.361 82.0859 537.243 82.373 537.165 82.7012C537.092 83.0247 537.056 83.3711 537.056 83.7402ZM543.994 77H545.266V86.0645L545.156 87.5H543.994V77ZM550.263 83.7402V83.8838C550.263 84.4215 550.199 84.9206 550.071 85.3809C549.944 85.8366 549.757 86.2331 549.511 86.5703C549.265 86.9076 548.964 87.1696 548.608 87.3564C548.253 87.5433 547.845 87.6367 547.385 87.6367C546.915 87.6367 546.503 87.557 546.147 87.3975C545.797 87.2334 545.5 86.9987 545.259 86.6934C545.017 86.388 544.824 86.0189 544.678 85.5859C544.536 85.153 544.438 84.6654 544.384 84.123V83.4941C544.438 82.9473 544.536 82.4574 544.678 82.0244C544.824 81.5915 545.017 81.2223 545.259 80.917C545.5 80.6071 545.797 80.3724 546.147 80.2129C546.498 80.0488 546.906 79.9668 547.371 79.9668C547.836 79.9668 548.248 80.0579 548.608 80.2402C548.968 80.418 549.269 80.6732 549.511 81.0059C549.757 81.3385 549.944 81.7373 550.071 82.2021C550.199 82.6624 550.263 83.1751 550.263 83.7402ZM548.991 83.8838V83.7402C548.991 83.3711 548.957 83.0247 548.889 82.7012C548.82 82.373 548.711 82.0859 548.561 81.8398C548.41 81.5892 548.212 81.3932 547.966 81.252C547.72 81.1061 547.417 81.0332 547.057 81.0332C546.738 81.0332 546.46 81.0879 546.223 81.1973C545.99 81.3066 545.792 81.4548 545.628 81.6416C545.464 81.8239 545.329 82.0335 545.225 82.2705C545.124 82.5029 545.049 82.7445 544.999 82.9951V84.6426C545.072 84.9616 545.19 85.2692 545.354 85.5654C545.523 85.8571 545.746 86.0964 546.024 86.2832C546.307 86.4701 546.656 86.5635 547.07 86.5635C547.412 86.5635 547.704 86.4951 547.945 86.3584C548.191 86.2171 548.39 86.0234 548.54 85.7773C548.695 85.5312 548.809 85.2464 548.882 84.9229C548.955 84.5993 548.991 84.2529 548.991 83.8838ZM556.224 86.2354V82.4277C556.224 82.1361 556.164 81.8831 556.046 81.6689C555.932 81.4502 555.759 81.2816 555.526 81.1631C555.294 81.0446 555.007 80.9854 554.665 80.9854C554.346 80.9854 554.066 81.04 553.824 81.1494C553.587 81.2588 553.4 81.4023 553.264 81.5801C553.132 81.7578 553.065 81.9492 553.065 82.1543H551.801C551.801 81.89 551.869 81.6279 552.006 81.3682C552.143 81.1084 552.339 80.8737 552.594 80.6641C552.854 80.4499 553.163 80.2812 553.523 80.1582C553.888 80.0306 554.294 79.9668 554.74 79.9668C555.278 79.9668 555.752 80.0579 556.162 80.2402C556.577 80.4225 556.9 80.6982 557.133 81.0674C557.37 81.432 557.488 81.89 557.488 82.4414V85.8867C557.488 86.1328 557.509 86.3949 557.55 86.6729C557.595 86.9508 557.661 87.1901 557.748 87.3906V87.5H556.429C556.365 87.3542 556.315 87.1605 556.278 86.9189C556.242 86.6729 556.224 86.445 556.224 86.2354ZM556.442 83.0156L556.456 83.9043H555.178C554.818 83.9043 554.496 83.9339 554.214 83.9932C553.931 84.0479 553.694 84.1322 553.503 84.2461C553.312 84.36 553.166 84.5036 553.065 84.6768C552.965 84.8454 552.915 85.0436 552.915 85.2715C552.915 85.5039 552.967 85.7158 553.072 85.9072C553.177 86.0986 553.334 86.2513 553.544 86.3652C553.758 86.4746 554.02 86.5293 554.33 86.5293C554.717 86.5293 555.059 86.4473 555.355 86.2832C555.652 86.1191 555.886 85.9186 556.06 85.6816C556.237 85.4447 556.333 85.2145 556.347 84.9912L556.887 85.5996C556.855 85.791 556.768 86.0029 556.627 86.2354C556.486 86.4678 556.297 86.6911 556.06 86.9053C555.827 87.1149 555.549 87.2904 555.226 87.4316C554.907 87.5684 554.547 87.6367 554.146 87.6367C553.644 87.6367 553.204 87.5387 552.826 87.3428C552.452 87.1468 552.161 86.8848 551.951 86.5566C551.746 86.224 551.644 85.8525 551.644 85.4424C551.644 85.0459 551.721 84.6973 551.876 84.3965C552.031 84.0911 552.254 83.8382 552.546 83.6377C552.838 83.4326 553.188 83.2777 553.599 83.1729C554.009 83.068 554.467 83.0156 554.973 83.0156H556.442ZM560.742 81.2656V87.5H559.478V80.1035H560.708L560.742 81.2656ZM563.053 80.0625L563.046 81.2383C562.941 81.2155 562.841 81.2018 562.745 81.1973C562.654 81.1882 562.549 81.1836 562.431 81.1836C562.139 81.1836 561.882 81.2292 561.658 81.3203C561.435 81.4115 561.246 81.5391 561.091 81.7031C560.936 81.8672 560.813 82.0632 560.722 82.291C560.635 82.5143 560.578 82.7604 560.551 83.0293L560.195 83.2344C560.195 82.7878 560.239 82.3685 560.325 81.9766C560.416 81.5846 560.555 81.2383 560.742 80.9375C560.929 80.6322 561.166 80.3952 561.453 80.2266C561.745 80.0534 562.091 79.9668 562.492 79.9668C562.583 79.9668 562.688 79.9782 562.807 80.001C562.925 80.0192 563.007 80.0397 563.053 80.0625ZM568.31 86.2354V82.4277C568.31 82.1361 568.25 81.8831 568.132 81.6689C568.018 81.4502 567.845 81.2816 567.612 81.1631C567.38 81.0446 567.093 80.9854 566.751 80.9854C566.432 80.9854 566.152 81.04 565.91 81.1494C565.673 81.2588 565.486 81.4023 565.35 81.5801C565.217 81.7578 565.151 81.9492 565.151 82.1543H563.887C563.887 81.89 563.955 81.6279 564.092 81.3682C564.229 81.1084 564.424 80.8737 564.68 80.6641C564.939 80.4499 565.249 80.2812 565.609 80.1582C565.974 80.0306 566.38 79.9668 566.826 79.9668C567.364 79.9668 567.838 80.0579 568.248 80.2402C568.663 80.4225 568.986 80.6982 569.219 81.0674C569.456 81.432 569.574 81.89 569.574 82.4414V85.8867C569.574 86.1328 569.595 86.3949 569.636 86.6729C569.681 86.9508 569.747 87.1901 569.834 87.3906V87.5H568.515C568.451 87.3542 568.401 87.1605 568.364 86.9189C568.328 86.6729 568.31 86.445 568.31 86.2354ZM568.528 83.0156L568.542 83.9043H567.264C566.904 83.9043 566.582 83.9339 566.3 83.9932C566.017 84.0479 565.78 84.1322 565.589 84.2461C565.397 84.36 565.252 84.5036 565.151 84.6768C565.051 84.8454 565.001 85.0436 565.001 85.2715C565.001 85.5039 565.053 85.7158 565.158 85.9072C565.263 86.0986 565.42 86.2513 565.63 86.3652C565.844 86.4746 566.106 86.5293 566.416 86.5293C566.803 86.5293 567.145 86.4473 567.441 86.2832C567.738 86.1191 567.972 85.9186 568.146 85.6816C568.323 85.4447 568.419 85.2145 568.433 84.9912L568.973 85.5996C568.941 85.791 568.854 86.0029 568.713 86.2354C568.572 86.4678 568.382 86.6911 568.146 86.9053C567.913 87.1149 567.635 87.2904 567.312 87.4316C566.993 87.5684 566.632 87.6367 566.231 87.6367C565.73 87.6367 565.29 87.5387 564.912 87.3428C564.538 87.1468 564.247 86.8848 564.037 86.5566C563.832 86.224 563.729 85.8525 563.729 85.4424C563.729 85.0459 563.807 84.6973 563.962 84.3965C564.117 84.0911 564.34 83.8382 564.632 83.6377C564.924 83.4326 565.274 83.2777 565.685 83.1729C566.095 83.068 566.553 83.0156 567.059 83.0156H568.528ZM572.835 77V87.5H571.563V77H572.835ZM577.354 80.1035L574.127 83.5557L572.322 85.4287L572.22 84.082L573.512 82.5371L575.809 80.1035H577.354ZM576.198 87.5L573.56 83.9727L574.216 82.8447L577.688 87.5H576.198ZM583.021 86.2354V82.4277C583.021 82.1361 582.961 81.8831 582.843 81.6689C582.729 81.4502 582.556 81.2816 582.323 81.1631C582.091 81.0446 581.804 80.9854 581.462 80.9854C581.143 80.9854 580.863 81.04 580.621 81.1494C580.384 81.2588 580.197 81.4023 580.061 81.5801C579.928 81.7578 579.862 81.9492 579.862 82.1543H578.598C578.598 81.89 578.666 81.6279 578.803 81.3682C578.939 81.1084 579.135 80.8737 579.391 80.6641C579.65 80.4499 579.96 80.2812 580.32 80.1582C580.685 80.0306 581.09 79.9668 581.537 79.9668C582.075 79.9668 582.549 80.0579 582.959 80.2402C583.374 80.4225 583.697 80.6982 583.93 81.0674C584.167 81.432 584.285 81.89 584.285 82.4414V85.8867C584.285 86.1328 584.306 86.3949 584.347 86.6729C584.392 86.9508 584.458 87.1901 584.545 87.3906V87.5H583.226C583.162 87.3542 583.112 87.1605 583.075 86.9189C583.039 86.6729 583.021 86.445 583.021 86.2354ZM583.239 83.0156L583.253 83.9043H581.975C581.615 83.9043 581.293 83.9339 581.011 83.9932C580.728 84.0479 580.491 84.1322 580.3 84.2461C580.108 84.36 579.963 84.5036 579.862 84.6768C579.762 84.8454 579.712 85.0436 579.712 85.2715C579.712 85.5039 579.764 85.7158 579.869 85.9072C579.974 86.0986 580.131 86.2513 580.341 86.3652C580.555 86.4746 580.817 86.5293 581.127 86.5293C581.514 86.5293 581.856 86.4473 582.152 86.2832C582.449 86.1191 582.683 85.9186 582.856 85.6816C583.034 85.4447 583.13 85.2145 583.144 84.9912L583.684 85.5996C583.652 85.791 583.565 86.0029 583.424 86.2354C583.283 86.4678 583.093 86.6911 582.856 86.9053C582.624 87.1149 582.346 87.2904 582.022 87.4316C581.703 87.5684 581.343 87.6367 580.942 87.6367C580.441 87.6367 580.001 87.5387 579.623 87.3428C579.249 87.1468 578.958 86.8848 578.748 86.5566C578.543 86.224 578.44 85.8525 578.44 85.4424C578.44 85.0459 578.518 84.6973 578.673 84.3965C578.828 84.0911 579.051 83.8382 579.343 83.6377C579.634 83.4326 579.985 83.2777 580.396 83.1729C580.806 83.068 581.264 83.0156 581.77 83.0156H583.239ZM589.371 80.1035V81.0742H585.372V80.1035H589.371ZM586.726 78.3057H587.99V85.668C587.99 85.9186 588.029 86.1077 588.106 86.2354C588.184 86.363 588.284 86.4473 588.407 86.4883C588.53 86.5293 588.662 86.5498 588.804 86.5498C588.909 86.5498 589.018 86.5407 589.132 86.5225C589.25 86.4997 589.339 86.4814 589.398 86.4678L589.405 87.5C589.305 87.5319 589.173 87.5615 589.009 87.5889C588.849 87.6208 588.656 87.6367 588.428 87.6367C588.118 87.6367 587.833 87.5752 587.573 87.4521C587.313 87.3291 587.106 87.124 586.951 86.8369C586.801 86.5452 586.726 86.1533 586.726 85.6611V78.3057ZM590.875 86.8301C590.875 86.6159 590.941 86.4359 591.073 86.29C591.21 86.1396 591.406 86.0645 591.661 86.0645C591.916 86.0645 592.11 86.1396 592.242 86.29C592.379 86.4359 592.447 86.6159 592.447 86.8301C592.447 87.0397 592.379 87.2174 592.242 87.3633C592.11 87.5091 591.916 87.582 591.661 87.582C591.406 87.582 591.21 87.5091 591.073 87.3633C590.941 87.2174 590.875 87.0397 590.875 86.8301ZM599.208 86.0645V77H600.479V87.5H599.317L599.208 86.0645ZM594.231 83.8838V83.7402C594.231 83.1751 594.3 82.6624 594.437 82.2021C594.578 81.7373 594.776 81.3385 595.031 81.0059C595.291 80.6732 595.599 80.418 595.954 80.2402C596.314 80.0579 596.715 79.9668 597.157 79.9668C597.622 79.9668 598.028 80.0488 598.374 80.2129C598.725 80.3724 599.021 80.6071 599.263 80.917C599.509 81.2223 599.702 81.5915 599.844 82.0244C599.985 82.4574 600.083 82.9473 600.138 83.4941V84.123C600.088 84.6654 599.99 85.153 599.844 85.5859C599.702 86.0189 599.509 86.388 599.263 86.6934C599.021 86.9987 598.725 87.2334 598.374 87.3975C598.023 87.557 597.613 87.6367 597.144 87.6367C596.711 87.6367 596.314 87.5433 595.954 87.3564C595.599 87.1696 595.291 86.9076 595.031 86.5703C594.776 86.2331 594.578 85.8366 594.437 85.3809C594.3 84.9206 594.231 84.4215 594.231 83.8838ZM595.503 83.7402V83.8838C595.503 84.2529 595.539 84.5993 595.612 84.9229C595.69 85.2464 595.808 85.5312 595.968 85.7773C596.127 86.0234 596.33 86.2171 596.576 86.3584C596.822 86.4951 597.116 86.5635 597.458 86.5635C597.877 86.5635 598.221 86.4746 598.49 86.2969C598.764 86.1191 598.982 85.8844 599.146 85.5928C599.311 85.3011 599.438 84.9844 599.529 84.6426V82.9951C599.475 82.7445 599.395 82.5029 599.29 82.2705C599.19 82.0335 599.058 81.8239 598.894 81.6416C598.734 81.4548 598.536 81.3066 598.299 81.1973C598.066 81.0879 597.791 81.0332 597.472 81.0332C597.125 81.0332 596.827 81.1061 596.576 81.252C596.33 81.3932 596.127 81.5892 595.968 81.8398C595.808 82.0859 595.69 82.373 595.612 82.7012C595.539 83.0247 595.503 83.3711 595.503 83.7402ZM605.518 87.6367C605.003 87.6367 604.535 87.5501 604.116 87.377C603.701 87.1992 603.344 86.9508 603.043 86.6318C602.747 86.3128 602.519 85.9346 602.359 85.4971C602.2 85.0596 602.12 84.5811 602.12 84.0615V83.7744C602.12 83.1729 602.209 82.6374 602.387 82.168C602.564 81.694 602.806 81.293 603.111 80.9648C603.417 80.6367 603.763 80.3883 604.15 80.2197C604.538 80.0511 604.939 79.9668 605.354 79.9668C605.882 79.9668 606.338 80.0579 606.721 80.2402C607.108 80.4225 607.425 80.6777 607.671 81.0059C607.917 81.3294 608.099 81.7122 608.218 82.1543C608.336 82.5918 608.396 83.0703 608.396 83.5898V84.1572H602.872V83.125H607.131V83.0293C607.113 82.7012 607.044 82.3822 606.926 82.0723C606.812 81.7624 606.63 81.5072 606.379 81.3066C606.128 81.1061 605.786 81.0059 605.354 81.0059C605.066 81.0059 604.802 81.0674 604.561 81.1904C604.319 81.3089 604.112 81.4867 603.938 81.7236C603.765 81.9606 603.631 82.25 603.535 82.5918C603.439 82.9336 603.392 83.3278 603.392 83.7744V84.0615C603.392 84.4124 603.439 84.7428 603.535 85.0527C603.635 85.3581 603.779 85.627 603.966 85.8594C604.157 86.0918 604.387 86.2741 604.656 86.4062C604.93 86.5384 605.24 86.6045 605.586 86.6045C606.033 86.6045 606.411 86.5133 606.721 86.3311C607.031 86.1488 607.302 85.9049 607.534 85.5996L608.3 86.208C608.14 86.4495 607.938 86.6797 607.691 86.8984C607.445 87.1172 607.142 87.2949 606.782 87.4316C606.427 87.5684 606.005 87.6367 605.518 87.6367ZM612.025 86.3584L614.049 80.1035H615.341L612.682 87.5H611.834L612.025 86.3584ZM610.337 80.1035L612.422 86.3926L612.565 87.5H611.718L609.038 80.1035H610.337Z" fill="white"/>
<path d="M699.878 80.7324C700.048 80.7324 700.183 80.6797 700.288 80.5684L702.69 78.1484C702.819 78.0195 702.878 77.8789 702.878 77.7148C702.878 77.5566 702.813 77.4043 702.69 77.2871L700.288 74.8438C700.183 74.7266 700.048 74.668 699.878 74.668C699.562 74.668 699.31 74.9316 699.31 75.2539C699.31 75.4121 699.368 75.541 699.468 75.6523L700.868 77.0234C700.593 76.9824 700.312 76.959 700.03 76.959C697.13 76.959 694.81 79.2793 694.81 82.1855C694.81 85.0918 697.147 87.4297 700.048 87.4297C702.954 87.4297 705.286 85.0918 705.286 82.1855C705.286 81.834 705.04 81.582 704.688 81.582C704.349 81.582 704.12 81.834 704.12 82.1855C704.12 84.4473 702.31 86.2637 700.048 86.2637C697.792 86.2637 695.976 84.4473 695.976 82.1855C695.976 79.9062 697.774 78.1016 700.03 78.1016C700.411 78.1016 700.763 78.1309 701.073 78.1836L699.474 79.7656C699.368 79.8711 699.31 80 699.31 80.1582C699.31 80.4805 699.562 80.7324 699.878 80.7324Z" fill="#E3E3E3"/>
<path d="M333.048 90C333.197 90 333.42 89.9499 333.627 89.8329C338.393 87.2182 340.048 86.0069 340.048 82.9661V76.659C340.048 75.6565 339.659 75.2973 338.832 74.9381C337.913 74.5455 334.827 73.4595 333.925 73.1504C333.652 73.0585 333.329 73 333.048 73C332.767 73 332.444 73.0752 332.171 73.1504C331.269 73.4093 328.183 74.5538 327.264 74.9381C326.437 75.2889 326.048 75.6565 326.048 76.659V82.9661C326.048 86.0069 327.711 87.2015 332.46 89.8329C332.676 89.9499 332.899 90 333.048 90ZM333.495 74.6875C334.579 75.1219 336.937 75.9656 338.178 76.4084C338.41 76.5002 338.467 76.6256 338.467 76.9263V82.657C338.467 85.1047 337.251 85.7646 333.519 88.0369C333.288 88.1789 333.172 88.229 333.056 88.229V74.5956C333.172 74.5956 333.296 74.6206 333.495 74.6875Z" fill="#B7B7B7"/>
<path d="M76 108H992V613C992 618.523 987.523 623 982 623H86C80.4771 623 76 618.523 76 613V108Z" fill="white"/>
<path d="M76 108H992V613C992 618.523 987.523 623 982 623H86C80.4771 623 76 618.523 76 613V108Z" fill="url(#paint0_linear_319_195)"/>
<path d="M305.288 295.072V303.84H293.384V340H282.44V303.84H270.536V295.072H305.288ZM332.733 303.904C336.829 303.904 340.114 305.269 342.589 308C345.063 310.688 346.301 314.4 346.301 319.136V340H335.421V320.608C335.421 318.219 334.802 316.363 333.565 315.04C332.327 313.717 330.663 313.056 328.573 313.056C326.482 313.056 324.818 313.717 323.581 315.04C322.343 316.363 321.725 318.219 321.725 320.608V340H310.781V292.64H321.725V309.088C322.834 307.509 324.349 306.251 326.269 305.312C328.189 304.373 330.343 303.904 332.733 303.904ZM364.85 310.24C366.13 308.277 367.73 306.741 369.65 305.632C371.57 304.48 373.703 303.904 376.05 303.904V315.488H373.042C370.311 315.488 368.263 316.085 366.898 317.28C365.532 318.432 364.85 320.48 364.85 323.424V340H353.906V304.288H364.85V310.24ZM414.944 321.568C414.944 322.592 414.881 323.659 414.753 324.768H389.985C390.155 326.987 390.859 328.693 392.097 329.888C393.377 331.04 394.934 331.616 396.769 331.616C399.499 331.616 401.398 330.464 402.465 328.16H414.113C413.515 330.507 412.427 332.619 410.849 334.496C409.313 336.373 407.371 337.845 405.025 338.912C402.678 339.979 400.054 340.512 397.153 340.512C393.654 340.512 390.539 339.765 387.809 338.272C385.078 336.779 382.945 334.645 381.409 331.872C379.873 329.099 379.105 325.856 379.105 322.144C379.105 318.432 379.851 315.189 381.345 312.416C382.881 309.643 385.014 307.509 387.745 306.016C390.475 304.523 393.611 303.776 397.153 303.776C400.609 303.776 403.681 304.501 406.369 305.952C409.057 307.403 411.147 309.472 412.641 312.16C414.177 314.848 414.944 317.984 414.944 321.568ZM403.745 318.688C403.745 316.811 403.105 315.317 401.825 314.208C400.545 313.099 398.945 312.544 397.025 312.544C395.19 312.544 393.633 313.077 392.353 314.144C391.115 315.211 390.347 316.725 390.049 318.688H403.745ZM454.382 321.568C454.382 322.592 454.318 323.659 454.19 324.768H429.422C429.593 326.987 430.297 328.693 431.534 329.888C432.814 331.04 434.371 331.616 436.206 331.616C438.937 331.616 440.835 330.464 441.902 328.16H453.55C452.953 330.507 451.865 332.619 450.286 334.496C448.75 336.373 446.809 337.845 444.462 338.912C442.115 339.979 439.491 340.512 436.59 340.512C433.091 340.512 429.977 339.765 427.246 338.272C424.515 336.779 422.382 334.645 420.846 331.872C419.31 329.099 418.542 325.856 418.542 322.144C418.542 318.432 419.289 315.189 420.782 312.416C422.318 309.643 424.451 307.509 427.182 306.016C429.913 304.523 433.049 303.776 436.59 303.776C440.046 303.776 443.118 304.501 445.806 305.952C448.494 307.403 450.585 309.472 452.078 312.16C453.614 314.848 454.382 317.984 454.382 321.568ZM443.182 318.688C443.182 316.811 442.542 315.317 441.262 314.208C439.982 313.099 438.382 312.544 436.462 312.544C434.627 312.544 433.07 313.077 431.79 314.144C430.553 315.211 429.785 316.725 429.486 318.688H443.182ZM465.276 340.512C463.356 340.512 461.777 339.957 460.54 338.848C459.345 337.696 458.748 336.288 458.748 334.624C458.748 332.917 459.345 331.488 460.54 330.336C461.777 329.184 463.356 328.608 465.276 328.608C467.153 328.608 468.689 329.184 469.884 330.336C471.121 331.488 471.74 332.917 471.74 334.624C471.74 336.288 471.121 337.696 469.884 338.848C468.689 339.957 467.153 340.512 465.276 340.512ZM483.658 300.576C481.738 300.576 480.159 300.021 478.922 298.912C477.727 297.76 477.13 296.352 477.13 294.688C477.13 292.981 477.727 291.573 478.922 290.464C480.159 289.312 481.738 288.736 483.658 288.736C485.535 288.736 487.071 289.312 488.266 290.464C489.503 291.573 490.122 292.981 490.122 294.688C490.122 296.352 489.503 297.76 488.266 298.912C487.071 300.021 485.535 300.576 483.658 300.576ZM489.162 344.608C489.162 349.003 488.053 352.16 485.834 354.08C483.615 356.043 480.522 357.024 476.554 357.024H472.266V347.744H474.89C476.085 347.744 476.938 347.509 477.45 347.04C477.962 346.571 478.218 345.803 478.218 344.736V304.288H489.162V344.608ZM511.559 340.512C508.444 340.512 505.671 339.979 503.239 338.912C500.807 337.845 498.887 336.395 497.479 334.56C496.071 332.683 495.281 330.592 495.111 328.288H505.927C506.055 329.525 506.631 330.528 507.655 331.296C508.679 332.064 509.937 332.448 511.431 332.448C512.796 332.448 513.841 332.192 514.567 331.68C515.335 331.125 515.719 330.421 515.719 329.568C515.719 328.544 515.185 327.797 514.119 327.328C513.052 326.816 511.324 326.261 508.935 325.664C506.375 325.067 504.241 324.448 502.535 323.808C500.828 323.125 499.356 322.08 498.119 320.672C496.881 319.221 496.263 317.28 496.263 314.848C496.263 312.8 496.817 310.944 497.927 309.28C499.079 307.573 500.743 306.229 502.919 305.248C505.137 304.267 507.761 303.776 510.791 303.776C515.271 303.776 518.791 304.885 521.351 307.104C523.953 309.323 525.447 312.267 525.831 315.936H515.719C515.548 314.699 514.993 313.717 514.055 312.992C513.159 312.267 511.964 311.904 510.471 311.904C509.191 311.904 508.209 312.16 507.527 312.672C506.844 313.141 506.503 313.803 506.503 314.656C506.503 315.68 507.036 316.448 508.103 316.96C509.212 317.472 510.919 317.984 513.223 318.496C515.868 319.179 518.023 319.861 519.687 320.544C521.351 321.184 522.801 322.251 524.039 323.744C525.319 325.195 525.98 327.157 526.023 329.632C526.023 331.723 525.425 333.6 524.231 335.264C523.079 336.885 521.393 338.165 519.175 339.104C516.999 340.043 514.46 340.512 511.559 340.512ZM578.729 322.528H567.593V333.92H557.225V322.528H546.089V312.736H557.225V301.28H567.593V312.736H578.729V322.528ZM622.943 340L613.599 323.04H610.975V340H600.031V295.072H618.399C621.94 295.072 624.948 295.691 627.423 296.928C629.94 298.165 631.817 299.872 633.055 302.048C634.292 304.181 634.911 306.571 634.911 309.216C634.911 312.203 634.057 314.869 632.351 317.216C630.687 319.563 628.212 321.227 624.927 322.208L635.295 340H622.943ZM610.975 315.296H617.759C619.764 315.296 621.257 314.805 622.239 313.824C623.263 312.843 623.775 311.456 623.775 309.664C623.775 307.957 623.263 306.613 622.239 305.632C621.257 304.651 619.764 304.16 617.759 304.16H610.975V315.296ZM675.444 321.568C675.444 322.592 675.381 323.659 675.253 324.768H650.485C650.655 326.987 651.359 328.693 652.597 329.888C653.877 331.04 655.434 331.616 657.269 331.616C659.999 331.616 661.898 330.464 662.965 328.16H674.613C674.015 330.507 672.927 332.619 671.349 334.496C669.813 336.373 667.871 337.845 665.525 338.912C663.178 339.979 660.554 340.512 657.653 340.512C654.154 340.512 651.039 339.765 648.309 338.272C645.578 336.779 643.445 334.645 641.909 331.872C640.373 329.099 639.605 325.856 639.605 322.144C639.605 318.432 640.351 315.189 641.845 312.416C643.381 309.643 645.514 307.509 648.245 306.016C650.975 304.523 654.111 303.776 657.653 303.776C661.109 303.776 664.181 304.501 666.869 305.952C669.557 307.403 671.647 309.472 673.141 312.16C674.677 314.848 675.444 317.984 675.444 321.568ZM664.245 318.688C664.245 316.811 663.605 315.317 662.325 314.208C661.045 313.099 659.445 312.544 657.525 312.544C655.69 312.544 654.133 313.077 652.853 314.144C651.615 315.211 650.847 316.725 650.549 318.688H664.245ZM679.042 322.08C679.042 318.411 679.725 315.189 681.09 312.416C682.498 309.643 684.397 307.509 686.786 306.016C689.175 304.523 691.842 303.776 694.786 303.776C697.303 303.776 699.501 304.288 701.378 305.312C703.298 306.336 704.77 307.68 705.794 309.344V304.288H716.738V340H705.794V334.944C704.727 336.608 703.234 337.952 701.314 338.976C699.437 340 697.239 340.512 694.722 340.512C691.821 340.512 689.175 339.765 686.786 338.272C684.397 336.736 682.498 334.581 681.09 331.808C679.725 328.992 679.042 325.749 679.042 322.08ZM705.794 322.144C705.794 319.413 705.026 317.259 703.49 315.68C701.997 314.101 700.162 313.312 697.986 313.312C695.81 313.312 693.954 314.101 692.418 315.68C690.925 317.216 690.178 319.349 690.178 322.08C690.178 324.811 690.925 326.987 692.418 328.608C693.954 330.187 695.81 330.976 697.986 330.976C700.162 330.976 701.997 330.187 703.49 328.608C705.026 327.029 705.794 324.875 705.794 322.144ZM722.48 322.144C722.48 318.432 723.226 315.189 724.72 312.416C726.256 309.643 728.368 307.509 731.056 306.016C733.786 304.523 736.901 303.776 740.4 303.776C744.88 303.776 748.613 304.949 751.6 307.296C754.629 309.643 756.613 312.949 757.552 317.216H745.904C744.922 314.485 743.024 313.12 740.208 313.12C738.202 313.12 736.602 313.909 735.408 315.488C734.213 317.024 733.616 319.243 733.616 322.144C733.616 325.045 734.213 327.285 735.408 328.864C736.602 330.4 738.202 331.168 740.208 331.168C743.024 331.168 744.922 329.803 745.904 327.072H757.552C756.613 331.253 754.629 334.539 751.6 336.928C748.57 339.317 744.837 340.512 740.4 340.512C736.901 340.512 733.786 339.765 731.056 338.272C728.368 336.779 726.256 334.645 724.72 331.872C723.226 329.099 722.48 325.856 722.48 322.144ZM783.31 330.72V340H777.742C773.774 340 770.68 339.04 768.462 337.12C766.243 335.157 765.134 331.979 765.134 327.584V313.376H760.782V304.288H765.134V295.584H776.078V304.288H783.246V313.376H776.078V327.712C776.078 328.779 776.334 329.547 776.846 330.016C777.358 330.485 778.211 330.72 779.406 330.72H783.31ZM457.667 391.072L445.955 436H432.707L425.539 406.432L418.115 436H404.867L393.475 391.072H405.187L411.651 423.776L419.651 391.072H431.683L439.363 423.776L445.891 391.072H457.667ZM496.819 417.568C496.819 418.592 496.756 419.659 496.628 420.768H471.86C472.03 422.987 472.734 424.693 473.972 425.888C475.252 427.04 476.809 427.616 478.644 427.616C481.374 427.616 483.273 426.464 484.34 424.16H495.988C495.39 426.507 494.302 428.619 492.724 430.496C491.188 432.373 489.246 433.845 486.9 434.912C484.553 435.979 481.929 436.512 479.028 436.512C475.529 436.512 472.414 435.765 469.684 434.272C466.953 432.779 464.82 430.645 463.284 427.872C461.748 425.099 460.98 421.856 460.98 418.144C460.98 414.432 461.726 411.189 463.22 408.416C464.756 405.643 466.889 403.509 469.62 402.016C472.35 400.523 475.486 399.776 479.028 399.776C482.484 399.776 485.556 400.501 488.244 401.952C490.932 403.403 493.022 405.472 494.516 408.16C496.052 410.848 496.819 413.984 496.819 417.568ZM485.62 414.688C485.62 412.811 484.98 411.317 483.7 410.208C482.42 409.099 480.82 408.544 478.9 408.544C477.065 408.544 475.508 409.077 474.228 410.144C472.99 411.211 472.222 412.725 471.924 414.688H485.62ZM513.537 405.344C514.561 403.68 516.033 402.336 517.953 401.312C519.873 400.288 522.07 399.776 524.545 399.776C527.489 399.776 530.156 400.523 532.545 402.016C534.934 403.509 536.812 405.643 538.177 408.416C539.585 411.189 540.289 414.411 540.289 418.08C540.289 421.749 539.585 424.992 538.177 427.808C536.812 430.581 534.934 432.736 532.545 434.272C530.156 435.765 527.489 436.512 524.545 436.512C522.028 436.512 519.83 436.021 517.953 435.04C516.076 434.016 514.604 432.672 513.537 431.008V436H502.593V388.64H513.537V405.344ZM529.153 418.08C529.153 415.349 528.385 413.216 526.849 411.68C525.356 410.101 523.5 409.312 521.281 409.312C519.105 409.312 517.249 410.101 515.713 411.68C514.22 413.259 513.473 415.413 513.473 418.144C513.473 420.875 514.22 423.029 515.713 424.608C517.249 426.187 519.105 426.976 521.281 426.976C523.457 426.976 525.313 426.187 526.849 424.608C528.385 422.987 529.153 420.811 529.153 418.08ZM573.999 428.064H557.231L554.543 436H543.087L559.343 391.072H572.015L588.271 436H576.687L573.999 428.064ZM571.183 419.616L565.615 403.168L560.111 419.616H571.183ZM604.162 405.344C605.229 403.68 606.701 402.336 608.578 401.312C610.455 400.288 612.653 399.776 615.17 399.776C618.114 399.776 620.781 400.523 623.17 402.016C625.559 403.509 627.437 405.643 628.802 408.416C630.21 411.189 630.914 414.411 630.914 418.08C630.914 421.749 630.21 424.992 628.802 427.808C627.437 430.581 625.559 432.736 623.17 434.272C620.781 435.765 618.114 436.512 615.17 436.512C612.695 436.512 610.498 436 608.578 434.976C606.701 433.952 605.229 432.629 604.162 431.008V453.024H593.218V400.288H604.162V405.344ZM619.778 418.08C619.778 415.349 619.01 413.216 617.474 411.68C615.981 410.101 614.125 409.312 611.906 409.312C609.73 409.312 607.874 410.101 606.338 411.68C604.845 413.259 604.098 415.413 604.098 418.144C604.098 420.875 604.845 423.029 606.338 424.608C607.874 426.187 609.73 426.976 611.906 426.976C614.082 426.976 615.938 426.187 617.474 424.608C619.01 422.987 619.778 420.811 619.778 418.08ZM647.6 405.344C648.666 403.68 650.138 402.336 652.016 401.312C653.893 400.288 656.09 399.776 658.608 399.776C661.552 399.776 664.218 400.523 666.608 402.016C668.997 403.509 670.874 405.643 672.24 408.416C673.648 411.189 674.352 414.411 674.352 418.08C674.352 421.749 673.648 424.992 672.24 427.808C670.874 430.581 668.997 432.736 666.608 434.272C664.218 435.765 661.552 436.512 658.608 436.512C656.133 436.512 653.936 436 652.016 434.976C650.138 433.952 648.666 432.629 647.6 431.008V453.024H636.656V400.288H647.6V405.344ZM663.216 418.08C663.216 415.349 662.448 413.216 660.912 411.68C659.418 410.101 657.562 409.312 655.344 409.312C653.168 409.312 651.312 410.101 649.776 411.68C648.282 413.259 647.536 415.413 647.536 418.144C647.536 420.875 648.282 423.029 649.776 424.608C651.312 426.187 653.168 426.976 655.344 426.976C657.52 426.976 659.376 426.187 660.912 424.608C662.448 422.987 663.216 420.811 663.216 418.08Z" fill="#CECECE"/>
<rect x="75.75" y="55.75" width="916.5" height="567.5" rx="10.25" stroke="black" stroke-width="0.5"/>
</g>
<defs>
<filter id="filter0_ddd_319_195" x="0.5" y="0.5" width="1067" height="718" filterUnits="userSpaceOnUse" color-interpolation-filters="sRGB">
<feFlood flood-opacity="0" result="BackgroundImageFix"/>
<feColorMatrix in="SourceAlpha" type="matrix" values="0 0 0 0 0 0 0 0 0 0 0 0 0 0 0 0 0 0 127 0" result="hardAlpha"/>
<feMorphology radius="20" operator="erode" in="SourceAlpha" result="effect1_dropShadow_319_195"/>
<feOffset dy="30"/>
<feGaussianBlur stdDeviation="25"/>
<feColorMatrix type="matrix" values="0 0 0 0 0 0 0 0 0 0 0 0 0 0 0 0 0 0 0.25 0"/>
<feBlend mode="normal" in2="BackgroundImageFix" result="effect1_dropShadow_319_195"/>
<feColorMatrix in="SourceAlpha" type="matrix" values="0 0 0 0 0 0 0 0 0 0 0 0 0 0 0 0 0 0 127 0" result="hardAlpha"/>
<feMorphology radius="15" operator="dilate" in="SourceAlpha" result="effect2_dropShadow_319_195"/>
<feOffset dy="20"/>
<feGaussianBlur stdDeviation="30"/>
<feColorMatrix type="matrix" values="0 0 0 0 0 0 0 0 0 0 0 0 0 0 0 0 0 0 0.18 0"/>
<feBlend mode="normal" in2="effect1_dropShadow_319_195" result="effect2_dropShadow_319_195"/>
<feColorMatrix in="SourceAlpha" type="matrix" values="0 0 0 0 0 0 0 0 0 0 0 0 0 0 0 0 0 0 127 0" result="hardAlpha"/>
<feMorphology radius="5" operator="dilate" in="SourceAlpha" result="effect3_dropShadow_319_195"/>
<feOffset/>
<feGaussianBlur stdDeviation="10"/>
<feColorMatrix type="matrix" values="0 0 0 0 0 0 0 0 0 0 0 0 0 0 0 0 0 0 0.18 0"/>
<feBlend mode="normal" in2="effect2_dropShadow_319_195" result="effect3_dropShadow_319_195"/>
<feBlend mode="normal" in="SourceGraphic" in2="effect3_dropShadow_319_195" result="shape"/>
</filter>
<filter id="filter1_iii_319_195" x="76" y="56" width="916" height="52" filterUnits="userSpaceOnUse" color-interpolation-filters="sRGB">
<feFlood flood-opacity="0" result="BackgroundImageFix"/>
<feBlend mode="normal" in="SourceGraphic" in2="BackgroundImageFix" result="shape"/>
<feColorMatrix in="SourceAlpha" type="matrix" values="0 0 0 0 0 0 0 0 0 0 0 0 0 0 0 0 0 0 127 0" result="hardAlpha"/>
<feOffset dx="-0.5"/>
<feComposite in2="hardAlpha" operator="arithmetic" k2="-1" k3="1"/>
<feColorMatrix type="matrix" values="0 0 0 0 0.290196 0 0 0 0 0.290196 0 0 0 0 0.290196 0 0 0 1 0"/>
<feBlend mode="normal" in2="shape" result="effect1_innerShadow_319_195"/>
<feColorMatrix in="SourceAlpha" type="matrix" values="0 0 0 0 0 0 0 0 0 0 0 0 0 0 0 0 0 0 127 0" result="hardAlpha"/>
<feOffset dx="0.5"/>
<feComposite in2="hardAlpha" operator="arithmetic" k2="-1" k3="1"/>
<feColorMatrix type="matrix" values="0 0 0 0 0.290196 0 0 0 0 0.290196 0 0 0 0 0.290196 0 0 0 1 0"/>
<feBlend mode="normal" in2="effect1_innerShadow_319_195" result="effect2_innerShadow_319_195"/>
<feColorMatrix in="SourceAlpha" type="matrix" values="0 0 0 0 0 0 0 0 0 0 0 0 0 0 0 0 0 0 127 0" result="hardAlpha"/>
<feOffset dy="1"/>
<feComposite in2="hardAlpha" operator="arithmetic" k2="-1" k3="1"/>
<feColorMatrix type="matrix" values="0 0 0 0 0.494118 0 0 0 0 0.494118 0 0 0 0 0.494118 0 0 0 1 0"/>
<feBlend mode="normal" in2="effect2_innerShadow_319_195" result="effect3_innerShadow_319_195"/>
</filter>
<linearGradient id="paint0_linear_319_195" x1="534" y1="-563" x2="534" y2="779" gradientUnits="userSpaceOnUse">
<stop stop-color="#CACACA"/>
<stop offset="1"/>
</linearGradient>
</defs>
</svg>
