<svg width="1068" height="719" viewBox="0 0 1068 719" fill="none" xmlns="http://www.w3.org/2000/svg">
<g filter="url(#filter0_ddd_319_195)">
<g filter="url(#filter1_iii_319_195)">
<path d="M76 72C76 66.3995 76 63.5992 77.0899 61.4601C78.0487 59.5785 79.5785 58.0487 81.4601 57.0899C83.5992 56 86.3995 56 92 56H976C981.601 56 984.401 56 986.54 57.0899C988.422 58.0487 989.951 59.5785 990.91 61.4601C992 63.5992 992 66.3995 992 72V108H76V72Z" fill="#363636"/>
</g>
<path d="M892.008 83.3736C892.431 83.3736 892.779 83.0253 892.779 82.6107V74.2676L892.721 73.0402L893.227 73.6456L894.387 74.8813C894.519 75.0306 894.71 75.1052 894.901 75.1052C895.282 75.1052 895.597 74.8315 895.597 74.4417C895.597 74.2344 895.514 74.0851 895.373 73.9441L892.597 71.2654C892.398 71.0663 892.207 71 892.008 71C891.801 71 891.619 71.0663 891.42 71.2654L888.635 73.9441C888.494 74.0851 888.412 74.2344 888.412 74.4417C888.412 74.8315 888.718 75.1052 889.099 75.1052C889.29 75.1052 889.489 75.0306 889.622 74.8813L890.782 73.6456L891.296 73.0319L891.229 74.2676V82.6107C891.229 83.0253 891.577 83.3736 892.008 83.3736ZM887.227 90H896.773C898.572 90 899.5 89.0711 899.5 87.2964V79.144C899.5 77.3693 898.572 76.4404 896.773 76.4404H894.536V78.0908H896.666C897.42 78.0908 897.851 78.4889 897.851 79.285V87.1471C897.851 87.9433 897.42 88.3413 896.666 88.3413H887.334C886.572 88.3413 886.149 87.9433 886.149 87.1471V79.285C886.149 78.4889 886.572 78.0908 887.334 78.0908H889.489V76.4404H887.227C885.436 76.4404 884.5 77.361 884.5 79.144V87.2964C884.5 89.0711 885.436 90 887.227 90Z" fill="#B7B7B7"/>
<path d="M927 88C927.527 88 927.953 87.5723 927.953 87.087V81.9377H933.055C933.565 81.9377 934 81.5182 934 81C934 80.49 933.565 80.0623 933.055 80.0623H927.953V74.913C927.953 74.4195 927.527 74 927 74C926.481 74 926.047 74.4195 926.047 74.913V80.0623H920.945C920.452 80.0623 920 80.49 920 81C920 81.5182 920.452 81.9377 920.945 81.9377H926.047V87.087C926.047 87.5723 926.481 88 927 88Z" fill="#B7B7B7"/>
<path d="M957.728 86.0349H959.137V87.2868C959.137 89.0611 960.074 89.9897 961.865 89.9897H970.272C972.063 89.9897 973 89.0611 973 87.2868V78.8216C973 77.0473 972.063 76.1187 970.272 76.1187H968.863V74.875C968.863 73.1007 967.926 72.1721 966.135 72.1721H957.728C955.929 72.1721 955 73.1007 955 74.875V83.332C955 85.1145 955.929 86.0349 957.728 86.0349ZM957.836 84.3849C957.073 84.3849 956.65 83.987 956.65 83.1827V75.0243C956.65 74.22 957.073 73.8303 957.836 73.8303H966.027C966.782 73.8303 967.213 74.22 967.213 75.0243V76.1187H961.865C960.074 76.1187 959.137 77.0473 959.137 78.8216V84.3849H957.836ZM961.973 88.3315C961.21 88.3315 960.795 87.9335 960.795 87.1376V78.9708C960.795 78.1749 961.21 77.7769 961.973 77.7769H970.164C970.927 77.7769 971.35 78.1749 971.35 78.9708V87.1376C971.35 87.9335 970.927 88.3315 970.164 88.3315H961.973Z" fill="#B7B7B7"/>
<path d="M176.731 89.5142H190.934C192.735 89.5142 193.673 88.5845 193.673 86.8081V76.7061C193.673 74.9297 192.735 74 190.934 74H176.731C174.938 74 174 74.9214 174 76.7061V86.8081C174 88.5845 174.938 89.5142 176.731 89.5142ZM176.839 87.8623C176.075 87.8623 175.652 87.4639 175.652 86.6587V76.8555C175.652 76.0503 176.075 75.6519 176.839 75.6519H180.624V87.8623H176.839ZM190.826 75.6519C191.589 75.6519 192.013 76.0503 192.013 76.8555V86.6587C192.013 87.4639 191.589 87.8623 190.826 87.8623H182.193V75.6519H190.826ZM178.997 78.6899C179.296 78.6899 179.545 78.4326 179.545 78.1504C179.545 77.8682 179.296 77.6191 178.997 77.6191H177.295C176.997 77.6191 176.748 77.8682 176.748 78.1504C176.748 78.4326 176.997 78.6899 177.295 78.6899H178.997ZM178.997 80.9229C179.296 80.9229 179.545 80.6738 179.545 80.3833C179.545 80.1011 179.296 79.8521 178.997 79.8521H177.295C176.997 79.8521 176.748 80.1011 176.748 80.3833C176.748 80.6738 176.997 80.9229 177.295 80.9229H178.997ZM178.997 83.1475C179.296 83.1475 179.545 82.9067 179.545 82.6162C179.545 82.334 179.296 82.0933 178.997 82.0933H177.295C176.997 82.0933 176.748 82.334 176.748 82.6162C176.748 82.9067 176.997 83.1475 177.295 83.1475H178.997Z" fill="#B7B7B7"/>
<path d="M225.398 88.0938L219.32 82.1484C219.109 81.9375 219 81.7031 219 81.4297C219 81.1562 219.109 80.9062 219.328 80.7031L225.406 74.7656C225.578 74.5938 225.797 74.5 226.047 74.5C226.57 74.5 226.977 74.9062 226.977 75.4219C226.977 75.6719 226.875 75.9141 226.695 76.0938L221.227 81.4219L226.695 86.7656C226.875 86.9453 226.977 87.1797 226.977 87.4375C226.977 87.9531 226.57 88.3594 226.047 88.3594C225.797 88.3594 225.578 88.2656 225.398 88.0938Z" fill="#B7B7B7"/>
<path d="M255.43 88.3594C255.688 88.3594 255.898 88.2656 256.078 88.0938L262.156 82.1562C262.367 81.9375 262.477 81.7109 262.477 81.4297C262.477 81.1562 262.375 80.9141 262.156 80.7109L256.078 74.7656C255.898 74.5938 255.688 74.5 255.43 74.5C254.906 74.5 254.5 74.9062 254.5 75.4219C254.5 75.6719 254.609 75.9141 254.781 76.0938L260.258 81.4375L254.781 86.7656C254.602 86.9531 254.5 87.1797 254.5 87.4375C254.5 87.9531 254.906 88.3594 255.43 88.3594Z" fill="#5A5A5A"/>
<circle cx="102" cy="82" r="6" fill="#ED6A5E"/>
<circle cx="102" cy="82" r="5.5" stroke="black" stroke-opacity="0.1"/>
<circle cx="122" cy="82" r="6" fill="#F4BD50"/>
<circle cx="122" cy="82" r="5.5" stroke="black" stroke-opacity="0.1"/>
<circle cx="142" cy="82" r="6" fill="#61C454"/>
<circle cx="142" cy="82" r="5.5" stroke="black" stroke-opacity="0.1"/>
<path d="M356.048 77.6C356.048 74.2397 356.048 72.5595 356.702 71.2761C357.277 70.1471 358.195 69.2292 359.324 68.654C360.607 68 362.288 68 365.648 68H702.448C705.808 68 707.488 68 708.772 68.654C709.901 69.2292 710.819 70.1471 711.394 71.2761C712.048 72.5595 712.048 74.2397 712.048 77.6V86.4C712.048 89.7603 712.048 91.4405 711.394 92.7239C710.819 93.8529 709.901 94.7708 708.772 95.346C707.488 96 705.808 96 702.448 96H365.648C362.288 96 360.607 96 359.324 95.346C358.195 94.7708 357.277 93.8529 356.702 92.7239C356.048 91.4405 356.048 89.7603 356.048 86.4V77.6Z" fill="#434343"/>
<path d="M468.192 87.9121H473.876C474.661 87.9121 475.048 87.5254 475.048 86.6699V82.2812C475.048 81.5078 474.731 81.1152 474.075 81.0508V79.6035C474.075 77.377 472.593 76.3047 471.034 76.3047C469.476 76.3047 467.993 77.377 467.993 79.6035V81.0684C467.384 81.1621 467.021 81.5488 467.021 82.2812V86.6699C467.021 87.5254 467.407 87.9121 468.192 87.9121ZM469.118 79.498C469.118 78.1328 469.985 77.3828 471.034 77.3828C472.077 77.3828 472.95 78.1328 472.95 79.498V81.0391L469.118 81.0449V79.498Z" fill="#E3E3E3"/>
<path d="M483.981 77V87.5H482.717V77H483.981ZM483.681 83.5215L483.154 83.501C483.159 82.9951 483.234 82.528 483.38 82.0996C483.526 81.6667 483.731 81.2907 483.995 80.9717C484.259 80.6527 484.574 80.4066 484.938 80.2334C485.308 80.0557 485.715 79.9668 486.162 79.9668C486.527 79.9668 486.855 80.0169 487.146 80.1172C487.438 80.2129 487.687 80.3678 487.892 80.582C488.101 80.7962 488.261 81.0742 488.37 81.416C488.479 81.7533 488.534 82.1657 488.534 82.6533V87.5H487.263V82.6396C487.263 82.2523 487.206 81.9424 487.092 81.71C486.978 81.473 486.812 81.3021 486.593 81.1973C486.374 81.0879 486.105 81.0332 485.786 81.0332C485.472 81.0332 485.185 81.0993 484.925 81.2314C484.67 81.3636 484.449 81.5459 484.262 81.7783C484.079 82.0107 483.936 82.2773 483.831 82.5781C483.731 82.8743 483.681 83.1888 483.681 83.5215ZM493.524 80.1035V81.0742H489.525V80.1035H493.524ZM490.879 78.3057H492.144V85.668C492.144 85.9186 492.182 86.1077 492.26 86.2354C492.337 86.363 492.438 86.4473 492.561 86.4883C492.684 86.5293 492.816 86.5498 492.957 86.5498C493.062 86.5498 493.171 86.5407 493.285 86.5225C493.404 86.4997 493.493 86.4814 493.552 86.4678L493.559 87.5C493.458 87.5319 493.326 87.5615 493.162 87.5889C493.003 87.6208 492.809 87.6367 492.581 87.6367C492.271 87.6367 491.986 87.5752 491.727 87.4521C491.467 87.3291 491.259 87.124 491.104 86.8369C490.954 86.5452 490.879 86.1533 490.879 85.6611V78.3057ZM498.104 80.1035V81.0742H494.105V80.1035H498.104ZM495.459 78.3057H496.724V85.668C496.724 85.9186 496.762 86.1077 496.84 86.2354C496.917 86.363 497.018 86.4473 497.141 86.4883C497.264 86.5293 497.396 86.5498 497.537 86.5498C497.642 86.5498 497.751 86.5407 497.865 86.5225C497.984 86.4997 498.073 86.4814 498.132 86.4678L498.139 87.5C498.038 87.5319 497.906 87.5615 497.742 87.5889C497.583 87.6208 497.389 87.6367 497.161 87.6367C496.851 87.6367 496.566 87.5752 496.307 87.4521C496.047 87.3291 495.84 87.124 495.685 86.8369C495.534 86.5452 495.459 86.1533 495.459 85.6611V78.3057ZM500.853 81.5254V90.3438H499.581V80.1035H500.743L500.853 81.5254ZM505.836 83.7402V83.8838C505.836 84.4215 505.772 84.9206 505.645 85.3809C505.517 85.8366 505.33 86.2331 505.084 86.5703C504.842 86.9076 504.544 87.1696 504.188 87.3564C503.833 87.5433 503.425 87.6367 502.965 87.6367C502.495 87.6367 502.081 87.5592 501.721 87.4043C501.361 87.2493 501.055 87.0238 500.805 86.7275C500.554 86.4313 500.354 86.0758 500.203 85.6611C500.057 85.2464 499.957 84.7793 499.902 84.2598V83.4941C499.957 82.9473 500.06 82.4574 500.21 82.0244C500.36 81.5915 500.559 81.2223 500.805 80.917C501.055 80.6071 501.358 80.3724 501.714 80.2129C502.069 80.0488 502.479 79.9668 502.944 79.9668C503.409 79.9668 503.822 80.0579 504.182 80.2402C504.542 80.418 504.845 80.6732 505.091 81.0059C505.337 81.3385 505.521 81.7373 505.645 82.2021C505.772 82.6624 505.836 83.1751 505.836 83.7402ZM504.564 83.8838V83.7402C504.564 83.3711 504.526 83.0247 504.448 82.7012C504.371 82.373 504.25 82.0859 504.086 81.8398C503.926 81.5892 503.721 81.3932 503.471 81.252C503.22 81.1061 502.922 81.0332 502.575 81.0332C502.256 81.0332 501.978 81.0879 501.741 81.1973C501.509 81.3066 501.311 81.4548 501.146 81.6416C500.982 81.8239 500.848 82.0335 500.743 82.2705C500.643 82.5029 500.568 82.7445 500.518 82.9951V84.7656C500.609 85.0846 500.736 85.3854 500.9 85.668C501.064 85.946 501.283 86.1715 501.557 86.3447C501.83 86.5133 502.174 86.5977 502.589 86.5977C502.931 86.5977 503.225 86.527 503.471 86.3857C503.721 86.2399 503.926 86.0417 504.086 85.791C504.25 85.5404 504.371 85.2533 504.448 84.9297C504.526 84.6016 504.564 84.2529 504.564 83.8838ZM511.756 85.5381C511.756 85.3558 511.715 85.1872 511.633 85.0322C511.555 84.8727 511.394 84.7292 511.147 84.6016C510.906 84.4694 510.541 84.3555 510.054 84.2598C509.644 84.1732 509.272 84.0706 508.939 83.9521C508.611 83.8337 508.331 83.6901 508.099 83.5215C507.871 83.3529 507.695 83.1546 507.572 82.9268C507.449 82.6989 507.388 82.4323 507.388 82.127C507.388 81.8353 507.451 81.5596 507.579 81.2998C507.711 81.04 507.896 80.8099 508.133 80.6094C508.374 80.4089 508.664 80.2516 509.001 80.1377C509.338 80.0238 509.714 79.9668 510.129 79.9668C510.721 79.9668 511.227 80.0716 511.646 80.2812C512.066 80.4909 512.387 80.7712 512.61 81.1221C512.834 81.4684 512.945 81.8535 512.945 82.2773H511.681C511.681 82.0723 511.619 81.874 511.496 81.6826C511.378 81.4867 511.202 81.3249 510.97 81.1973C510.742 81.0697 510.462 81.0059 510.129 81.0059C509.778 81.0059 509.493 81.0605 509.274 81.1699C509.06 81.2747 508.903 81.4092 508.803 81.5732C508.707 81.7373 508.659 81.9105 508.659 82.0928C508.659 82.2295 508.682 82.3525 508.728 82.4619C508.778 82.5667 508.864 82.6647 508.987 82.7559C509.11 82.8424 509.284 82.9245 509.507 83.002C509.73 83.0794 510.015 83.1569 510.361 83.2344C510.967 83.3711 511.466 83.5352 511.858 83.7266C512.25 83.918 512.542 84.1527 512.733 84.4307C512.925 84.7087 513.021 85.0459 513.021 85.4424C513.021 85.766 512.952 86.0622 512.815 86.3311C512.683 86.5999 512.49 86.8324 512.234 87.0283C511.984 87.2197 511.683 87.3701 511.332 87.4795C510.986 87.5843 510.596 87.6367 510.163 87.6367C509.511 87.6367 508.96 87.5205 508.509 87.2881C508.058 87.0557 507.716 86.7549 507.483 86.3857C507.251 86.0166 507.135 85.627 507.135 85.2168H508.406C508.424 85.5632 508.525 85.8389 508.707 86.0439C508.889 86.2445 509.113 86.388 509.377 86.4746C509.641 86.5566 509.903 86.5977 510.163 86.5977C510.509 86.5977 510.799 86.5521 511.031 86.4609C511.268 86.3698 511.448 86.2445 511.571 86.085C511.694 85.9255 511.756 85.7432 511.756 85.5381ZM514.627 86.8301C514.627 86.6159 514.693 86.4359 514.825 86.29C514.962 86.1396 515.158 86.0645 515.413 86.0645C515.668 86.0645 515.862 86.1396 515.994 86.29C516.131 86.4359 516.199 86.6159 516.199 86.8301C516.199 87.0397 516.131 87.2174 515.994 87.3633C515.862 87.5091 515.668 87.582 515.413 87.582C515.158 87.582 514.962 87.5091 514.825 87.3633C514.693 87.2174 514.627 87.0397 514.627 86.8301ZM514.634 80.7939C514.634 80.5798 514.7 80.3997 514.832 80.2539C514.969 80.1035 515.165 80.0283 515.42 80.0283C515.675 80.0283 515.869 80.1035 516.001 80.2539C516.138 80.3997 516.206 80.5798 516.206 80.7939C516.206 81.0036 516.138 81.1813 516.001 81.3271C515.869 81.473 515.675 81.5459 515.42 81.5459C515.165 81.5459 514.969 81.473 514.832 81.3271C514.7 81.1813 514.634 81.0036 514.634 80.7939ZM522.475 77.5469L518.325 88.3545H517.238L521.395 77.5469H522.475ZM526.727 77.5469L522.577 88.3545H521.49L525.646 77.5469H526.727ZM530.356 86.3584L532.38 80.1035H533.672L531.013 87.5H530.165L530.356 86.3584ZM528.668 80.1035L530.753 86.3926L530.896 87.5H530.049L527.369 80.1035H528.668ZM536.263 80.1035V87.5H534.991V80.1035H536.263ZM534.896 78.1416C534.896 77.9365 534.957 77.7633 535.08 77.6221C535.208 77.4808 535.395 77.4102 535.641 77.4102C535.882 77.4102 536.067 77.4808 536.194 77.6221C536.326 77.7633 536.393 77.9365 536.393 78.1416C536.393 78.3376 536.326 78.5062 536.194 78.6475C536.067 78.7842 535.882 78.8525 535.641 78.8525C535.395 78.8525 535.208 78.7842 535.08 78.6475C534.957 78.5062 534.896 78.3376 534.896 78.1416ZM542.6 85.5381C542.6 85.3558 542.559 85.1872 542.477 85.0322C542.399 84.8727 542.237 84.7292 541.991 84.6016C541.75 84.4694 541.385 84.3555 540.897 84.2598C540.487 84.1732 540.116 84.0706 539.783 83.9521C539.455 83.8337 539.175 83.6901 538.942 83.5215C538.715 83.3529 538.539 83.1546 538.416 82.9268C538.293 82.6989 538.231 82.4323 538.231 82.127C538.231 81.8353 538.295 81.5596 538.423 81.2998C538.555 81.04 538.74 80.8099 538.977 80.6094C539.218 80.4089 539.507 80.2516 539.845 80.1377C540.182 80.0238 540.558 79.9668 540.973 79.9668C541.565 79.9668 542.071 80.0716 542.49 80.2812C542.91 80.4909 543.231 80.7712 543.454 81.1221C543.677 81.4684 543.789 81.8535 543.789 82.2773H542.524C542.524 82.0723 542.463 81.874 542.34 81.6826C542.221 81.4867 542.046 81.3249 541.813 81.1973C541.586 81.0697 541.305 81.0059 540.973 81.0059C540.622 81.0059 540.337 81.0605 540.118 81.1699C539.904 81.2747 539.747 81.4092 539.646 81.5732C539.551 81.7373 539.503 81.9105 539.503 82.0928C539.503 82.2295 539.526 82.3525 539.571 82.4619C539.621 82.5667 539.708 82.6647 539.831 82.7559C539.954 82.8424 540.127 82.9245 540.351 83.002C540.574 83.0794 540.859 83.1569 541.205 83.2344C541.811 83.3711 542.31 83.5352 542.702 83.7266C543.094 83.918 543.386 84.1527 543.577 84.4307C543.769 84.7087 543.864 85.0459 543.864 85.4424C543.864 85.766 543.796 86.0622 543.659 86.3311C543.527 86.5999 543.333 86.8324 543.078 87.0283C542.827 87.2197 542.527 87.3701 542.176 87.4795C541.829 87.5843 541.44 87.6367 541.007 87.6367C540.355 87.6367 539.804 87.5205 539.353 87.2881C538.901 87.0557 538.56 86.7549 538.327 86.3857C538.095 86.0166 537.979 85.627 537.979 85.2168H539.25C539.268 85.5632 539.368 85.8389 539.551 86.0439C539.733 86.2445 539.956 86.388 540.221 86.4746C540.485 86.5566 540.747 86.5977 541.007 86.5977C541.353 86.5977 541.643 86.5521 541.875 86.4609C542.112 86.3698 542.292 86.2445 542.415 86.085C542.538 85.9255 542.6 85.7432 542.6 85.5381ZM550.051 85.791V80.1035H551.322V87.5H550.112L550.051 85.791ZM550.29 84.2324L550.816 84.2188C550.816 84.7109 550.764 85.1667 550.659 85.5859C550.559 86.0007 550.395 86.3607 550.167 86.666C549.939 86.9714 549.641 87.2106 549.271 87.3838C548.902 87.5524 548.453 87.6367 547.925 87.6367C547.565 87.6367 547.234 87.5843 546.934 87.4795C546.637 87.3747 546.382 87.2129 546.168 86.9941C545.954 86.7754 545.787 86.4906 545.669 86.1396C545.555 85.7887 545.498 85.3672 545.498 84.875V80.1035H546.763V84.8887C546.763 85.2214 546.799 85.4971 546.872 85.7158C546.95 85.93 547.052 86.1009 547.18 86.2285C547.312 86.3516 547.458 86.4382 547.617 86.4883C547.781 86.5384 547.95 86.5635 548.123 86.5635C548.661 86.5635 549.087 86.4609 549.401 86.2559C549.716 86.0462 549.941 85.766 550.078 85.415C550.219 85.0596 550.29 84.6654 550.29 84.2324ZM557.611 86.2354V82.4277C557.611 82.1361 557.552 81.8831 557.434 81.6689C557.32 81.4502 557.146 81.2816 556.914 81.1631C556.682 81.0446 556.395 80.9854 556.053 80.9854C555.734 80.9854 555.453 81.04 555.212 81.1494C554.975 81.2588 554.788 81.4023 554.651 81.5801C554.519 81.7578 554.453 81.9492 554.453 82.1543H553.188C553.188 81.89 553.257 81.6279 553.394 81.3682C553.53 81.1084 553.726 80.8737 553.981 80.6641C554.241 80.4499 554.551 80.2812 554.911 80.1582C555.276 80.0306 555.681 79.9668 556.128 79.9668C556.666 79.9668 557.14 80.0579 557.55 80.2402C557.965 80.4225 558.288 80.6982 558.521 81.0674C558.757 81.432 558.876 81.89 558.876 82.4414V85.8867C558.876 86.1328 558.896 86.3949 558.938 86.6729C558.983 86.9508 559.049 87.1901 559.136 87.3906V87.5H557.816C557.753 87.3542 557.702 87.1605 557.666 86.9189C557.63 86.6729 557.611 86.445 557.611 86.2354ZM557.83 83.0156L557.844 83.9043H556.565C556.205 83.9043 555.884 83.9339 555.602 83.9932C555.319 84.0479 555.082 84.1322 554.891 84.2461C554.699 84.36 554.553 84.5036 554.453 84.6768C554.353 84.8454 554.303 85.0436 554.303 85.2715C554.303 85.5039 554.355 85.7158 554.46 85.9072C554.565 86.0986 554.722 86.2513 554.932 86.3652C555.146 86.4746 555.408 86.5293 555.718 86.5293C556.105 86.5293 556.447 86.4473 556.743 86.2832C557.039 86.1191 557.274 85.9186 557.447 85.6816C557.625 85.4447 557.721 85.2145 557.734 84.9912L558.274 85.5996C558.243 85.791 558.156 86.0029 558.015 86.2354C557.873 86.4678 557.684 86.6911 557.447 86.9053C557.215 87.1149 556.937 87.2904 556.613 87.4316C556.294 87.5684 555.934 87.6367 555.533 87.6367C555.032 87.6367 554.592 87.5387 554.214 87.3428C553.84 87.1468 553.549 86.8848 553.339 86.5566C553.134 86.224 553.031 85.8525 553.031 85.4424C553.031 85.0459 553.109 84.6973 553.264 84.3965C553.419 84.0911 553.642 83.8382 553.934 83.6377C554.225 83.4326 554.576 83.2777 554.986 83.1729C555.396 83.068 555.854 83.0156 556.36 83.0156H557.83ZM562.239 77V87.5H560.968V77H562.239ZM565.644 80.1035V87.5H564.372V80.1035H565.644ZM564.276 78.1416C564.276 77.9365 564.338 77.7633 564.461 77.6221C564.589 77.4808 564.775 77.4102 565.021 77.4102C565.263 77.4102 565.448 77.4808 565.575 77.6221C565.707 77.7633 565.773 77.9365 565.773 78.1416C565.773 78.3376 565.707 78.5062 565.575 78.6475C565.448 78.7842 565.263 78.8525 565.021 78.8525C564.775 78.8525 564.589 78.7842 564.461 78.6475C564.338 78.5062 564.276 78.3376 564.276 78.1416ZM571.98 85.5381C571.98 85.3558 571.939 85.1872 571.857 85.0322C571.78 84.8727 571.618 84.7292 571.372 84.6016C571.131 84.4694 570.766 84.3555 570.278 84.2598C569.868 84.1732 569.497 84.0706 569.164 83.9521C568.836 83.8337 568.556 83.6901 568.323 83.5215C568.095 83.3529 567.92 83.1546 567.797 82.9268C567.674 82.6989 567.612 82.4323 567.612 82.127C567.612 81.8353 567.676 81.5596 567.804 81.2998C567.936 81.04 568.12 80.8099 568.357 80.6094C568.599 80.4089 568.888 80.2516 569.226 80.1377C569.563 80.0238 569.939 79.9668 570.354 79.9668C570.946 79.9668 571.452 80.0716 571.871 80.2812C572.29 80.4909 572.612 80.7712 572.835 81.1221C573.058 81.4684 573.17 81.8535 573.17 82.2773H571.905C571.905 82.0723 571.844 81.874 571.721 81.6826C571.602 81.4867 571.427 81.3249 571.194 81.1973C570.966 81.0697 570.686 81.0059 570.354 81.0059C570.003 81.0059 569.718 81.0605 569.499 81.1699C569.285 81.2747 569.128 81.4092 569.027 81.5732C568.932 81.7373 568.884 81.9105 568.884 82.0928C568.884 82.2295 568.907 82.3525 568.952 82.4619C569.002 82.5667 569.089 82.6647 569.212 82.7559C569.335 82.8424 569.508 82.9245 569.731 83.002C569.955 83.0794 570.24 83.1569 570.586 83.2344C571.192 83.3711 571.691 83.5352 572.083 83.7266C572.475 83.918 572.767 84.1527 572.958 84.4307C573.149 84.7087 573.245 85.0459 573.245 85.4424C573.245 85.766 573.177 86.0622 573.04 86.3311C572.908 86.5999 572.714 86.8324 572.459 87.0283C572.208 87.2197 571.908 87.3701 571.557 87.4795C571.21 87.5843 570.821 87.6367 570.388 87.6367C569.736 87.6367 569.185 87.5205 568.733 87.2881C568.282 87.0557 567.94 86.7549 567.708 86.3857C567.476 86.0166 567.359 85.627 567.359 85.2168H568.631C568.649 85.5632 568.749 85.8389 568.932 86.0439C569.114 86.2445 569.337 86.388 569.602 86.4746C569.866 86.5566 570.128 86.5977 570.388 86.5977C570.734 86.5977 571.023 86.5521 571.256 86.4609C571.493 86.3698 571.673 86.2445 571.796 86.085C571.919 85.9255 571.98 85.7432 571.98 85.5381ZM577.976 87.6367C577.461 87.6367 576.993 87.5501 576.574 87.377C576.16 87.1992 575.802 86.9508 575.501 86.6318C575.205 86.3128 574.977 85.9346 574.817 85.4971C574.658 85.0596 574.578 84.5811 574.578 84.0615V83.7744C574.578 83.1729 574.667 82.6374 574.845 82.168C575.022 81.694 575.264 81.293 575.569 80.9648C575.875 80.6367 576.221 80.3883 576.608 80.2197C576.996 80.0511 577.397 79.9668 577.812 79.9668C578.34 79.9668 578.796 80.0579 579.179 80.2402C579.566 80.4225 579.883 80.6777 580.129 81.0059C580.375 81.3294 580.557 81.7122 580.676 82.1543C580.794 82.5918 580.854 83.0703 580.854 83.5898V84.1572H575.33V83.125H579.589V83.0293C579.571 82.7012 579.502 82.3822 579.384 82.0723C579.27 81.7624 579.088 81.5072 578.837 81.3066C578.586 81.1061 578.244 81.0059 577.812 81.0059C577.524 81.0059 577.26 81.0674 577.019 81.1904C576.777 81.3089 576.57 81.4867 576.396 81.7236C576.223 81.9606 576.089 82.25 575.993 82.5918C575.897 82.9336 575.85 83.3278 575.85 83.7744V84.0615C575.85 84.4124 575.897 84.7428 575.993 85.0527C576.093 85.3581 576.237 85.627 576.424 85.8594C576.615 86.0918 576.845 86.2741 577.114 86.4062C577.388 86.5384 577.698 86.6045 578.044 86.6045C578.491 86.6045 578.869 86.5133 579.179 86.3311C579.489 86.1488 579.76 85.9049 579.992 85.5996L580.758 86.208C580.598 86.4495 580.396 86.6797 580.149 86.8984C579.903 87.1172 579.6 87.2949 579.24 87.4316C578.885 87.5684 578.463 87.6367 577.976 87.6367ZM583.595 81.2656V87.5H582.33V80.1035H583.561L583.595 81.2656ZM585.905 80.0625L585.898 81.2383C585.794 81.2155 585.693 81.2018 585.598 81.1973C585.507 81.1882 585.402 81.1836 585.283 81.1836C584.992 81.1836 584.734 81.2292 584.511 81.3203C584.287 81.4115 584.098 81.5391 583.943 81.7031C583.788 81.8672 583.665 82.0632 583.574 82.291C583.488 82.5143 583.431 82.7604 583.403 83.0293L583.048 83.2344C583.048 82.7878 583.091 82.3685 583.178 81.9766C583.269 81.5846 583.408 81.2383 583.595 80.9375C583.782 80.6322 584.019 80.3952 584.306 80.2266C584.597 80.0534 584.944 79.9668 585.345 79.9668C585.436 79.9668 585.541 79.9782 585.659 80.001C585.778 80.0192 585.86 80.0397 585.905 80.0625ZM586.247 86.8301C586.247 86.6159 586.313 86.4359 586.445 86.29C586.582 86.1396 586.778 86.0645 587.033 86.0645C587.288 86.0645 587.482 86.1396 587.614 86.29C587.751 86.4359 587.819 86.6159 587.819 86.8301C587.819 87.0397 587.751 87.2174 587.614 87.3633C587.482 87.5091 587.288 87.582 587.033 87.582C586.778 87.582 586.582 87.5091 586.445 87.3633C586.313 87.2174 586.247 87.0397 586.247 86.8301ZM591.292 80.1035V87.5H590.021V80.1035H591.292ZM589.925 78.1416C589.925 77.9365 589.986 77.7633 590.109 77.6221C590.237 77.4808 590.424 77.4102 590.67 77.4102C590.911 77.4102 591.096 77.4808 591.224 77.6221C591.356 77.7633 591.422 77.9365 591.422 78.1416C591.422 78.3376 591.356 78.5062 591.224 78.6475C591.096 78.7842 590.911 78.8525 590.67 78.8525C590.424 78.8525 590.237 78.7842 590.109 78.6475C589.986 78.5062 589.925 78.3376 589.925 78.1416ZM592.987 83.8838V83.7266C592.987 83.1934 593.065 82.6989 593.22 82.2432C593.375 81.7829 593.598 81.3841 593.89 81.0469C594.181 80.7051 594.535 80.4408 594.949 80.2539C595.364 80.0625 595.829 79.9668 596.344 79.9668C596.863 79.9668 597.33 80.0625 597.745 80.2539C598.164 80.4408 598.52 80.7051 598.812 81.0469C599.108 81.3841 599.333 81.7829 599.488 82.2432C599.643 82.6989 599.721 83.1934 599.721 83.7266V83.8838C599.721 84.417 599.643 84.9115 599.488 85.3672C599.333 85.8229 599.108 86.2217 598.812 86.5635C598.52 86.9007 598.167 87.165 597.752 87.3564C597.342 87.5433 596.877 87.6367 596.357 87.6367C595.838 87.6367 595.371 87.5433 594.956 87.3564C594.541 87.165 594.186 86.9007 593.89 86.5635C593.598 86.2217 593.375 85.8229 593.22 85.3672C593.065 84.9115 592.987 84.417 592.987 83.8838ZM594.252 83.7266V83.8838C594.252 84.2529 594.295 84.6016 594.382 84.9297C594.468 85.2533 594.598 85.5404 594.771 85.791C594.949 86.0417 595.17 86.2399 595.435 86.3857C595.699 86.527 596.007 86.5977 596.357 86.5977C596.704 86.5977 597.007 86.527 597.267 86.3857C597.531 86.2399 597.75 86.0417 597.923 85.791C598.096 85.5404 598.226 85.2533 598.312 84.9297C598.404 84.6016 598.449 84.2529 598.449 83.8838V83.7266C598.449 83.362 598.404 83.0179 598.312 82.6943C598.226 82.3662 598.094 82.0768 597.916 81.8262C597.743 81.571 597.524 81.3704 597.26 81.2246C597 81.0788 596.695 81.0059 596.344 81.0059C595.997 81.0059 595.692 81.0788 595.428 81.2246C595.168 81.3704 594.949 81.571 594.771 81.8262C594.598 82.0768 594.468 82.3662 594.382 82.6943C594.295 83.0179 594.252 83.362 594.252 83.7266Z" fill="white"/>
<path d="M699.878 80.7324C700.048 80.7324 700.183 80.6797 700.288 80.5684L702.69 78.1484C702.819 78.0195 702.878 77.8789 702.878 77.7148C702.878 77.5566 702.813 77.4043 702.69 77.2871L700.288 74.8438C700.183 74.7266 700.048 74.668 699.878 74.668C699.562 74.668 699.31 74.9316 699.31 75.2539C699.31 75.4121 699.368 75.541 699.468 75.6523L700.868 77.0234C700.593 76.9824 700.312 76.959 700.03 76.959C697.13 76.959 694.81 79.2793 694.81 82.1855C694.81 85.0918 697.147 87.4297 700.048 87.4297C702.954 87.4297 705.286 85.0918 705.286 82.1855C705.286 81.834 705.04 81.582 704.688 81.582C704.349 81.582 704.12 81.834 704.12 82.1855C704.12 84.4473 702.31 86.2637 700.048 86.2637C697.792 86.2637 695.976 84.4473 695.976 82.1855C695.976 79.9062 697.774 78.1016 700.03 78.1016C700.411 78.1016 700.763 78.1309 701.073 78.1836L699.474 79.7656C699.368 79.8711 699.31 80 699.31 80.1582C699.31 80.4805 699.562 80.7324 699.878 80.7324Z" fill="#E3E3E3"/>
<path d="M333.048 90C333.197 90 333.42 89.9499 333.627 89.8329C338.393 87.2182 340.048 86.0069 340.048 82.9661V76.659C340.048 75.6565 339.659 75.2973 338.832 74.9381C337.913 74.5455 334.827 73.4595 333.925 73.1504C333.652 73.0585 333.329 73 333.048 73C332.767 73 332.444 73.0752 332.171 73.1504C331.269 73.4093 328.183 74.5538 327.264 74.9381C326.437 75.2889 326.048 75.6565 326.048 76.659V82.9661C326.048 86.0069 327.711 87.2015 332.46 89.8329C332.676 89.9499 332.899 90 333.048 90ZM333.495 74.6875C334.579 75.1219 336.937 75.9656 338.178 76.4084C338.41 76.5002 338.467 76.6256 338.467 76.9263V82.657C338.467 85.1047 337.251 85.7646 333.519 88.0369C333.288 88.1789 333.172 88.229 333.056 88.229V74.5956C333.172 74.5956 333.296 74.6206 333.495 74.6875Z" fill="#B7B7B7"/>
<path d="M76 108H992V613C992 618.523 987.523 623 982 623H86C80.4771 623 76 618.523 76 613V108Z" fill="white"/>
<path d="M76 108H992V613C992 618.523 987.523 623 982 623H86C80.4771 623 76 618.523 76 613V108Z" fill="url(#paint0_linear_319_195)"/>
<path d="M399.249 332.064H382.481L379.793 340H368.337L384.593 295.072H397.265L413.521 340H401.937L399.249 332.064ZM396.433 323.616L390.865 307.168L385.361 323.616H396.433ZM429.412 292.64V340H418.468V292.64H429.412ZM450.911 303.776C453.428 303.776 455.626 304.288 457.503 305.312C459.423 306.336 460.895 307.68 461.919 309.344V304.288H472.863V339.936C472.863 343.221 472.202 346.187 470.879 348.832C469.599 351.52 467.615 353.653 464.927 355.232C462.282 356.811 458.975 357.6 455.007 357.6C449.716 357.6 445.428 356.341 442.143 353.824C438.858 351.349 436.98 347.979 436.511 343.712H447.327C447.668 345.077 448.479 346.144 449.759 346.912C451.039 347.723 452.618 348.128 454.495 348.128C456.756 348.128 458.548 347.467 459.871 346.144C461.236 344.864 461.919 342.795 461.919 339.936V334.88C460.852 336.544 459.38 337.909 457.503 338.976C455.626 340 453.428 340.512 450.911 340.512C447.967 340.512 445.3 339.765 442.911 338.272C440.522 336.736 438.623 334.581 437.215 331.808C435.85 328.992 435.167 325.749 435.167 322.08C435.167 318.411 435.85 315.189 437.215 312.416C438.623 309.643 440.522 307.509 442.911 306.016C445.3 304.523 447.967 303.776 450.911 303.776ZM461.919 322.144C461.919 319.413 461.151 317.259 459.615 315.68C458.122 314.101 456.287 313.312 454.111 313.312C451.935 313.312 450.079 314.101 448.543 315.68C447.05 317.216 446.303 319.349 446.303 322.08C446.303 324.811 447.05 326.987 448.543 328.608C450.079 330.187 451.935 330.976 454.111 330.976C456.287 330.976 458.122 330.187 459.615 328.608C461.151 327.029 461.919 324.875 461.919 322.144ZM497.037 340.512C493.538 340.512 490.381 339.765 487.565 338.272C484.791 336.779 482.594 334.645 480.973 331.872C479.394 329.099 478.605 325.856 478.605 322.144C478.605 318.475 479.415 315.253 481.036 312.48C482.658 309.664 484.877 307.509 487.693 306.016C490.509 304.523 493.666 303.776 497.165 303.776C500.663 303.776 503.821 304.523 506.637 306.016C509.453 307.509 511.671 309.664 513.293 312.48C514.914 315.253 515.725 318.475 515.725 322.144C515.725 325.813 514.893 329.056 513.229 331.872C511.607 334.645 509.367 336.779 506.509 338.272C503.693 339.765 500.535 340.512 497.037 340.512ZM497.037 331.04C499.127 331.04 500.898 330.272 502.349 328.736C503.842 327.2 504.589 325.003 504.589 322.144C504.589 319.285 503.863 317.088 502.413 315.552C501.005 314.016 499.255 313.248 497.165 313.248C495.031 313.248 493.261 314.016 491.853 315.552C490.445 317.045 489.741 319.243 489.741 322.144C489.741 325.003 490.423 327.2 491.789 328.736C493.197 330.272 494.946 331.04 497.037 331.04ZM532.475 310.24C533.755 308.277 535.355 306.741 537.275 305.632C539.195 304.48 541.328 303.904 543.675 303.904V315.488H540.667C537.936 315.488 535.888 316.085 534.523 317.28C533.157 318.432 532.475 320.48 532.475 323.424V340H521.531V304.288H532.475V310.24ZM554.41 300.576C552.49 300.576 550.911 300.021 549.674 298.912C548.479 297.76 547.882 296.352 547.882 294.688C547.882 292.981 548.479 291.573 549.674 290.464C550.911 289.312 552.49 288.736 554.41 288.736C556.287 288.736 557.823 289.312 559.018 290.464C560.255 291.573 560.874 292.981 560.874 294.688C560.874 296.352 560.255 297.76 559.018 298.912C557.823 300.021 556.287 300.576 554.41 300.576ZM559.85 304.288V340H548.906V304.288H559.85ZM587.685 330.72V340H582.117C578.149 340 575.055 339.04 572.837 337.12C570.618 335.157 569.509 331.979 569.509 327.584V313.376H565.157V304.288H569.509V295.584H580.453V304.288H587.621V313.376H580.453V327.712C580.453 328.779 580.709 329.547 581.221 330.016C581.733 330.485 582.586 330.72 583.781 330.72H587.685ZM615.733 303.904C619.829 303.904 623.114 305.269 625.589 308C628.063 310.688 629.301 314.4 629.301 319.136V340H618.421V320.608C618.421 318.219 617.802 316.363 616.565 315.04C615.327 313.717 613.663 313.056 611.573 313.056C609.482 313.056 607.818 313.717 606.581 315.04C605.343 316.363 604.725 318.219 604.725 320.608V340H593.781V292.64H604.725V309.088C605.834 307.509 607.349 306.251 609.269 305.312C611.189 304.373 613.343 303.904 615.733 303.904ZM682.474 303.904C686.911 303.904 690.431 305.248 693.034 307.936C695.679 310.624 697.002 314.357 697.002 319.136V340H686.122V320.608C686.122 318.304 685.503 316.533 684.266 315.296C683.071 314.016 681.407 313.376 679.274 313.376C677.14 313.376 675.455 314.016 674.218 315.296C673.023 316.533 672.426 318.304 672.426 320.608V340H661.546V320.608C661.546 318.304 660.927 316.533 659.69 315.296C658.495 314.016 656.831 313.376 654.698 313.376C652.564 313.376 650.879 314.016 649.642 315.296C648.447 316.533 647.85 318.304 647.85 320.608V340H636.906V304.288H647.85V308.768C648.959 307.275 650.41 306.101 652.202 305.248C653.994 304.352 656.02 303.904 658.282 303.904C660.97 303.904 663.359 304.48 665.45 305.632C667.583 306.784 669.247 308.427 670.442 310.56C671.679 308.597 673.364 306.997 675.498 305.76C677.631 304.523 679.956 303.904 682.474 303.904ZM416.082 391.072L400.146 436H386.45L370.514 391.072H382.162L393.298 424.992L404.498 391.072H416.082ZM426.16 396.576C424.24 396.576 422.661 396.021 421.424 394.912C420.229 393.76 419.632 392.352 419.632 390.688C419.632 388.981 420.229 387.573 421.424 386.464C422.661 385.312 424.24 384.736 426.16 384.736C428.037 384.736 429.573 385.312 430.768 386.464C432.005 387.573 432.624 388.981 432.624 390.688C432.624 392.352 432.005 393.76 430.768 394.912C429.573 396.021 428.037 396.576 426.16 396.576ZM431.6 400.288V436H420.656V400.288H431.6ZM454.059 436.512C450.944 436.512 448.171 435.979 445.739 434.912C443.307 433.845 441.387 432.395 439.979 430.56C438.571 428.683 437.781 426.592 437.611 424.288H448.427C448.555 425.525 449.131 426.528 450.155 427.296C451.179 428.064 452.437 428.448 453.931 428.448C455.296 428.448 456.341 428.192 457.067 427.68C457.835 427.125 458.219 426.421 458.219 425.568C458.219 424.544 457.685 423.797 456.619 423.328C455.552 422.816 453.824 422.261 451.435 421.664C448.875 421.067 446.741 420.448 445.035 419.808C443.328 419.125 441.856 418.08 440.619 416.672C439.381 415.221 438.763 413.28 438.763 410.848C438.763 408.8 439.317 406.944 440.427 405.28C441.579 403.573 443.243 402.229 445.419 401.248C447.637 400.267 450.261 399.776 453.291 399.776C457.771 399.776 461.291 400.885 463.851 403.104C466.453 405.323 467.947 408.267 468.331 411.936H458.219C458.048 410.699 457.493 409.717 456.555 408.992C455.659 408.267 454.464 407.904 452.971 407.904C451.691 407.904 450.709 408.16 450.027 408.672C449.344 409.141 449.003 409.803 449.003 410.656C449.003 411.68 449.536 412.448 450.603 412.96C451.712 413.472 453.419 413.984 455.723 414.496C458.368 415.179 460.523 415.861 462.187 416.544C463.851 417.184 465.301 418.251 466.539 419.744C467.819 421.195 468.48 423.157 468.523 425.632C468.523 427.723 467.925 429.6 466.731 431.264C465.579 432.885 463.893 434.165 461.675 435.104C459.499 436.043 456.96 436.512 454.059 436.512ZM510.482 400.288V436H499.538V431.136C498.429 432.715 496.914 433.995 494.994 434.976C493.117 435.915 491.026 436.384 488.722 436.384C485.991 436.384 483.581 435.787 481.49 434.592C479.399 433.355 477.778 431.584 476.626 429.28C475.474 426.976 474.898 424.267 474.898 421.152V400.288H485.778V419.68C485.778 422.069 486.397 423.925 487.634 425.248C488.871 426.571 490.535 427.232 492.626 427.232C494.759 427.232 496.445 426.571 497.682 425.248C498.919 423.925 499.538 422.069 499.538 419.68V400.288H510.482ZM516.167 418.08C516.167 414.411 516.85 411.189 518.215 408.416C519.623 405.643 521.522 403.509 523.911 402.016C526.3 400.523 528.967 399.776 531.911 399.776C534.428 399.776 536.626 400.288 538.503 401.312C540.423 402.336 541.895 403.68 542.919 405.344V400.288H553.863V436H542.919V430.944C541.852 432.608 540.359 433.952 538.439 434.976C536.562 436 534.364 436.512 531.847 436.512C528.946 436.512 526.3 435.765 523.911 434.272C521.522 432.736 519.623 430.581 518.215 427.808C516.85 424.992 516.167 421.749 516.167 418.08ZM542.919 418.144C542.919 415.413 542.151 413.259 540.615 411.68C539.122 410.101 537.287 409.312 535.111 409.312C532.935 409.312 531.079 410.101 529.543 411.68C528.05 413.216 527.303 415.349 527.303 418.08C527.303 420.811 528.05 422.987 529.543 424.608C531.079 426.187 532.935 426.976 535.111 426.976C537.287 426.976 539.122 426.187 540.615 424.608C542.151 423.029 542.919 420.875 542.919 418.144ZM572.725 388.64V436H561.781V388.64H572.725ZM586.16 396.576C584.24 396.576 582.661 396.021 581.424 394.912C580.229 393.76 579.632 392.352 579.632 390.688C579.632 388.981 580.229 387.573 581.424 386.464C582.661 385.312 584.24 384.736 586.16 384.736C588.037 384.736 589.573 385.312 590.768 386.464C592.005 387.573 592.624 388.981 592.624 390.688C592.624 392.352 592.005 393.76 590.768 394.912C589.573 396.021 588.037 396.576 586.16 396.576ZM591.6 400.288V436H580.656V400.288H591.6ZM614.059 436.512C610.944 436.512 608.171 435.979 605.739 434.912C603.307 433.845 601.387 432.395 599.979 430.56C598.571 428.683 597.781 426.592 597.611 424.288H608.427C608.555 425.525 609.131 426.528 610.155 427.296C611.179 428.064 612.437 428.448 613.931 428.448C615.296 428.448 616.341 428.192 617.067 427.68C617.835 427.125 618.219 426.421 618.219 425.568C618.219 424.544 617.685 423.797 616.619 423.328C615.552 422.816 613.824 422.261 611.435 421.664C608.875 421.067 606.741 420.448 605.035 419.808C603.328 419.125 601.856 418.08 600.619 416.672C599.381 415.221 598.763 413.28 598.763 410.848C598.763 408.8 599.317 406.944 600.427 405.28C601.579 403.573 603.243 402.229 605.419 401.248C607.637 400.267 610.261 399.776 613.291 399.776C617.771 399.776 621.291 400.885 623.851 403.104C626.453 405.323 627.947 408.267 628.331 411.936H618.219C618.048 410.699 617.493 409.717 616.555 408.992C615.659 408.267 614.464 407.904 612.971 407.904C611.691 407.904 610.709 408.16 610.027 408.672C609.344 409.141 609.003 409.803 609.003 410.656C609.003 411.68 609.536 412.448 610.603 412.96C611.712 413.472 613.419 413.984 615.723 414.496C618.368 415.179 620.523 415.861 622.187 416.544C623.851 417.184 625.301 418.251 626.539 419.744C627.819 421.195 628.48 423.157 628.523 425.632C628.523 427.723 627.925 429.6 626.731 431.264C625.579 432.885 623.893 434.165 621.675 435.104C619.499 436.043 616.96 436.512 614.059 436.512ZM668.882 417.568C668.882 418.592 668.818 419.659 668.69 420.768H643.922C644.093 422.987 644.797 424.693 646.034 425.888C647.314 427.04 648.871 427.616 650.706 427.616C653.437 427.616 655.335 426.464 656.402 424.16H668.05C667.453 426.507 666.365 428.619 664.786 430.496C663.25 432.373 661.309 433.845 658.962 434.912C656.615 435.979 653.991 436.512 651.09 436.512C647.591 436.512 644.477 435.765 641.746 434.272C639.015 432.779 636.882 430.645 635.346 427.872C633.81 425.099 633.042 421.856 633.042 418.144C633.042 414.432 633.789 411.189 635.282 408.416C636.818 405.643 638.951 403.509 641.682 402.016C644.413 400.523 647.549 399.776 651.09 399.776C654.546 399.776 657.618 400.501 660.306 401.952C662.994 403.403 665.085 405.472 666.578 408.16C668.114 410.848 668.882 413.984 668.882 417.568ZM657.682 414.688C657.682 412.811 657.042 411.317 655.762 410.208C654.482 409.099 652.882 408.544 650.962 408.544C649.127 408.544 647.57 409.077 646.29 410.144C645.053 411.211 644.285 412.725 643.986 414.688H657.682ZM685.6 406.24C686.88 404.277 688.48 402.741 690.4 401.632C692.32 400.48 694.453 399.904 696.8 399.904V411.488H693.792C691.061 411.488 689.013 412.085 687.648 413.28C686.282 414.432 685.6 416.48 685.6 419.424V436H674.656V400.288H685.6V406.24Z" fill="#CECECE"/>
<rect x="75.75" y="55.75" width="916.5" height="567.5" rx="10.25" stroke="black" stroke-width="0.5"/>
</g>
<defs>
<filter id="filter0_ddd_319_195" x="0.5" y="0.5" width="1067" height="718" filterUnits="userSpaceOnUse" color-interpolation-filters="sRGB">
<feFlood flood-opacity="0" result="BackgroundImageFix"/>
<feColorMatrix in="SourceAlpha" type="matrix" values="0 0 0 0 0 0 0 0 0 0 0 0 0 0 0 0 0 0 127 0" result="hardAlpha"/>
<feMorphology radius="20" operator="erode" in="SourceAlpha" result="effect1_dropShadow_319_195"/>
<feOffset dy="30"/>
<feGaussianBlur stdDeviation="25"/>
<feColorMatrix type="matrix" values="0 0 0 0 0 0 0 0 0 0 0 0 0 0 0 0 0 0 0.25 0"/>
<feBlend mode="normal" in2="BackgroundImageFix" result="effect1_dropShadow_319_195"/>
<feColorMatrix in="SourceAlpha" type="matrix" values="0 0 0 0 0 0 0 0 0 0 0 0 0 0 0 0 0 0 127 0" result="hardAlpha"/>
<feMorphology radius="15" operator="dilate" in="SourceAlpha" result="effect2_dropShadow_319_195"/>
<feOffset dy="20"/>
<feGaussianBlur stdDeviation="30"/>
<feColorMatrix type="matrix" values="0 0 0 0 0 0 0 0 0 0 0 0 0 0 0 0 0 0 0.18 0"/>
<feBlend mode="normal" in2="effect1_dropShadow_319_195" result="effect2_dropShadow_319_195"/>
<feColorMatrix in="SourceAlpha" type="matrix" values="0 0 0 0 0 0 0 0 0 0 0 0 0 0 0 0 0 0 127 0" result="hardAlpha"/>
<feMorphology radius="5" operator="dilate" in="SourceAlpha" result="effect3_dropShadow_319_195"/>
<feOffset/>
<feGaussianBlur stdDeviation="10"/>
<feColorMatrix type="matrix" values="0 0 0 0 0 0 0 0 0 0 0 0 0 0 0 0 0 0 0.18 0"/>
<feBlend mode="normal" in2="effect2_dropShadow_319_195" result="effect3_dropShadow_319_195"/>
<feBlend mode="normal" in="SourceGraphic" in2="effect3_dropShadow_319_195" result="shape"/>
</filter>
<filter id="filter1_iii_319_195" x="76" y="56" width="916" height="52" filterUnits="userSpaceOnUse" color-interpolation-filters="sRGB">
<feFlood flood-opacity="0" result="BackgroundImageFix"/>
<feBlend mode="normal" in="SourceGraphic" in2="BackgroundImageFix" result="shape"/>
<feColorMatrix in="SourceAlpha" type="matrix" values="0 0 0 0 0 0 0 0 0 0 0 0 0 0 0 0 0 0 127 0" result="hardAlpha"/>
<feOffset dx="-0.5"/>
<feComposite in2="hardAlpha" operator="arithmetic" k2="-1" k3="1"/>
<feColorMatrix type="matrix" values="0 0 0 0 0.290196 0 0 0 0 0.290196 0 0 0 0 0.290196 0 0 0 1 0"/>
<feBlend mode="normal" in2="shape" result="effect1_innerShadow_319_195"/>
<feColorMatrix in="SourceAlpha" type="matrix" values="0 0 0 0 0 0 0 0 0 0 0 0 0 0 0 0 0 0 127 0" result="hardAlpha"/>
<feOffset dx="0.5"/>
<feComposite in2="hardAlpha" operator="arithmetic" k2="-1" k3="1"/>
<feColorMatrix type="matrix" values="0 0 0 0 0.290196 0 0 0 0 0.290196 0 0 0 0 0.290196 0 0 0 1 0"/>
<feBlend mode="normal" in2="effect1_innerShadow_319_195" result="effect2_innerShadow_319_195"/>
<feColorMatrix in="SourceAlpha" type="matrix" values="0 0 0 0 0 0 0 0 0 0 0 0 0 0 0 0 0 0 127 0" result="hardAlpha"/>
<feOffset dy="1"/>
<feComposite in2="hardAlpha" operator="arithmetic" k2="-1" k3="1"/>
<feColorMatrix type="matrix" values="0 0 0 0 0.494118 0 0 0 0 0.494118 0 0 0 0 0.494118 0 0 0 1 0"/>
<feBlend mode="normal" in2="effect2_innerShadow_319_195" result="effect3_innerShadow_319_195"/>
</filter>
<linearGradient id="paint0_linear_319_195" x1="534" y1="-563" x2="534" y2="779" gradientUnits="userSpaceOnUse">
<stop stop-color="#CACACA"/>
<stop offset="1"/>
</linearGradient>
</defs>
</svg>
