<svg width="1559" height="1101" viewBox="0 0 1559 1101" fill="none" xmlns="http://www.w3.org/2000/svg">
<path d="M121.078 0.195007C129.688 1.75713 138.298 3.12389 146.908 4.49075C240.272 18.1593 342.785 16.5973 452.024 0.195007H121.078Z" fill="#EE7774"/>
<path d="M21.2558 0.195007C81.5257 33.7806 152.827 56.6267 234.353 68.5379C331.753 82.7922 439.378 80.6442 554.267 62.094C635.793 49.0112 717.857 28.1179 798.845 0.195007H21.2558Z" fill="#EF7C72"/>
<path d="M766.557 0.195007C715.436 15.0352 664.314 26.5557 613.73 34.7569C450.141 61.1177 308.614 48.8161 207.178 0.195007H12.915C20.4487 4.88137 27.9824 9.76301 34.9781 14.8399L60.2699 33.5856C129.15 84.1593 217.133 117.55 321.529 132.78C418.929 147.035 526.554 144.887 641.443 126.337C776.782 104.467 914.272 61.313 1045.04 0.195007H766.557Z" fill="#EF8171"/>
<path d="M1030.51 0.194979C922.613 47.4492 810.683 81.2303 700.906 98.9994C505.298 130.632 341.44 106.81 239.465 31.8279L214.173 13.0827C207.985 8.59158 201.796 4.29584 195.339 0H0V20.8933C47.0858 34.3666 88.2523 53.6978 122.423 78.887L147.715 97.6327C216.595 148.206 304.578 181.596 408.974 196.827C506.374 211.081 613.999 208.934 728.889 190.384C907.546 161.484 1090.24 95.2895 1256.25 0H1030.51V0.194979Z" fill="#F0866F"/>
<path d="M1247.1 0.195007C1101 81.6207 942.524 138.248 788.351 163.242C592.743 194.875 428.885 171.052 326.91 96.0705L301.618 77.3248C256.416 44.1297 202.604 18.1594 141.527 0.195007H0V67.952C84.2164 78.301 155.787 103.686 209.868 143.325L235.16 162.07C304.04 212.644 392.023 246.034 496.419 261.265C593.82 275.519 701.444 273.371 816.334 254.821C1032.93 219.869 1255.17 130.047 1446.48 0.390463H1247.1V0.195007Z" fill="#F08B6E"/>
<path d="M1439.48 0.195374C1266.47 116.183 1067.91 196.437 875.797 227.289C680.188 258.922 516.33 235.1 414.355 160.118L389.064 141.372C320.184 90.7986 232.2 57.4081 127.804 42.1774C86.907 36.1242 44.3952 33.1953 0 33V126.727C122.692 127.313 225.474 154.65 297.044 207.372L322.336 226.117C391.216 276.691 479.199 310.081 583.595 325.312C680.996 339.566 788.62 337.418 903.51 318.868C1129.52 282.354 1361.72 186.088 1558.41 47.0591V0.195374H1439.48Z" fill="#F1906C"/>
<path d="M963.241 291.354C767.633 322.987 603.775 299.165 501.8 224.183L476.509 205.437C407.629 154.863 319.645 121.473 215.249 106.243C147.984 96.4793 76.1445 94.5265 0 100.189V194.502C161.437 180.053 296.237 206.414 384.489 271.242L409.781 289.987C478.661 340.561 566.644 373.951 671.04 389.182C768.441 403.436 876.065 401.288 990.955 382.738C1184.41 351.496 1382.17 276.514 1558.68 168.532V42C1378.4 169.899 1167.19 258.354 963.241 291.354Z" fill="#F1966B"/>
<path d="M1050.69 355.773C855.08 387.406 691.221 363.584 589.247 288.602L563.955 269.856C495.075 219.283 407.092 185.892 302.696 170.662C210.139 157.188 108.433 158.555 0.270508 174.567V270.442C3.76831 269.857 7.26612 269.271 10.7639 268.685C206.372 237.052 370.231 260.874 472.205 335.856L497.497 354.601C566.377 405.175 654.36 438.566 758.756 453.796C856.156 468.051 963.781 465.903 1078.67 447.352C1240.65 421.187 1405.85 364.365 1558.95 282.939V163.827C1399.39 260.874 1222.35 328.046 1050.69 355.773Z" fill="#F29B69"/>
<path d="M1138.13 419.82C942.525 451.453 778.666 427.631 676.692 352.649L651.4 333.904C582.52 283.33 494.537 249.939 390.141 234.709C292.741 220.454 185.116 222.602 70.2266 241.153C47.0873 244.863 23.6789 249.354 0.270508 254.235V352.454C33.0961 344.448 65.6525 337.808 98.209 332.536C293.817 300.903 457.676 324.726 559.65 399.708L584.942 418.453C653.822 469.027 741.805 502.417 846.201 517.648C943.601 531.902 1051.23 529.754 1166.12 511.204C1297.69 489.92 1431.41 448.329 1558.95 389.945V277.081C1423.61 347.767 1279.12 397.169 1138.13 419.82Z" fill="#F3A068"/>
<path d="M1225.31 484.062C1029.7 515.695 865.841 491.873 763.867 416.891L738.575 398.146C669.695 347.572 581.712 314.181 477.316 298.951C379.915 284.696 272.291 286.844 157.401 305.395C105.203 313.791 52.4671 325.507 0 340.152V441.299C61.6152 421.773 123.768 406.737 185.384 396.779C380.992 365.146 544.85 388.968 646.825 463.95L672.117 482.696C740.996 533.269 828.98 566.66 933.376 581.89C1030.78 596.145 1138.4 593.997 1253.29 575.447C1355.26 559.044 1458.32 530.34 1558.68 491.287V383.501C1449.71 431.731 1336.43 466.098 1225.31 484.062Z" fill="#F3A566"/>
<path d="M1312.75 548.305C1117.15 579.938 953.288 556.116 851.313 481.134L826.021 462.388C757.141 411.814 669.158 378.424 564.762 363.194C467.362 348.939 359.737 351.087 244.848 369.637C163.322 382.72 81.2581 403.809 0.270508 431.536V536.394C90.4062 501.246 182.425 475.666 273.099 461.021C468.707 429.388 632.566 453.211 734.54 528.193L759.832 546.938C828.712 597.512 916.695 630.902 1021.09 646.133C1118.49 660.387 1226.12 658.239 1341.01 639.689C1413.65 627.973 1486.57 610.204 1558.95 586.577V482.891C1477.42 512.962 1394.55 535.027 1312.75 548.305Z" fill="#F4AA65"/>
<path d="M1400.2 612.547C1204.59 644.18 1040.73 620.357 938.758 545.376L913.466 526.63C844.587 476.057 756.603 442.666 652.207 427.435C554.807 413.181 447.182 415.329 332.293 433.879C221.439 451.844 109.241 484.062 0.270508 528.778V638.127C117.581 583.452 240.274 544.79 360.275 525.459C555.883 493.826 719.742 517.648 821.716 592.63L847.008 611.375C915.888 661.949 1003.87 695.339 1108.27 710.57C1205.67 724.824 1313.29 722.676 1428.18 704.126C1471.5 697.097 1515.36 687.92 1558.95 676.594V576.423C1505.94 591.849 1452.67 603.955 1400.2 612.547Z" fill="#F4AF63"/>
<path d="M1487.64 676.594C1292.04 708.227 1128.18 684.405 1026.2 609.423L1000.91 590.677C932.032 540.104 844.048 506.713 739.652 491.483C642.252 477.228 534.627 479.376 419.738 497.926C279.019 520.577 135.878 566.66 0.270508 631.683V746.304C143.142 668.198 297.584 613.719 447.72 589.506C643.328 557.873 807.187 581.695 909.161 656.677L934.453 675.422C1003.33 725.996 1091.32 759.387 1195.71 774.617C1293.11 788.872 1400.74 786.724 1515.63 768.173C1530.16 765.83 1544.42 763.292 1558.95 760.558V663.121C1535 668.198 1511.32 672.884 1487.64 676.594Z" fill="#F5B462"/>
<path d="M1113.65 673.665L1088.36 654.92C1019.48 604.346 931.494 570.955 827.098 555.725C729.697 541.47 622.072 543.618 507.183 562.169C335.791 589.896 160.631 651.991 0.270508 741.032V862.096C166.551 756.262 353.549 683.038 535.165 653.748C730.773 622.115 894.632 645.937 996.607 720.919L1021.9 739.665C1090.78 790.238 1178.76 823.629 1283.16 838.859C1367.91 851.161 1460.74 851.161 1558.95 838.664V743.375C1370.33 771.103 1212.66 746.499 1113.65 673.665Z" fill="#F5B960"/>
<path d="M1200.82 737.908L1175.53 719.162C1106.65 668.588 1018.67 635.198 914.272 619.967C816.872 605.713 709.247 607.861 594.358 626.411C390.947 659.215 182.962 740.446 0 857.41V986.675C6.72655 981.794 13.4531 976.717 20.1796 971.836C202.065 841.398 415.701 751.381 622.071 717.991C817.679 686.358 981.538 710.18 1083.51 785.162L1108.8 803.907C1177.68 854.481 1265.67 887.872 1370.06 903.102C1429.26 911.694 1492.49 914.232 1558.68 910.913V816.99C1409.08 826.168 1284.23 799.026 1200.82 737.908Z" fill="#F6BE5F"/>
<path d="M107.625 1035.88C289.511 905.445 503.146 815.428 709.516 782.037C905.124 750.404 1068.98 774.227 1170.96 849.209L1196.25 867.954C1265.13 918.528 1353.11 951.918 1457.51 967.149C1490.06 971.835 1523.97 974.764 1558.68 975.935V882.208C1447.82 878.108 1354.73 850.966 1288.27 802.149L1262.98 783.404C1194.1 732.83 1106.11 699.44 1001.72 684.209C904.317 669.955 796.692 672.103 681.803 690.653C452.024 727.754 215.788 826.753 16.9509 969.297C11.3006 973.397 5.6503 977.498 0 981.598V1100.12H25.0228C51.1217 1078.25 78.5661 1056.78 107.625 1035.88Z" fill="#F6C35D"/>
<path d="M796.961 846.28C992.569 814.647 1156.43 838.469 1258.4 913.451L1283.69 932.196C1352.57 982.77 1440.56 1016.16 1544.95 1031.39C1549.53 1031.98 1554.1 1032.56 1558.68 1033.15V937.664C1486.03 925.557 1423.88 901.54 1375.44 866.197L1350.15 847.451C1281.27 796.878 1193.29 763.487 1088.89 748.257C991.493 734.002 883.868 736.15 768.979 754.7C539.2 791.801 302.964 890.8 104.127 1033.34C73.992 1055.02 45.2024 1077.28 18.0272 1099.93H195.07C376.956 969.687 590.591 879.67 796.961 846.28Z" fill="#F7C85C"/>
<path d="M884.406 910.522C1080.01 878.889 1243.87 902.711 1345.85 977.693L1371.14 996.438C1423.07 1034.71 1486.03 1063.02 1558.68 1081.18V980.036C1522.62 967.344 1490.6 950.942 1462.89 930.634L1437.6 911.889C1368.72 861.315 1280.73 827.925 1176.34 812.694C1078.94 798.44 971.313 800.588 856.424 819.138C626.645 856.238 390.409 955.238 191.572 1097.78C190.496 1098.56 189.42 1099.34 188.343 1100.12H379.915C538.393 1004.44 713.821 938.054 884.406 910.522Z" fill="#F8CD5A"/>
<path d="M1433.29 1041.94L1458.58 1060.68C1478.5 1075.33 1500.02 1088.41 1523.16 1100.32H1558.68V1000.73C1555.98 998.782 1553.03 996.829 1550.33 994.877L1525.04 976.131C1456.16 925.557 1368.18 892.167 1263.78 876.936C1166.38 862.682 1058.76 864.83 943.869 883.38C748.799 914.818 549.424 990.776 372.113 1100.32H585.21C710.592 1039.01 842.702 995.853 972.121 974.959C1167.46 943.131 1331.32 966.954 1433.29 1041.94Z" fill="#F8D359"/>
<path d="M1558.94 1006.4C1500.02 974.569 1430.33 952.504 1351.23 940.983C1253.83 926.729 1146.2 928.877 1031.31 947.427C877.142 972.226 720.279 1024.95 573.64 1100.12H824.405C902.433 1072.2 981.269 1051.5 1059.3 1039.01C1249.52 1008.35 1409.88 1030.02 1512.13 1100.12H1558.94V1006.4Z" fill="#F9D857"/>
<path d="M1432.49 1100.12H1558.68V1033.15C1521.54 1020.85 1481.45 1011.47 1438.4 1005.23C1341 990.971 1233.38 993.119 1118.49 1011.67C1013.02 1028.66 906.2 1058.73 802.073 1100.12H1166.38C1265.13 1085.87 1355 1086.07 1432.49 1100.12Z" fill="#F9DD56"/>
<path d="M1558.94 1074.94C1548.18 1072.98 1537.15 1071.03 1526.12 1069.47C1428.72 1055.21 1321.09 1057.36 1206.2 1075.91C1166.92 1082.16 1127.64 1090.36 1088.36 1100.12H1558.94V1074.94Z" fill="#FAE254"/>
</svg>
